<?xml version="1.0" encoding="utf-8"?>
<!-- Generator: Adobe Illustrator 23.0.5, SVG Export Plug-In . SVG Version: 6.00 Build 0)  -->
<svg version="1.1" id="Layer_1" xmlns="http://www.w3.org/2000/svg" xmlns:xlink="http://www.w3.org/1999/xlink" x="0px" y="0px"
	 viewBox="0 0 262.9 228.9" style="enable-background:new 0 0 262.9 228.9;" xml:space="preserve">
<style type="text/css">
	.st0{fill:#2C2C2C;}
	.st1{fill:#C5C5C5;}
	.st2{fill:#939393;}
	.st3{fill:#58595B;}
	.st4{fill:#E8E8E8;}
	.st5{fill:#00A826;}
	.st6{fill:#FFFFFF;}
</style>
<rect y="189.8" class="st0" width="262.9" height="39.1"/>
<path d="M85.9,134.2c-15,32.3-10,53-10,53l50.7-9l19.2-5.6l38.8,2.6c0,0,4.3-23-8.3-37.7C163.6,122.8,85.9,134.2,85.9,134.2z"/>
<path class="st1" d="M117.3,187.3L82.2,179c-0.1-7.5,1.1-20.9,8.6-38.4c8.5-1.1,30-3.6,49.2-3.6c25.9,0,30.6,4.6,31.1,5.1
	c7.7,8.9,7.6,22.5,7.1,28.6l-31.7,16.6H117.3z"/>
<path d="M205.4,85.1l3.5,4L203.6,67c-2.7-11.4-12.9-20.7-21-26.6l-2.6-3.5c-6.8-9.4-24.3-14.3-38-14.3c-1.1,0-2.1,0-3.1,0.1
	c-1.5,0.1-3,0.3-4.3,0.5c-0.9,0.1-1.6,0.3-2.4,0.5c-0.1,0-0.2,0-0.3,0c-0.1,0-0.2,0-0.3,0c-0.8-0.2-1.5-0.4-2.4-0.5
	c-1.3-0.2-2.8-0.4-4.3-0.5c-1-0.1-2-0.1-3.1-0.1c-13.7,0-31.2,4.9-38,14.3l-2.6,3.5c-8.1,5.9-18.3,15.2-21,26.6l-5.3,22.1l3.5-4
	c-3,10.3-8.8,35.1,1.5,50.7l12.4,19l-0.5-8.5c0.2,0.2,0.4,0.4,0.7,0.5L89,159.9l-2.2-6.1c6.5,3.7,13.8,6.3,21.6,7.7l0.5,0.1l0.8-2
	c6.9,2.9,12.4,8,16.3,15.1c4.1,7.4,5,14.2,5,14.3h0.9h0.9c0-0.1,0.9-6.9,5-14.3c3.9-7.1,9.4-12.2,16.3-15.1l0.8,2l0.5-0.1
	c7.8-1.4,15.1-4,21.6-7.7l-2.2,6.1l16.5-13.1c0.3-0.1,0.5-0.3,0.7-0.5l-0.5,8.5l12.4-19C214.2,120.2,208.4,95.4,205.4,85.1z"/>
<path d="M163.4,36.8c7.5-24.4,29.3-27.4,29.3-27.4s-2.1,2.6-2.9,4c0,0,10.5-10.5,38.1-1.2c0,0-1.5-0.6-5.9,1.7c0,0,7.5,1,16.5,8.6
	c0,0-3.4-0.4-5.4,0.1c0,0,13.1,8.3,14.3,20.9c0,0-2.3-1.6-3.9-1.8c0,0,11.6,12.3,4.4,35.9c0,0-1.8-3.7-4.9-5.3
	c0,0-4.5,19.8-15.9,24.9c0,0,0.2-4.7-0.9-6.4c0,0-7.6,12.1-28.6,10.5s-46.8-19.9-46.8-19.9l2.7-35.2L163.4,36.8z"/>
<path class="st1" d="M244.5,68.4c0,0-2.4-6-4.8-7.5c0,0-0.7,18.1-10.6,26.3c0,0,1.2-6,1-8.7c0,0-4.8,14.2-27.5,15.5
	c-22.7,1.2-34.1-39.4-34.1-39.4V38.7c0.9-2.1,1.8-4,2.8-5.7c6.5-11.2,14.8-14.1,14.8-14.1s-2.7,3.1-3.1,5.6c0,0,12.6-12.3,28.3-9.4
	c0,0-3.6,1.4-5.8,2.9c0,0,15.9-1.9,22,5.1c0,0-8-1.4-8.5,0.5c0,0,17.4,5.1,21.5,16.9c0,0-3.1-2.7-8.2-4.6
	C232.2,35.8,246.9,46.9,244.5,68.4z"/>
<rect x="108.6" y="186.3" width="47" height="5.8"/>
<path class="st2" d="M244.5,68.4c1.1-23.4-25.3-36.7-25.3-36.7c3.2-0.5,8.6,0,8.6,0c-22.8-12.7-34.4-7.4-34.4-7.4
	c1.5-2.2,6.2-5.4,6.2-5.4c-2.5,0.3-19.3,6.7-25.1,16.3l-3.2-2.3c6.5-11.2,14.8-14.1,14.8-14.1s-2.7,3.1-3.1,5.6
	c0,0,12.6-12.3,28.3-9.4c0,0-3.6,1.4-5.8,2.9c0,0,15.9-1.9,22,5.1c0,0-8-1.4-8.5,0.5c0,0,17.4,5.1,21.5,16.9c0,0-3.1-2.7-8.2-4.6
	C232.2,35.8,246.9,46.9,244.5,68.4z"/>
<path d="M99.5,36.8C92,12.4,70.2,9.4,70.2,9.4s2.1,2.6,2.9,4c0,0-10.5-10.5-38.1-1.2c0,0,1.5-0.6,5.9,1.7c0,0-7.5,1-16.5,8.6
	c0,0,3.4-0.4,5.4,0.1c0,0-13.1,8.3-14.3,20.9c0,0,2.3-1.6,3.9-1.8c0,0-11.6,12.3-4.4,35.9c0,0,1.8-3.7,4.9-5.3
	c0,0,4.5,19.8,15.9,24.9c0,0-0.2-4.7,0.9-6.4c0,0,7.6,12.1,28.6,10.5s46.8-19.9,46.8-19.9l-2.7-35.2L99.5,36.8z"/>
<path class="st1" d="M94.5,38.7C88,22.8,76.9,18.9,76.9,18.9s2.7,3.1,3.1,5.6c0,0-12.6-12.3-28.3-9.4c0,0,3.6,1.4,5.8,2.9
	c0,0-15.9-1.9-22,5.1c0,0,8-1.4,8.5,0.5c0,0-17.4,5.1-21.5,16.9c0,0,3.1-2.7,8.2-4.6c0,0-14.7,11.1-12.3,32.6c0,0,2.4-6,4.8-7.5
	c0,0,0.7,18.1,10.6,26.3c0,0-1.2-6-1-8.7c0,0,4.8,14.3,27.5,15.5s34.1-39.4,34.1-39.4v-16H94.5z"/>
<path class="st2" d="M18.4,68.4C17.3,45,43.7,31.7,43.7,31.7c-3.2-0.5-8.6,0-8.6,0c22.8-12.7,34.4-7.4,34.4-7.4
	c-1.5-2.2-6.2-5.4-6.2-5.4c2.5,0.3,19.3,6.7,25.1,16.3l3.2-2.3c-6.5-11.2-14.8-14.1-14.8-14.1s2.7,3.1,3.1,5.6
	c0,0-12.6-12.3-28.3-9.4c0,0,3.6,1.4,5.8,2.9c0,0-15.9-1.9-22,5.1c0,0,8-1.4,8.5,0.5c0,0-17.4,5.1-21.5,16.9c0,0,3.1-2.7,8.2-4.6
	C30.7,35.8,16,46.9,18.4,68.4z"/>
<g>
	<path class="st3" d="M86.5,53C83,31.6,68.6,29.2,68.6,29.2s4.9,4,4.7,6.3c0,0-11.3-7.3-22.3-1.4c0,0,9,0.7,7.1,1.4
		c-0.7,0.2-16.2,1.2-19,15c0,0,3.5-3.5,5.6-4.2c0,0-6.8,6.3-6.3,23.3c0,0,1.4-4.5,4.7-7.5c0,0-1.9,16.9,11.5,20.2c0,0-2.4-4-2.6-6.1
		c0,0,4.9,7.3,24.5,10.6c19.5,3.3,11.1-27,10.6-27.7C86.5,58.4,86.5,53,86.5,53z"/>
	<path class="st3" d="M176.4,53c3.5-21.4,17.9-23.7,17.9-23.7s-4.9,4-4.7,6.3c0,0,11.3-7.3,22.3-1.4c0,0-9,0.7-7.1,1.4
		c0.7,0.2,16.2,1.2,19,15c0,0-3.5-3.5-5.6-4.2c0,0,6.8,6.3,6.3,23.3c0,0-1.4-4.5-4.7-7.5c0,0,1.9,16.9-11.5,20.2c0,0,2.4-4,2.6-6.1
		c0,0-4.9,7.3-24.5,10.6c-19.5,3.3-11.1-27-10.6-27.7C176.4,58.4,176.4,53,176.4,53z"/>
</g>
<path class="st1" d="M197.7,82.7c1.9,2.8,4.3,3.4,4.6,3.5c-2.5-1.9-5.3-8.6-6-10.2c1,1.6,4.8,2.8,5.3,3c-4.6-2.3-8.3-13.8-8.3-13.8
	c1.9,0.8,4.1,3.2,4.1,3.2c-4.1-17.2-28-28.5-28-28.5c2.3,0.3,4.3,0.2,5.2,0.5l0.1,0.1c0.1,0,0.1,0,0.1,0
	c-7.5-10.2-33.1-14.3-43.2-10.4c-10.1-3.9-35.7,0.2-43.2,10.4c0,0,0,0,0.1,0l0.1-0.1c0.9-0.3,1.9-0.2,4.2-0.5c0,0-22.9,11.3-27,28.5
	c0,0,2.2-2.4,4.1-3.2c0,0-3.7,11.5-8.3,13.8c0.5-0.2,4.3-1.4,5.3-3c-0.7,1.6-3.5,8.3-6,10.2c0.3-0.1,2.7-0.7,4.6-3.5
	c-0.7,1.3-11.9,33-0.9,49.9c0,0-0.3-5.6,0.7-7.9c0,0,3.9,12.1,10.6,17.5c-0.1-0.3-1-2.9-0.8-5.6c0,0,10.3,14.9,34.1,19.2
	c0,0-4.1-2.7-5.1-5.1c0,0,12,4.5,17.6,11.7c0,0,0-4.3-1.3-7.3c0.6,0.5,9.7,7.3,11.2,17.5c1.5-10.2,10.6-17.1,11.2-17.5
	c-1.3,3-1.3,7.3-1.3,7.3c5.6-7.2,17.6-11.7,17.6-11.7c-1,2.4-5.1,5.1-5.1,5.1c23.8-4.3,34.1-19.2,34.1-19.2c0.2,2.7-0.7,5.3-0.8,5.6
	c6.7-5.4,10.6-17.5,10.6-17.5c1,2.3,0.7,7.9,0.7,7.9C209.6,115.7,198.4,84,197.7,82.7z"/>
<path class="st4" d="M180,39.1c5.5-13.2,19.6-12.7,19.6-12.7s-3.2,1.8-3.9,3.2c0,0,10.6-4.4,22.3,5.7c0,0-3.4-0.5-4.7-0.3
	c0,0,10.1,2,10.6,15.7l-2.2-4.6l-4.4-4.2l-9.2-3.5l-1-1.8l-5.5-1l3.2-2.2l-6.2-0.2l-10.2,4.2l-3.9,1.7L180,39.1z"/>
<path class="st4" d="M81.4,36.6c-4.7-11.2-18.1-10.2-18.1-10.2s3.2,1.8,3.9,3.2c0,0-10.6-4.4-22.3,5.7c0,0,3.4-0.5,4.7-0.3
	c0,0-10.1,2-10.6,15.7l2.2-4.6l4.4-4.2l9.2-3.5l1-1.8l5.5-1l-3.2-2.4l6.2-0.2l10.2,4.2l3.9,1.7L81.4,36.6z"/>
<path class="st2" d="M111.3,98.6c0.2,11.7-8.9,18.8-18.3,21.5c0,0,3.1-4,2.7-6.5c0,0-11.4,2.8-16.9-7.1l4.8,2.5l10.4-1.7l12.6-8.2
	L111.3,98.6z"/>
<path class="st4" d="M83.3,69c0,0,6.1,11.4,23.2,18.7c0,0,2.2-1.3,0.8-5.8c0,0,1.6,2.2,2.6,4.2c2.2,4.7-0.2,7.3-0.2,7.3L97,89.2
	l-10.6-6.7L84.6,74L83.3,69z"/>
<path class="st2" d="M154.1,126.2c0.6-0.5,1.4-4.4,1.4-4.4c1.3,7.6-1.2,11.9-1.2,11.9c1.7-1.6,5.5-1.8,5.5-1.8c-0.1-1.2-2-3.4-2-3.4
	c9.4-1.7,13,4.7,13,4.7s0.4,0-0.3,0.3c19.5-7.3,19.6-13.5,19.6-13.7c-2.7,3.4-8,3.5-8,3.5c13.4-8.6,13.3-23,13.3-23
	c-2.1,4.4-7.4,6.6-7.7,6.7c0.3-0.4,6-7.3,4.2-17.8c-1.9-10.7,1.5-24.3,1.5-24.3s3.7,11.5,8.3,13.8c-0.5-0.2-4.3-1.4-5.3-3
	c0.7,1.6,3.5,8.3,6,10.2c-0.3-0.1-2.7-0.7-4.6-3.5c0.5,1.3,11.7,33,0.7,50c0,0,0.4-5.6-0.7-7.9c0,0-3.9,12.1-10.6,17.5
	c0.1-0.3,1-2.9,0.8-5.6c0,0-10.3,14.9-34.1,19.2c0,0,4.1-2.7,5.1-5.1c0,0-12,4.5-17.6,11.7c0,0,0-4.3,1.4-7.3
	c-0.6,0.5-11.5,8.6-11.5,20.3V96.9C154.7,107.2,154.1,126.2,154.1,126.2z"/>
<path class="st2" d="M108.8,126.2c-0.6-0.5-1.4-4.4-1.4-4.4c-1.3,7.6,1.2,11.9,1.2,11.9c-1.7-1.6-5.5-1.8-5.5-1.8
	c0.1-1.2,2-3.4,2-3.4c-9.4-1.7-13,4.7-13,4.7s-0.4,0,0.3,0.3c-19.5-7.3-19.6-13.5-19.6-13.7c2.7,3.4,8,3.5,8,3.5
	c-13.4-8.6-13.3-23-13.3-23c2.1,4.4,7.4,6.6,7.7,6.7c-0.3-0.4-6-7.3-4.2-17.8c1.9-10.7-1.5-24.3-1.5-24.3s-3.7,11.5-8.3,13.8
	c0.5-0.2,4.3-1.4,5.3-3c-0.7,1.6-3.5,8.3-6,10.2c0.3-0.1,2.7-0.7,4.6-3.5c-0.5,1.3-11.7,33-0.7,50c0,0-0.4-5.6,0.7-7.9
	c0,0,3.9,12.1,10.6,17.5c-0.1-0.3-1-2.9-0.8-5.6c0,0,10.3,14.9,34.1,19.2c0,0-4.1-2.7-5.1-5.1c0,0,12,4.5,17.6,11.7
	c0,0,0-4.3-1.4-7.3c0.6,0.5,11.5,8.6,11.5,20.3V96.9C108.2,107.2,108.8,126.2,108.8,126.2z"/>
<path d="M151.5,131.8c0,0,3.3-11.1-5.5-22.7s-12.5-12.2-14.6-12.2s-5.8,0.6-14.6,12.2s-5.5,22.7-5.5,22.7c-1.1-0.3-2.2-2.5-2.2-2.5
	c2.3,14.2,14.7,15.7,14.7,15.7c-2.2-1.1-3.4-4.5-3.4-4.5s6.6,6.1,11,6.1s11-6.1,11-6.1s-1.3,3.4-3.4,4.5c0,0,12.4-1.4,14.7-15.7
	C153.7,129.3,152.6,131.4,151.5,131.8z"/>
<path class="st2" d="M151.6,98.6c-0.2,11.7,8.9,18.8,18.3,21.5c0,0-3.1-4-2.7-6.5c0,0,11.4,2.8,16.9-7.1l-4.8,2.5l-10.4-1.7
	l-12.5-8.1L151.6,98.6z"/>
<path class="st4" d="M179.6,69c0,0-6.1,11.4-23.2,18.7c0,0-2.2-1.3-0.8-5.8c0,0-1.6,2.2-2.6,4.2c-2.2,4.7,0.2,7.3,0.2,7.3l12.7-4.2
	l10.6-6.7l1.8-8.5L179.6,69z"/>
<g>
	<path d="M83,42c0,0-3.6-10.7-14.4-12.8c0,0,4.1,3.9,4.2,5.7c0,0-11.8-7.3-21.8-0.8c0,0,4.6,0.7,6.5,1.3c0,0-16.5,0.9-18.5,15.2
		c0,0,4.6-11.3,19.8-11.2c0,0-5.6,1.3-8.1,5.1c0,0,6.5-5.9,20.2-4.4c0,0-6.4-3-15.6-2.1c0,0,4.2-2.9,11.2-1.4c0,0-2.6-2.3-6-2.7
		c0,0,9.6-0.2,17.2,10.8L83,42z"/>
	<path d="M180,42c0,0,3.6-10.7,14.4-12.8c0,0-4.1,3.9-4.2,5.7c0,0,11.8-7.3,21.8-0.8c0,0-4.6,0.7-6.5,1.3c0,0,16.5,0.9,18.5,15.2
		c0,0-4.6-11.3-19.8-11.2c0,0,5.6,1.3,8.1,5.1c0,0-6.5-5.9-20.2-4.4c0,0,6.4-3,15.6-2.1c0,0-4.2-2.9-11.2-1.4c0,0,2.6-2.3,6-2.7
		c0,0-9.6-0.2-17.2,10.8L180,42z"/>
</g>
<g>
	<path d="M155.6,81.9c0,0-17.8,14.4,9.8,34.6c0,0-3.4-4.3-3.4-8.5c0,0,12.2,8.5,22.2-1.4c0,0-3.4,1.1-5.1,1.1c0,0,10.2-12.2,8-23.6
		l-1.4,4.8c0,0,0.7-7.8-6.8-11.7c0,0,0.9-5.1,0.9-8.2c0,0-7.1,14.8-25.2,21.6C154.5,90.6,152.8,86.9,155.6,81.9z"/>
</g>
<path class="st5" d="M161.2,95.3c0,0,5.8-1.7,9.1-4.9c0,0,2.4,4.7-1.9,7.5S161.2,95.3,161.2,95.3z"/>
<g>
	<path d="M107.3,81.9c0,0,17.8,14.4-9.8,34.6c0,0,3.4-4.3,3.4-8.5c0,0-12.2,8.5-22.2-1.4c0,0,3.4,1.1,5.1,1.1c0,0-10.2-12.2-8-23.6
		l1.4,4.8c0,0-0.7-7.8,6.8-11.7c0,0-0.9-5.1-0.9-8.2c0,0,7.1,14.8,25.2,21.6C108.4,90.6,110.1,86.9,107.3,81.9z"/>
</g>
<path d="M162.5,130.7c4.3,1.8,5,4.5,5,4.5c-1.7-3.1-6.3-2.2-9.2,1.6s-4.3,8.3-26.5,11.8c-22.2-3.5-23.6-8-26.5-11.8
	s-7.5-4.7-9.2-1.6c0,0,0.7-2.7,5-4.5c0,0-8.6,0.6-8.9,10.6c0,0,1-2.7,2.4-3.8c0,0,0.3,13.7,18.6,13.1c16.4-0.5,18.4,1.1,18.6,1.4
	v0.1l0,0l0,0V152c0.2-0.3,2.2-1.9,18.6-1.4c18.3,0.5,18.6-13.1,18.6-13.1c1.4,1.1,2.4,3.8,2.4,3.8
	C171.1,131.3,162.5,130.7,162.5,130.7z"/>
<path class="st6" d="M115.3,147.2c0,0-2,0.9-5,0.9c-1.8,0.1-4-0.2-6.2-1.1c-6.1-2.4-5.9-6.9-5.9-9.1c0-1.2,1-1.9,2.1-1.9
	c1,0,2.2,0.6,3,2C104.8,140.8,105.8,143.9,115.3,147.2z"/>
<path class="st4" d="M110.3,148.1c-1.8,0.1-4-0.2-6.2-1.1c-6.1-2.4-5.9-6.9-5.9-9.1c0-1.2,1-1.9,2.1-1.9
	C102.7,144.4,105.1,145.2,110.3,148.1z"/>
<path d="M99,135.4c0,0,0.6,5.2,5.5,8.7c0,0-6-2.2-7.4-7.4L99,135.4z"/>
<path class="st6" d="M148.3,147.2c9.5-3.3,10.5-6.4,12.1-9.2c1.6-2.9,5.1-2.3,5.1-0.1s0.2,6.7-5.9,9.1
	C153.5,149.4,148.3,147.2,148.3,147.2z"/>
<path class="st4" d="M153.3,148.1c1.8,0.1,4-0.2,6.2-1.1c6.1-2.4,5.9-6.9,5.9-9.1c0-1.2-1-1.9-2.1-1.9
	C160.9,144.4,158.5,145.2,153.3,148.1z"/>
<path class="st4" d="M131.5,30.2c-5.8,0-7.6,2.3-7.6,2.3c-6,6.7-2.2,17.7-2.2,17.7l-3.1,0.8l-3.8-18.6c0.1-1.1,0.3-2.2,0.6-3.3
	c0.9-0.1,1.8-0.2,2.7-0.2c1.3-0.1,2.5-0.1,3.7-0.1C125.5,28.7,129,29.2,131.5,30.2z"/>
<path d="M164.6,135.4c0,0-0.6,5.2-5.5,8.7c0,0,6-2.2,7.4-7.4L164.6,135.4z"/>
<path class="st4" d="M128,101.5c-15.3,16.1-12.9,28-12.2,32.5s7.5,5,6,0s-4.2-12.2,4-28.8L128,101.5z"/>
<path class="st5" d="M101.7,95.3c0,0-0.7,1.2-1.8,2.2c-1.3,1.1-3.2,1.9-5.5,0.4c-4.3-2.8-1.9-7.5-1.9-7.5c0.6,0.6,1.4,1.2,2.1,1.6
	C97.9,94.2,101.7,95.3,101.7,95.3z"/>
<g>
	<path d="M117.7,182c-0.1-0.3-0.2-0.5-0.3-0.8c0.2-0.5,0.3-1,0.2-1.6c0-0.5-0.3-4.5-2.7-8.4c-1.7-2.7-8.9-9.2-15.6-8.4
		c-2,0.2-5.2,1.3-7.2,5.2c-2.7-3.7-6.3-5.6-10.1-5.2c-3.2,0.4-6.2,2.4-9,6c-1.3,1.8-2.2,3.5-2.8,5.3c-1.9-1.3-4.1-2.1-6.4-1.8l0,0
		c-2,0.2-4.9,1.3-7.3,5.3c-1.8,2.9-2.6,5.7-2.8,8.1c-1-0.2-2.1-0.2-3.1-0.1c-2.6,0.3-4.7,1.6-6.1,3.6c-3.4,5.1,0.3,12.7,1.5,14.9
		c0.6,1,1.5,1.7,2.6,2c0.1,0.1,0.1,0.1,0.2,0.2l5.7,5.1c0.8,0.7,1.9,1.1,3,1c0.3,0.2,0.6,0.4,0.9,0.6l7.8,4.3
		c0.8,0.4,1.7,0.6,2.5,0.5s1.6-0.4,2.2-0.9c1.3-1.1,1.8-2.9,1.3-4.5l-0.8-2.3l1.2,1.3c0.9,1,2.2,1.4,3.5,1.3c0.4,0,0.7-0.1,1.1-0.3
		c1.6-0.6,2.6-2.2,2.6-3.9l-0.1-9.4c1.1,1,1.9,1.6,2,1.6c0.6,0.4,1.4,0.7,2.1,0.8l5.9,8c0.9,1.2,2.4,1.8,3.8,1.7
		c0.2,0,0.4-0.1,0.6-0.1c1.7-0.5,2.9-1.9,3.1-3.6l1.2-11c0-0.1,0-0.2,0-0.3c0.4,0.2,0.6,0.4,0.6,0.4c0.2,0.1,0.4,0.2,0.6,0.3
		c0.3,0.5,0.6,0.9,0.9,1.4l7.5,8.8c0.9,1.1,2.3,1.6,3.7,1.4c0.3,0,0.6-0.1,0.9-0.2c1.6-0.6,2.7-2.1,2.8-3.8l0.3-8.1
		c1.4-0.4,2.6-1.5,2.9-3C118.5,192.5,119.8,187.1,117.7,182z"/>
	<g>
		<path class="st1" d="M63.8,201.8c0,0-0.8-0.1-1.8,0.1c-0.4,0.1-0.9,0.2-1.4,0.4l0,0c-1.8,0.7-3.6,2.3-3.4,6l-5.7-5.1
			c0,0,0.6-4.3,0.4-6.1c0,0-1.3,4.6-2.3,5c0,0-4-7.1-1.7-10.5c0.5-0.8,1.2-1.2,2-1.5c0.9-0.3,1.9-0.3,2.9-0.2c2.1,0.3,4.2,1.5,5,2.8
			C59.4,195.2,63.5,200,63.8,201.8z"/>
		<path class="st1" d="M75.7,196c0,0-1.2-1.2-2.8-1.7c-1.1-0.3-2.4-0.4-3.6,0.3c-0.1,0.1-0.3,0.2-0.4,0.2l0,0
			c-2.8,1.9-2.1,5.7-1.5,6.5c-0.3-0.2-5-4.3-5.5-5.1c0,0,0.2-4,2.1-6.3c-0.2,0.2-3.4,2.8-3.3,4.1l-1.4-1.6c0,0-3.9-5.3,0.7-12.6
			c1.2-1.9,2.5-2.9,3.8-3.2c0.6-0.2,1.2-0.2,1.8,0c2.8,0.6,5.2,3.8,6.4,6C73.7,186.4,76.2,194.5,75.7,196z"/>
		<path class="st1" d="M94.4,191.5c0,0-1.3-1.6-3.6-2.1c-0.9-0.2-1.9-0.2-3,0.2c-0.8,0.2-1.4,0.6-1.9,1c-2.7,2.2-2.1,6.6-2.1,6.6
			s-3.7-2.6-7.1-7.8c0,0,0.5-5.2,3.3-7.9c-0.2,0.1-3.6,2.4-5,5.7c0,0-4.7-8,1.2-15.8c1.5-1.9,2.9-3.1,4.2-3.8c1-0.5,2-0.7,2.9-0.6
			c2.7,0.2,4.8,2.5,6.2,4.9C91.9,176.2,94.8,186.8,94.4,191.5z"/>
		<path class="st1" d="M114.3,192.1c0,0-1.2-3.9-4.5-5.3c-1-0.5-2.3-0.7-3.8-0.5c-2.4,0.4-3.7,1.5-4.4,2.7c-1.1,1.8-0.8,3.7-0.8,3.7
			s-8.6-4.9-6.3-18.7c0.5-3.4,1.7-5.3,3.2-6.3c0.6-0.4,1.3-0.6,2-0.7c4.5-0.6,10.4,4.5,11.7,6.5c1.9,3,2.1,6.3,2.1,6.3
			s-4.5-4.2-8.2-4.9c0,0,7,4.7,8.6,8.6C115.4,187.5,114.3,192.1,114.3,192.1z"/>
		<path class="st6" d="M68.4,214.2l-0.6-0.3l0,0l-7.2-3.9c-1.4-0.8-2-2.3-1.6-3.9c0.3-1.3,1.4-2.2,2.7-2.5h0.1h0.1
			c1.6-0.2,3.2,0.7,3.7,2.3L68.4,214.2z"/>
		<path class="st6" d="M68.6,197.2L68.6,197.2c0.8-1.2,2.2-1.8,3.6-1.7h0.1c1.8,0.2,3.2,1.8,3.2,3.6l0.1,9.6l-6.6-7
			C67.9,200.5,67.7,198.7,68.6,197.2z"/>
		<path class="st6" d="M86.3,192.7L86.3,192.7c1-1.3,2.7-1.8,4.3-1.4h0.1c2.1,0.5,3.4,2.5,3.2,4.6l-1.2,11l-6.6-9
			C85,196.3,85,194.2,86.3,192.7z"/>
		<path class="st6" d="M103.3,189.9L103.3,189.9c1-1.4,2.7-2.1,4.4-1.8h0.1c2.2,0.4,3.7,2.3,3.6,4.5L111,204l-7.5-8.8
			C102.2,193.8,102.1,191.6,103.3,189.9z"/>
	</g>
	<path class="st2" d="M60.5,202.3c-1.8,0.7-3.6,2.3-3.4,6l-5.7-5.1c0,0,0.6-4.3,0.4-6.1c0,0-1.3,4.6-2.3,5c0,0-4-7.1-1.7-10.5
		c0.5-0.8,1.2-1.2,2-1.5c-0.8,4.7-0.7,6.7,0.2,8.2c0,0,1.7-3.1,1.5-4.9c0,0,3.3,5.5,1.9,8.8l2.5,2.6
		C56.1,204.8,58.3,202.6,60.5,202.3z"/>
	<path class="st2" d="M67.3,201.4c-0.3-0.2-5-4.3-5.5-5.1c0,0,0.2-4,2.1-6.3c-0.2,0.2-3.4,2.8-3.3,4.1l-1.4-1.6
		c0,0-3.9-5.3,0.7-12.6c1.2-1.9,2.5-2.9,3.8-3.2c-4.6,7.8-2.9,13.6-2.9,13.6s3.4-2.5,5-2.2c0,0-2.6,6.1-2,8l1.4,1.1
		c0,0,1.8-1.6,3.6-2.3C66.1,196.8,66.7,200.6,67.3,201.4z"/>
	<path class="st2" d="M83.9,197.2c0,0-3.7-2.6-7.1-7.8c0,0,0.5-5.2,3.3-7.9c-0.2,0.1-3.6,2.4-5,5.7c0,0-4.7-8,1.2-15.8
		c1.5-1.9,2.9-3.1,4.2-3.8c-4.1,4.7-4.2,14.1-4.2,14.1s4.3-2.8,7.1-3.2c0,0-3.5,5.8-4.3,9.5l3.2,5c0,0,1.6-1.6,3.6-2.5
		C83.2,192.8,83.9,197.2,83.9,197.2z"/>
	<path class="st2" d="M114.3,192.1c0,0-1.2-3.9-4.5-5.3c2.5,0.1,3.7,2,3.7,2s0.3,0.6-1.3-4.3c-1.6-4.9-11.6-11.3-11.6-11.3
		c3.9-0.5,7.6,0.8,7.8,0.9c-1.4-2.3-3.4-3.9-9-7.1c4.5-0.6,10.4,4.5,11.7,6.5c1.9,3,2.1,6.3,2.1,6.3s-4.5-4.2-8.2-4.9
		c0,0,7,4.7,8.6,8.6C115.4,187.5,114.3,192.1,114.3,192.1z"/>
	<path class="st4" d="M63.8,201.8c0,0-0.8-0.1-1.8,0.1c-3.1-5.4-6.8-9.7-9.1-12c2.1,0.3,4.2,1.5,5,2.8
		C59.4,195.2,63.5,200,63.8,201.8z"/>
	<path class="st4" d="M75.7,196c0,0-1.2-1.2-2.8-1.7c-0.4-4.2-1.8-11.9-7.4-17.7c2.8,0.6,5.2,3.8,6.4,6
		C73.7,186.4,76.2,194.5,75.7,196z"/>
	<path class="st4" d="M94.4,191.5c0,0-1.3-1.6-3.6-2.1c0.4-10.8-2.1-18-7.5-22.4c2.7,0.2,4.8,2.5,6.2,4.9
		C91.9,176.2,94.8,186.8,94.4,191.5z"/>
	<path class="st4" d="M101.6,189c-1.1,1.8-0.8,3.7-0.8,3.7s-8.6-4.9-6.3-18.7c0.5-3.4,1.7-5.3,3.2-6.3
		C94.1,175.2,98.3,183.9,101.6,189z"/>
</g>
<path class="st4" d="M67.8,213.8l-7.2-3.9c-1.4-0.8-2-2.3-1.6-3.9c0.3-1.3,1.4-2.2,2.7-2.5h0.1h0.1C61.3,207,64.1,210.4,67.8,213.8z
	"/>
<path class="st1" d="M131.6,30c-5.8-2.2-16.7-1.8-26.4,0.9c2.3,0.6,5,2.4,5.6,7.6c1.2,9.6,11.8,15.9,11.8,15.9s-3.1-10.3-1.7-16.2
	C122.4,32.4,125.8,30.1,131.6,30z"/>
<g>
	<path d="M146.1,182c0.1-0.3,0.2-0.5,0.3-0.8c-0.2-0.5-0.3-1-0.2-1.6c0-0.5,0.3-4.5,2.7-8.4c1.7-2.7,8.9-9.2,15.6-8.4
		c2,0.2,5.2,1.3,7.2,5.2c2.7-3.7,6.3-5.6,10.1-5.2c3.2,0.4,6.2,2.4,9,6c1.3,1.8,2.2,3.5,2.8,5.3c1.9-1.3,4.1-2.1,6.4-1.8l0,0
		c2,0.2,4.9,1.3,7.3,5.3c1.8,2.9,2.6,5.7,2.8,8.1c1-0.2,2.1-0.2,3.1-0.1c2.6,0.3,4.7,1.6,6.1,3.6c3.4,5.1-0.3,12.7-1.5,14.9
		c-0.6,1-1.5,1.7-2.6,2c-0.1,0.1-0.1,0.1-0.2,0.2l-5.7,5.1c-0.8,0.7-1.9,1.1-3,1c-0.3,0.2-0.6,0.4-0.9,0.6l-7.8,4.3
		c-0.8,0.4-1.7,0.6-2.5,0.5s-1.6-0.4-2.2-0.9c-1.3-1.1-1.8-2.9-1.3-4.5l0.8-2.3l-1.2,1.3c-0.9,1-2.2,1.4-3.5,1.3
		c-0.4,0-0.7-0.1-1.1-0.3c-1.6-0.6-2.6-2.2-2.6-3.9l0.1-9.4c-1.1,1-1.9,1.6-2,1.6c-0.6,0.4-1.4,0.7-2.1,0.8l-5.9,8
		c-0.9,1.2-2.4,1.8-3.8,1.7c-0.2,0-0.4-0.1-0.6-0.1c-1.7-0.5-2.9-1.9-3.1-3.6l-1.2-11c0-0.1,0-0.2,0-0.3c-0.4,0.2-0.6,0.4-0.6,0.4
		c-0.2,0.1-0.4,0.2-0.6,0.3c-0.3,0.5-0.6,0.9-0.9,1.4l-7.5,8.8c-0.9,1.1-2.3,1.6-3.7,1.4c-0.3,0-0.6-0.1-0.9-0.2
		c-1.6-0.6-2.7-2.1-2.8-3.8l-0.3-8.1c-1.4-0.4-2.6-1.5-2.9-3C145.3,192.5,144,187.1,146.1,182z"/>
	<g>
		<path class="st1" d="M200,201.8c0,0,0.8-0.1,1.8,0.1c0.4,0.1,0.9,0.2,1.4,0.4l0,0c1.8,0.7,3.6,2.3,3.4,6l5.7-5.1
			c0,0-0.6-4.3-0.4-6.1c0,0,1.3,4.6,2.3,5c0,0,4-7.1,1.7-10.5c-0.5-0.8-1.2-1.2-2-1.5c-0.9-0.3-1.9-0.3-2.9-0.2
			c-2.1,0.3-4.2,1.5-5,2.8C204.4,195.2,200.3,200,200,201.8z"/>
		<path class="st1" d="M188.1,196c0,0,1.2-1.2,2.8-1.7c1.1-0.3,2.4-0.4,3.6,0.3c0.1,0.1,0.3,0.2,0.4,0.2l0,0
			c2.8,1.9,2.1,5.7,1.5,6.5c0.3-0.2,5-4.3,5.5-5.1c0,0-0.2-4-2.1-6.3c0.2,0.2,3.4,2.8,3.3,4.1l1.4-1.6c0,0,3.9-5.3-0.7-12.6
			c-1.2-1.9-2.5-2.9-3.8-3.2c-0.6-0.2-1.2-0.2-1.8,0c-2.8,0.6-5.2,3.8-6.4,6C190.1,186.4,187.6,194.5,188.1,196z"/>
		<path class="st1" d="M169.4,191.5c0,0,1.3-1.6,3.6-2.1c0.9-0.2,1.9-0.2,3,0.2c0.8,0.2,1.4,0.6,1.9,1c2.7,2.2,2.1,6.6,2.1,6.6
			s3.7-2.6,7.1-7.8c0,0-0.5-5.2-3.3-7.9c0.2,0.1,3.6,2.4,5,5.7c0,0,4.7-8-1.2-15.8c-1.5-1.9-2.9-3.1-4.2-3.8c-1-0.5-2-0.7-2.9-0.6
			c-2.7,0.2-4.8,2.5-6.2,4.9C171.9,176.2,169,186.8,169.4,191.5z"/>
		<path class="st1" d="M149.5,192.1c0,0,1.2-3.9,4.5-5.3c1-0.5,2.3-0.7,3.8-0.5c2.4,0.4,3.7,1.5,4.4,2.7c1.1,1.8,0.8,3.7,0.8,3.7
			s8.6-4.9,6.3-18.7c-0.5-3.4-1.7-5.3-3.2-6.3c-0.6-0.4-1.3-0.6-2-0.7c-4.5-0.6-10.4,4.5-11.7,6.5c-1.9,3-2.1,6.3-2.1,6.3
			s4.5-4.2,8.2-4.9c0,0-7,4.7-8.6,8.6C148.4,187.5,149.5,192.1,149.5,192.1z"/>
		<path class="st6" d="M195.4,214.2l0.6-0.3l0,0l7.2-3.9c1.4-0.8,2-2.3,1.6-3.9c-0.3-1.3-1.4-2.2-2.7-2.5H202h-0.1
			c-1.6-0.2-3.2,0.7-3.7,2.3L195.4,214.2z"/>
		<path class="st6" d="M195.2,197.2L195.2,197.2c-0.8-1.2-2.2-1.8-3.6-1.7h-0.1c-1.8,0.2-3.2,1.8-3.2,3.6l-0.1,9.6l6.6-7
			C195.9,200.5,196.1,198.7,195.2,197.2z"/>
		<path class="st6" d="M177.5,192.7L177.5,192.7c-1-1.3-2.7-1.8-4.3-1.4h-0.1c-2.1,0.5-3.4,2.5-3.2,4.6l1.2,11l6.6-9
			C178.8,196.3,178.8,194.2,177.5,192.7z"/>
		<path class="st6" d="M160.5,189.9L160.5,189.9c-1-1.4-2.7-2.1-4.4-1.8H156c-2.2,0.4-3.7,2.3-3.6,4.5l0.4,11.4l7.5-8.8
			C161.6,193.8,161.7,191.6,160.5,189.9z"/>
	</g>
	<path class="st2" d="M203.3,202.3c1.8,0.7,3.6,2.3,3.4,6l5.7-5.1c0,0-0.6-4.3-0.4-6.1c0,0,1.3,4.6,2.3,5c0,0,4-7.1,1.7-10.5
		c-0.5-0.8-1.2-1.2-2-1.5c0.8,4.7,0.7,6.7-0.2,8.2c0,0-1.7-3.1-1.5-4.9c0,0-3.3,5.5-1.9,8.8l-2.5,2.6
		C207.7,204.8,205.5,202.6,203.3,202.3z"/>
	<path class="st2" d="M196.5,201.4c0.3-0.2,5-4.3,5.5-5.1c0,0-0.2-4-2.1-6.3c0.2,0.2,3.4,2.8,3.3,4.1l1.4-1.6c0,0,3.9-5.3-0.7-12.6
		c-1.2-1.9-2.5-2.9-3.8-3.2c4.6,7.8,2.9,13.6,2.9,13.6s-3.4-2.5-5-2.2c0,0,2.6,6.1,2,8l-1.4,1.1c0,0-1.8-1.6-3.6-2.3
		C197.7,196.8,197.1,200.6,196.5,201.4z"/>
	<path class="st2" d="M179.9,197.2c0,0,3.7-2.6,7.1-7.8c0,0-0.5-5.2-3.3-7.9c0.2,0.1,3.6,2.4,5,5.7c0,0,4.7-8-1.2-15.8
		c-1.5-1.9-2.9-3.1-4.2-3.8c4.1,4.7,4.2,14.1,4.2,14.1s-4.3-2.8-7.1-3.2c0,0,3.5,5.8,4.3,9.5l-3.2,5c0,0-1.6-1.6-3.6-2.5
		C180.6,192.8,179.9,197.2,179.9,197.2z"/>
	<path class="st2" d="M149.5,192.1c0,0,1.2-3.9,4.5-5.3c-2.5,0.1-3.7,2-3.7,2s-0.3,0.6,1.3-4.3c1.6-4.9,11.6-11.3,11.6-11.3
		c-3.9-0.5-7.6,0.8-7.8,0.9c1.4-2.3,3.4-3.9,9-7.1c-4.5-0.6-10.4,4.5-11.7,6.5c-1.9,3-2.1,6.3-2.1,6.3s4.5-4.2,8.2-4.9
		c0,0-7,4.7-8.6,8.6C148.4,187.5,149.5,192.1,149.5,192.1z"/>
	<path class="st4" d="M200,201.8c0,0,0.8-0.1,1.8,0.1c3.1-5.4,6.8-9.7,9.1-12c-2.1,0.3-4.2,1.5-5,2.8
		C204.4,195.2,200.3,200,200,201.8z"/>
	<path class="st4" d="M188.1,196c0,0,1.2-1.2,2.8-1.7c0.4-4.2,1.8-11.9,7.4-17.7c-2.8,0.6-5.2,3.8-6.4,6
		C190.1,186.4,187.6,194.5,188.1,196z"/>
	<path class="st4" d="M169.4,191.5c0,0,1.3-1.6,3.6-2.1c-0.4-10.8,2.1-18,7.5-22.4c-2.7,0.2-4.8,2.5-6.2,4.9
		C171.9,176.2,169,186.8,169.4,191.5z"/>
	<path class="st4" d="M162.2,189c1.1,1.8,0.8,3.7,0.8,3.7s8.6-4.9,6.3-18.7c-0.5-3.4-1.7-5.3-3.2-6.3
		C169.7,175.2,165.5,183.9,162.2,189z"/>
</g>
</svg>
