<svg id="Capa_1" data-name="Capa 1" xmlns="http://www.w3.org/2000/svg" viewBox="0 0 836.65 862.6"><defs><style>.cls-1{fill:#2c2c2c;}</style></defs><title>treboles</title><path class="cls-1" d="M2256.9,776c-58-10.1-86.4,7.5-96.3,15.9,15.8-16.5,70.1-81.5,51.8-179.2-21.3-114-144.4-138-219.6-138s-198.2,24-219.6,138c-18.3,97.8,36,162.8,51.8,179.2-9.9-8.4-38.3-25.9-96.3-15.9-138.2,24-206.2,205.3-107.6,332,129.1,165.7,312.9,16.4,312.9,16.4s28.4,21.3,3.6,93.3c-32.9,95.2-71.1,119.6-71.1,119.6h252.4s-38.2-24.4-71.1-119.6c-24.9-72,3.6-93.3,3.6-93.3s183.8,149.3,312.9-16.4C2463.1,981.3,2395.1,800,2256.9,776Z" transform="translate(-1574.45 -474.7)"/></svg>