<svg id="Capa_1" data-name="Capa 1" xmlns="http://www.w3.org/2000/svg" viewBox="0 0 6940 620.98"><defs><style>.cls-1{fill:#0b090b;}</style></defs><title>backnav</title><path class="cls-1" d="M6940,0H0V412.37A27.18,27.18,0,0,1,4.61,409c2.26-1.33,7.08-4.17,12.67-4.67,9.08-.8,16.3,4.93,19.33,7.34C49.86,422.21,48.1,443.94,46,474.36c-.7,10-4.31,18.07-4,32.22.3,14,3.16,20,6.89,24,1.16,1.25,6.79,7.33,14.89,7.12,8.82-.24,14.58-7.78,15.77-9.34,9.84-12.87,5.22-32.11,1.78-46.44-2.43-10.14-4.85-14.68-9.55-34.22-2.1-8.72-3.56-15.85,0-22.89a22.51,22.51,0,0,1,10.44-10c1-.44,10.56-4.67,17.33-.23,2.76,1.82,2.21,3.2,8.23,12.23,5.27,7.91,7,8.74,8,9.11,4.36,1.55,10-.57,13.33-4,1.39-1.43,4.11-4.89,4.22-23.34.08-13.49-1.35-16.37,1.33-21.7.74-1.45,4.12-8.17,11.56-10.07,4-1,9.9-.86,13.63,2.66,3.16,3,1.65,5.47,5,12.15,2,3.92,4.63,9.14,9.48,10.67,5.15,1.62,10.4-1.67,14.81-4.45,8.13-5.1,7.68-8.88,14.52-12.14,1.79-.86,9.6-4.59,16.3-1.19,5.58,2.83,7.42,9.1,8.59,13.33,2.15,7.77.72,12.11-.59,25.19a210,210,0,0,0-.59,31.41c.78,13.48,2.56,18.09,6.22,20.44,2.69,1.73,6.78,2.48,9.78.89,4-2.13,5.2-8,5.63-10.07.84-4.11.13-6.82,1.77-7.71s3.84.69,4.15.89c4.22,2.81,3.86,10.14,3.56,15.7-1,17.47-1.43,26.21-2.08,30-.79,4.66-2.41,13.6-6.66,31.56-4.64,19.6-5.75,21.8-6.45,30-1.56,18.4,2.46,25.68,4.67,28.89a21.62,21.62,0,0,0,10.44,8.67c5.19,1.87,12,1.78,17.11-1.78,2.16-1.52,5.59-4.78,8-18,2-11,1.65-19.86.89-30.67-1.26-18-2.95-31.42-3.11-32.67-2.54-20-3.6-21.46-5.33-37.33-.79-7.19-1.83-18.44-2-32.44-.24-19.52,1.41-26.86,4.07-33.26,5-12,11.21-15.19,12.59-15.85,2-1,8.1-3.49,14.67-1.19,7.65,2.68,10.9,10.13,12.3,13.33,3.87,8.89.26,11.81,3.55,21.93,1.52,4.67,4.74,14.54,12.89,16.89,6.19,1.78,13-1.4,16.89-5.48,5.68-6,5.58-14.64,5.48-22.37-.13-11.23-3.27-14.06-.74-20.45,1.69-4.24,5.87-10,11.41-10.22,6.24-.22,11.11,6.77,13,11.41s1.17,11.18-.45,24c-1,7.87-1.88,12.23-1.48,19.55.46,8.38,2.08,10.94,3.56,12.45,3,3.13,8.28,5.12,12.59,3.55,3.32-1.21,4.89-4.08,8-9.77,3.55-6.52,2.7-8.05,5.78-12a23.77,23.77,0,0,1,8.89-7.12c6.23-2.81,8.9-.41,13.77-3,3.34-1.74,5.09-4.74,8.45-10.67,6.26-11,5-15.28,9.63-18.51,5.18-3.63,12-2,14.22-1.49,13.17,3.12,18.77,17.44,19.78,20,2.29,5.85,2.41,10.58,2.66,20A107.56,107.56,0,0,1,484,464.14c-2.1,11.59-4.33,12.3-6,23.56-2.05,13.82.39,19,1.11,20.44,1,1.88,4.43,8.72,11.33,9.78,6.55,1,11.66-3.89,12.45-4.67,6-5.95,5.63-15,5.33-21.78-.19-4.29-1.53-10.86-4.22-24-1.24-6.05-2.21-10.37,0-14.89.49-1,3.07-5.95,7.33-6.22,3.56-.22,6.31,3,7.78,4.67,4.45,5.16,2.92,8.85,7.55,16.22,2.12,3.37,3.81,6,6.67,6.45,3.66.6,7.4-2.56,9.33-5.34,3.34-4.77,1.82-9,1.56-20.66-.25-11.18-.38-16.8,2.22-23.12,1.11-2.69,4.08-11.42,12.89-14.66,8.45-3.11,16.62,2.77,21.85,14.9,4.35,10.08,5.65,18.43,7.11,29.33,2.39,17.69,3.58,26.54,4.15,35.26a354.55,354.55,0,0,1,.3,41.78c-1.05,19.78-1.57,29.67-4.15,39.7-1.54,6-3.95,13.57-3.55,24.3.41,11.27,3.57,15.91,5,17.78,1.29,1.63,6.06,7.7,13.93,8,8.43.31,21.57-6.27,22.52-7.42,2.61-3.16,4.7-7.66,5-17.48.43-12.4-2.36-21.23-4.44-29-3.39-12.71-4.7-25.88-7.11-38.82,0,0-2.78-14.93-7.41-40.88-4.31-24.21-5.3-30.51-5.33-40.3-.06-16.24,2.56-25.22,7.7-32.3,2.26-3.11,6.4-8.64,13.33-9.77a18.93,18.93,0,0,1,12.45,2.66c5.15,3.45,4.65,7.56,11.26,12.45,2.58,1.91,4.34,3.21,6.81,3.26,3.31.06,6.23-2.15,12.15-9.49,8.5-10.53,7.7-12.45,12.74-17.33A35.53,35.53,0,0,1,700.24,387c3.53-.83,13.4-3.16,21.93,2.81.52.37,7.57,5.46,9.33,14.37,1,5-.74,5.92-1.18,15.86-.4,8.91-.54,13.44,2.52,16.74a12.58,12.58,0,0,0,11.55,3.55c3.35-.82,3.69-2.89,10.22-6.52,3.26-1.8,4.92-2.7,6.82-2.66,5.31.11,9,5.86,9.63,7,2,3.22,2.74,7,2.07,16-.69,9.47-2,11.3-3.11,19.85-1.21,9.32-2.15,16.54.59,24.82,1.37,4.11,3.81,11.47,10.89,14.89,1,.46,7.69,3.57,13.78.44,5.76-3,7.39-9.65,8.22-13.33,1.87-8.19.17-14.33-7.11-37.56-3.92-12.5-5.59-17.65-6.66-26-1.91-14.85.67-19.81,3.33-22.44.35-.35,4.64-4.48,9.55-3.78,2.42.34,3,1.57,9.12,5.55,6.43,4.22,7.93,4.27,8.66,4.23,1.53-.09,3.65-.78,8-6,6.55-7.86,5.4-10.65,9.78-14.89.89-.86,7.27-6.85,16-6,7.54.73,12.25,6.13,13.56,7.78,5,6.33,4.57,13.28,4.88,22.88.81,24.2,5.23,21.71,5.78,47.56a169.93,169.93,0,0,1-1.11,27.33c-1.37,10.78-2.83,22.28-7.78,36.23-1.81,5.12-3.54,9-4,15.33-.36,5-.92,12.85,4.23,19.33.62.79,7,8.63,15.77,7.56,6.09-.75,9.94-5.42,11.11-6.89,7.5-9.37,5.4-22.84,2.45-40.22-2-11.78-3-17.68-5.11-24.89-2.27-7.74-4.93-14.52-2-21.56.43-1,2.34-5.62,5.33-5.78,3.19-.16,5.72,4.79,6.22,5.78,2.9,5.67.41,8.7,3.11,15.11,1,2.36,2.54,6,5.78,6.89s7.38-1.46,9.34-4.22c3.4-4.79.73-10.8-2.45-22.22-3.52-12.65-6.51-23.7-5.7-36.45.39-6.17,1.76-14.19,7.11-21,1.86-2.38,4.94-6.2,9.78-6.82a14.6,14.6,0,0,1,8.29,1.78c4,2.09,3.88,4.25,7.41,5.63.36.14,4.48,1.68,8.3,0,2.92-1.29,3.89-3.69,7.11-10.07,4.14-8.21,6.25-12.36,8.29-14.52,1.82-1.93,6.34-6.7,13-6.82A15.1,15.1,0,0,1,993,395.18c8.64,7.83,3.08,25.06,2.37,27.26-1.3,4-1.82,3.46-3,7.4-1.06,3.67-3.81,13.07.3,22.23.62,1.39,5.74,12.79,14.22,12.74,6.91-.05,12.3-7.65,14.22-13.34,1.68-4.94.26-12.54-2.66-27.55-1.64-8.41-1.77-7.54-2.08-10.37-.56-5.17-1.82-16.86,4.74-27.85,1.77-3,6-9.68,15.6-10.34,6.55-.44,13.57,1.89,14.92,8.85,2,10.09,2.67,11.56,3.71,12.89.42.55,4.07,5.1,9,4.74,4.56-.33,7.34-4.58,8.89-7l.1-.15c8-12.61,21.58-20.59,36.51-20.59h1.47c14.93,0,28.49,8,36.5,20.59a1.3,1.3,0,0,1,.1.15c1.56,2.38,4.34,6.63,8.89,7,5,.36,8.61-4.19,9-4.74,1-1.33,1.74-2.8,3.7-12.89,1.36-7,8.37-9.29,14.93-8.85,9.64.66,13.82,7.38,15.59,10.34,6.56,11,5.3,22.68,4.74,27.85-.3,2.83-.44,2-2.07,10.37-2.92,15-4.35,22.61-2.67,27.55,1.93,5.69,7.32,13.29,14.22,13.34,8.49.05,13.6-11.35,14.23-12.74,4.1-9.16,1.36-18.56.29-22.23-1.15-3.94-1.67-3.4-3-7.4-.71-2.2-6.28-19.43,2.37-27.26a15.07,15.07,0,0,1,10.07-3.56c6.7.12,11.22,4.89,13,6.82,2,2.16,4.15,6.31,8.3,14.52,3.22,6.38,4.18,8.78,7.11,10.07,3.81,1.68,7.94.14,8.29,0,3.54-1.38,3.44-3.54,7.41-5.63a14.62,14.62,0,0,1,8.3-1.78c4.84.62,7.92,4.44,9.78,6.82,5.34,6.84,6.72,14.86,7.11,21,.8,12.75-2.19,23.8-5.71,36.45-3.18,11.42-5.85,17.43-2.44,22.22,2,2.76,6,5.15,9.33,4.22s4.79-4.53,5.78-6.89c2.71-6.41.22-9.44,3.11-15.11.51-1,3-5.94,6.22-5.78,3,.16,4.91,4.75,5.34,5.78,2.93,7,.26,13.82-2,21.56-2.12,7.21-3.12,13.11-5.11,24.89-3,17.38-5,30.85,2.44,40.22,1.17,1.47,5,6.14,11.11,6.89,8.73,1.07,15.15-6.77,15.78-7.56,5.14-6.48,4.58-14.31,4.22-19.33-.45-6.33-2.18-10.21-4-15.33-4.94-14-6.41-25.45-7.78-36.23a172.29,172.29,0,0,1-1.11-27.33c.56-25.85,5-23.36,5.78-47.56.32-9.6-.16-16.55,4.89-22.88,1.31-1.65,6-7.05,13.55-7.78,8.73-.85,15.12,5.14,16,6,4.38,4.24,3.23,7,9.78,14.89,4.35,5.22,6.47,5.91,8,6,.74,0,2.23,0,8.67-4.23,6.09-4,6.7-5.21,9.11-5.55,4.92-.7,9.2,3.43,9.56,3.78,2.66,2.63,5.23,7.59,3.33,22.44-1.07,8.35-2.75,13.5-6.67,26-7.28,23.23-9,29.37-7.11,37.56.84,3.68,2.47,10.37,8.22,13.33,6.1,3.13,12.82,0,13.78-.44,7.08-3.42,9.52-10.78,10.89-14.89,2.75-8.28,1.81-15.5.59-24.82-1.11-8.55-2.41-10.38-3.11-19.85-.66-9,.13-12.78,2.08-16,.66-1.1,4.32-6.85,9.62-7,1.9,0,3.57.86,6.82,2.66,6.54,3.63,6.87,5.7,10.22,6.52a12.6,12.6,0,0,0,11.56-3.55c3-3.3,2.92-7.83,2.52-16.74-.45-9.94-2.18-10.84-1.19-15.86,1.77-8.91,8.82-14,9.33-14.37,8.54-6,18.41-3.64,21.93-2.81a35.53,35.53,0,0,1,16.59,9.48c5,4.88,4.24,6.8,12.74,17.33,5.93,7.34,8.85,9.55,12.15,9.49,2.47-.05,4.23-1.35,6.82-3.26,6.6-4.89,6.1-9,11.26-12.45A18.89,18.89,0,0,1,1593,405c6.93,1.13,11.07,6.66,13.33,9.77,5.15,7.08,7.76,16.06,7.71,32.3,0,9.79-1,16.09-5.34,40.3-4.62,25.95-7.4,40.88-7.4,40.88-2.41,12.94-3.73,26.11-7.11,38.82-2.09,7.81-4.87,16.64-4.45,29,.34,9.82,2.43,14.32,5,17.48,1,1.15,14.08,7.73,22.52,7.42,7.86-.3,12.64-6.37,13.92-8,1.47-1.87,4.62-6.51,5-17.78.4-10.73-2-18.31-3.56-24.3-2.57-10-3.1-19.92-4.14-39.7a354,354,0,0,1,.29-41.78c.58-8.72,1.77-17.57,4.15-35.26,1.47-10.9,2.76-19.25,7.11-29.33,5.23-12.13,13.41-18,21.85-14.9,8.81,3.24,11.78,12,12.89,14.66,2.6,6.32,2.47,11.94,2.22,23.12-.26,11.64-1.78,15.89,1.56,20.66,1.94,2.78,5.67,5.94,9.33,5.34,2.87-.48,4.55-3.08,6.67-6.45,4.63-7.37,3.1-11.06,7.56-16.22,1.47-1.71,4.21-4.89,7.77-4.67,4.26.27,6.85,5.23,7.34,6.22,2.21,4.52,1.24,8.84,0,14.89-2.69,13.14-4,19.71-4.23,24-.29,6.77-.69,15.83,5.34,21.78.79.78,5.9,5.67,12.44,4.67,6.91-1.06,10.38-7.9,11.34-9.78.72-1.42,3.15-6.62,1.11-20.44-1.67-11.26-3.9-12-6-23.56a107.25,107.25,0,0,1-1.56-21.56c.25-9.42.38-14.15,2.67-20,1-2.56,6.61-16.88,19.78-20,2.18-.51,9-2.14,14.22,1.49,4.62,3.23,3.36,7.47,9.63,18.51,3.36,5.93,5.1,8.93,8.44,10.67,4.87,2.55,7.54.15,13.78,3a24,24,0,0,1,8.89,7.12c3.08,3.95,2.22,5.48,5.78,12,3.11,5.69,4.67,8.56,8,9.77,4.31,1.57,9.53-.42,12.59-3.55,1.48-1.51,3.09-4.07,3.55-12.45.41-7.32-.48-11.68-1.48-19.55-1.62-12.82-2.39-19.32-.44-24s6.79-11.63,13-11.41c5.53.2,9.72,6,11.4,10.22,2.54,6.39-.6,9.22-.74,20.45-.09,7.73-.2,16.37,5.48,22.37,3.87,4.08,10.71,7.26,16.89,5.48,8.16-2.35,11.37-12.22,12.89-16.89,3.29-10.12-.32-13,3.56-21.93,1.39-3.2,4.65-10.65,12.29-13.33,6.58-2.3,12.67.23,14.67,1.19,1.39.66,7.61,3.85,12.59,15.85,2.66,6.4,4.32,13.74,4.08,33.26-.18,14-1.22,25.25-2,32.44-1.73,15.87-2.79,17.29-5.34,37.33-.16,1.25-1.84,14.7-3.11,32.67-.76,10.81-1.12,19.66.89,30.67,2.41,13.22,5.85,16.48,8,18,5.07,3.56,11.93,3.65,17.11,1.78A21.66,21.66,0,0,0,1973.3,595c2.2-3.21,6.23-10.49,4.66-28.89-.69-8.2-1.8-10.4-6.44-30-4.25-18-5.87-26.9-6.67-31.56-.65-3.79-1.12-12.53-2.07-30-.3-5.56-.67-12.89,3.55-15.7.31-.2,2.6-1.73,4.15-.89s.94,3.6,1.78,7.71c.42,2.07,1.63,7.94,5.63,10.07,3,1.59,7.08.84,9.78-.89,3.65-2.35,5.44-7,6.22-20.44a213.08,213.08,0,0,0-.59-31.41c-1.32-13.08-2.75-17.42-.6-25.19,1.18-4.23,3-10.5,8.6-13.33,6.69-3.4,14.5.33,16.29,1.19,6.85,3.26,6.39,7,14.52,12.14,4.42,2.78,9.67,6.07,14.82,4.45,4.85-1.53,7.49-6.75,9.48-10.67,3.38-6.68,1.87-9.16,5-12.15,3.73-3.52,9.64-3.69,13.63-2.66,7.44,1.9,10.83,8.62,11.56,10.07,2.69,5.33,1.25,8.21,1.33,21.7.11,18.45,2.84,21.91,4.23,23.34,3.32,3.43,9,5.55,13.33,4,1-.37,2.72-1.2,8-9.11,6-9,5.46-10.41,8.22-12.23,6.78-4.44,16.38-.21,17.33.23a22.47,22.47,0,0,1,10.45,10c3.55,7,2.1,14.17,0,22.89-4.71,19.54-7.12,24.08-9.56,34.22-3.44,14.33-8.05,33.57,1.78,46.44,1.19,1.56,7,9.1,15.78,9.34,8.1.21,13.73-5.87,14.89-7.12,3.73-4,6.58-10,6.89-24,.31-14.15-3.3-22.26-4-32.22-2.15-30.42-3.92-52.15,9.33-62.66,3-2.41,10.25-8.14,19.33-7.34,5.6.5,10.41,3.34,12.67,4.67,6.72,4,6.32,6.45,11.56,8.89.27.12,4.13,2.58,8,2.59s7.79-2.43,8.12-2.59c5.24-2.44,4.84-4.92,11.56-8.89,2.26-1.33,7.07-4.17,12.67-4.67,9.08-.8,16.29,4.93,19.33,7.34,13.25,10.51,11.48,32.24,9.33,62.66-.7,10-4.31,18.07-4,32.22.31,14,3.16,20,6.89,24,1.16,1.25,6.79,7.33,14.89,7.12,8.83-.24,14.59-7.78,15.78-9.34,9.83-12.87,5.21-32.11,1.78-46.44-2.44-10.14-4.85-14.68-9.56-34.22-2.1-8.72-3.56-15.85,0-22.89a22.51,22.51,0,0,1,10.44-10c1-.44,10.56-4.67,17.34-.23,2.76,1.82,2.2,3.2,8.22,12.23,5.27,7.91,7,8.74,8,9.11,4.36,1.55,10-.57,13.33-4,1.39-1.43,4.12-4.89,4.23-23.34.07-13.49-1.36-16.37,1.33-21.7.73-1.45,4.11-8.17,11.55-10.07,4-1,9.91-.86,13.63,2.66,3.17,3,1.65,5.47,5,12.15,2,3.92,4.63,9.14,9.48,10.67,5.15,1.62,10.4-1.67,14.82-4.45,8.13-5.1,7.67-8.88,14.52-12.14,1.79-.86,9.6-4.59,16.29-1.19,5.58,2.83,7.42,9.1,8.59,13.33,2.16,7.77.73,12.11-.59,25.19a213.08,213.08,0,0,0-.59,31.41c.78,13.48,2.57,18.09,6.22,20.44,2.7,1.73,6.79,2.48,9.78.89,4-2.13,5.2-8,5.63-10.07.84-4.11.14-6.82,1.78-7.71s3.84.69,4.15.89c4.22,2.81,3.85,10.14,3.55,15.7-.95,17.47-1.42,26.21-2.07,30-.8,4.66-2.42,13.6-6.67,31.56-4.64,19.6-5.75,21.8-6.44,30-1.57,18.4,2.46,25.68,4.66,28.89a21.66,21.66,0,0,0,10.45,8.67c5.18,1.87,12,1.78,17.11-1.78,2.15-1.52,5.59-4.78,8-18,2-11,1.65-19.86.89-30.67-1.27-18-3-31.42-3.11-32.67-2.55-20-3.61-21.46-5.34-37.33-.78-7.19-1.82-18.44-2-32.44-.24-19.52,1.42-26.86,4.08-33.26,5-12,11.2-15.19,12.59-15.85,2-1,8.09-3.49,14.67-1.19,7.64,2.68,10.89,10.13,12.29,13.33,3.88,8.89.26,11.81,3.56,21.93,1.52,4.67,4.73,14.54,12.89,16.89,6.18,1.78,13-1.4,16.89-5.48,5.67-6,5.57-14.64,5.48-22.37-.14-11.23-3.28-14.06-.74-20.45,1.68-4.24,5.86-10,11.4-10.22,6.25-.22,11.11,6.77,13,11.41s1.18,11.18-.44,24c-1,7.87-1.89,12.23-1.49,19.55.47,8.38,2.08,10.94,3.56,12.45,3.06,3.13,8.28,5.12,12.59,3.55,3.33-1.21,4.89-4.08,8-9.77,3.56-6.52,2.7-8.05,5.78-12a23.86,23.86,0,0,1,8.89-7.12c6.24-2.81,8.91-.41,13.78-3,3.34-1.74,5.08-4.74,8.44-10.67,6.26-11,5-15.28,9.63-18.51,5.18-3.63,12-2,14.22-1.49,13.17,3.12,18.78,17.44,19.78,20,2.29,5.85,2.42,10.58,2.67,20a107.25,107.25,0,0,1-1.56,21.56c-2.1,11.59-4.33,12.3-6,23.56-2,13.82.39,19,1.11,20.44,1,1.88,4.43,8.72,11.34,9.78,6.54,1,11.65-3.89,12.44-4.67,6-5.95,5.63-15,5.33-21.78-.18-4.29-1.53-10.86-4.22-24-1.24-6.05-2.21-10.37,0-14.89.49-1,3.08-5.95,7.34-6.22,3.56-.22,6.3,3,7.77,4.67,4.45,5.16,2.93,8.85,7.56,16.22,2.12,3.37,3.8,6,6.67,6.45,3.66.6,7.39-2.56,9.33-5.34,3.33-4.77,1.82-9,1.55-20.66-.25-11.18-.37-16.8,2.23-23.12,1.11-2.69,4.07-11.42,12.89-14.66,8.44-3.11,16.61,2.77,21.85,14.9,4.35,10.08,5.64,18.43,7.11,29.33,2.38,17.69,3.57,26.54,4.15,35.26a354,354,0,0,1,.29,41.78c-1,19.78-1.57,29.67-4.15,39.7-1.53,6-3.95,13.57-3.55,24.3.42,11.27,3.57,15.91,5,17.78,1.28,1.63,6,7.7,13.92,8,8.44.31,21.57-6.27,22.52-7.42,2.61-3.16,4.7-7.66,5-17.48.42-12.4-2.36-21.23-4.45-29-3.39-12.71-4.7-25.88-7.11-38.82,0,0-2.78-14.93-7.41-40.88-4.31-24.21-5.29-30.51-5.33-40.3-.05-16.24,2.56-25.22,7.71-32.3,2.25-3.11,6.4-8.64,13.33-9.77a18.89,18.89,0,0,1,12.44,2.66c5.16,3.45,4.66,7.56,11.26,12.45,2.59,1.91,4.34,3.21,6.82,3.26,3.3.06,6.22-2.15,12.15-9.49,8.5-10.53,7.7-12.45,12.74-17.33a35.53,35.53,0,0,1,16.59-9.48c3.52-.83,13.39-3.16,21.92,2.81.52.37,7.57,5.46,9.34,14.37,1,5-.74,5.92-1.19,15.86-.4,8.91-.53,13.44,2.52,16.74a12.6,12.6,0,0,0,11.56,3.55c3.35-.82,3.68-2.89,10.22-6.52,3.25-1.8,4.91-2.7,6.81-2.66,5.31.11,9,5.86,9.63,7,2,3.22,2.74,7,2.08,16-.7,9.47-2,11.3-3.11,19.85-1.22,9.32-2.16,16.54.59,24.82,1.36,4.11,3.81,11.47,10.89,14.89,1,.46,7.68,3.57,13.78.44,5.75-3,7.38-9.65,8.22-13.33,1.86-8.19.17-14.33-7.11-37.56-3.92-12.5-5.6-17.65-6.67-26-1.91-14.85.67-19.81,3.33-22.44.36-.35,4.64-4.48,9.56-3.78,2.41.34,3,1.57,9.11,5.55,6.44,4.22,7.93,4.27,8.67,4.23,1.53-.09,3.64-.78,8-6,6.55-7.86,5.39-10.65,9.77-14.89.89-.86,7.28-6.85,16-6,7.54.73,12.25,6.13,13.56,7.78,5.05,6.33,4.57,13.28,4.89,22.88.8,24.2,5.22,21.71,5.78,47.56a172.29,172.29,0,0,1-1.11,27.33c-1.37,10.78-2.84,22.28-7.78,36.23-1.82,5.12-3.55,9-4,15.33-.36,5-.92,12.85,4.22,19.33.62.79,7,8.63,15.78,7.56,6.09-.75,9.93-5.42,11.11-6.89,7.49-9.37,5.39-22.84,2.44-40.22-2-11.78-3-17.68-5.11-24.89-2.26-7.74-4.93-14.52-2-21.56.43-1,2.34-5.62,5.34-5.78,3.18-.16,5.71,4.79,6.22,5.78,2.89,5.67.4,8.7,3.11,15.11,1,2.36,2.53,6,5.78,6.89s7.37-1.46,9.33-4.22c3.4-4.79.73-10.8-2.44-22.22-3.53-12.65-6.51-23.7-5.71-36.45.39-6.17,1.76-14.19,7.11-21,1.86-2.38,4.94-6.2,9.78-6.82a14.64,14.64,0,0,1,8.3,1.78c4,2.09,3.87,4.25,7.4,5.63.36.14,4.49,1.68,8.3,0,2.92-1.29,3.89-3.69,7.11-10.07,4.14-8.21,6.26-12.36,8.3-14.52,1.82-1.93,6.33-6.7,13-6.82a15.07,15.07,0,0,1,10.07,3.56c8.65,7.83,3.08,25.06,2.37,27.26-1.29,4-1.81,3.46-3,7.4-1.07,3.67-3.81,13.07.29,22.23.63,1.39,5.74,12.79,14.23,12.74,6.9-.05,12.29-7.65,14.22-13.34,1.67-4.94.25-12.54-2.67-27.55-1.63-8.41-1.77-7.54-2.07-10.37-.56-5.17-1.83-16.86,4.74-27.85,1.77-3,6-9.68,15.59-10.34,6.56-.44,13.57,1.89,14.93,8.85,2,10.09,2.66,11.56,3.7,12.89.43.55,4.08,5.1,9,4.74,4.55-.33,7.33-4.58,8.89-7a1.3,1.3,0,0,1,.1-.15c8-12.61,21.57-20.59,36.5-20.59h217.75c14.93,0,28.5,8,36.51,20.59l.1.15c1.55,2.38,4.33,6.63,8.89,7,5,.36,8.61-4.19,9-4.74,1-1.33,1.75-2.8,3.71-12.89,1.35-7,8.37-9.29,14.92-8.85,9.64.66,13.83,7.38,15.6,10.34,6.56,11,5.3,22.68,4.74,27.85-.31,2.83-.44,2-2.08,10.37-2.91,15-4.34,22.61-2.66,27.55,1.92,5.69,7.31,13.29,14.22,13.34,8.48.05,13.6-11.35,14.22-12.74,4.11-9.16,1.36-18.56.3-22.23-1.15-3.94-1.67-3.4-3-7.4-.7-2.2-6.27-19.43,2.37-27.26a15.1,15.1,0,0,1,10.08-3.56c6.7.12,11.22,4.89,13,6.82,2,2.16,4.15,6.31,8.29,14.52,3.22,6.38,4.19,8.78,7.11,10.07,3.82,1.68,7.94.14,8.3,0,3.53-1.38,3.44-3.54,7.41-5.63a14.6,14.6,0,0,1,8.29-1.78c4.84.62,7.92,4.44,9.78,6.82,5.35,6.84,6.72,14.86,7.11,21,.81,12.75-2.18,23.8-5.7,36.45-3.18,11.42-5.85,17.43-2.45,22.22,2,2.76,6,5.15,9.34,4.22s4.78-4.53,5.78-6.89c2.7-6.41.22-9.44,3.11-15.11.5-1,3-5.94,6.22-5.78,3,.16,4.9,4.75,5.33,5.78,2.93,7,.27,13.82-2,21.56-2.11,7.21-3.11,13.11-5.11,24.89-2.95,17.38-5,30.85,2.45,40.22,1.17,1.47,5,6.14,11.11,6.89,8.73,1.07,15.15-6.77,15.77-7.56,5.15-6.48,4.59-14.31,4.23-19.33-.46-6.33-2.19-10.21-4-15.33-5-14-6.41-25.45-7.78-36.23a169.93,169.93,0,0,1-1.11-27.33c.55-25.85,5-23.36,5.78-47.56.31-9.6-.16-16.55,4.88-22.88,1.31-1.65,6-7.05,13.56-7.78,8.73-.85,15.11,5.14,16,6,4.38,4.24,3.23,7,9.78,14.89,4.35,5.22,6.47,5.91,8,6,.73,0,2.23,0,8.66-4.23,6.1-4,6.7-5.21,9.12-5.55,4.91-.7,9.2,3.43,9.55,3.78,2.66,2.63,5.24,7.59,3.33,22.44-1.07,8.35-2.74,13.5-6.66,26-7.28,23.23-9,29.37-7.11,37.56.83,3.68,2.46,10.37,8.22,13.33,6.09,3.13,12.81,0,13.78-.44,7.08-3.42,9.52-10.78,10.89-14.89,2.74-8.28,1.8-15.5.59-24.82-1.12-8.55-2.42-10.38-3.11-19.85-.67-9,.12-12.78,2.07-16,.67-1.1,4.32-6.85,9.63-7,1.9,0,3.56.86,6.82,2.66,6.53,3.63,6.87,5.7,10.22,6.52a12.58,12.58,0,0,0,11.55-3.55c3.06-3.3,2.92-7.83,2.52-16.74-.44-9.94-2.18-10.84-1.18-15.86,1.76-8.91,8.81-14,9.33-14.37,8.53-6,18.4-3.64,21.93-2.81a35.53,35.53,0,0,1,16.59,9.48c5,4.88,4.24,6.8,12.74,17.33,5.92,7.34,8.84,9.55,12.15,9.49,2.47-.05,4.23-1.35,6.81-3.26,6.61-4.89,6.11-9,11.26-12.45a18.93,18.93,0,0,1,12.45-2.66c6.93,1.13,11.07,6.66,13.33,9.77,5.14,7.08,7.76,16.06,7.7,32.3,0,9.79-1,16.09-5.33,40.3-4.63,25.95-7.41,40.88-7.41,40.88-2.41,12.94-3.72,26.11-7.11,38.82-2.08,7.81-4.87,16.64-4.44,29,.33,9.82,2.42,14.32,5,17.48,1,1.15,14.09,7.73,22.52,7.42,7.87-.3,12.64-6.37,13.93-8,1.46-1.87,4.62-6.51,5-17.78.4-10.73-2-18.31-3.55-24.3-2.58-10-3.1-19.92-4.15-39.7a354.55,354.55,0,0,1,.3-41.78c.57-8.72,1.76-17.57,4.15-35.26,1.46-10.9,2.76-19.25,7.11-29.33,5.23-12.13,13.4-18,21.85-14.9,8.81,3.24,11.78,12,12.89,14.66,2.6,6.32,2.47,11.94,2.22,23.12-.26,11.64-1.78,15.89,1.56,20.66,1.93,2.78,5.67,5.94,9.33,5.34,2.86-.48,4.55-3.08,6.67-6.45,4.63-7.37,3.1-11.06,7.55-16.22,1.47-1.71,4.22-4.89,7.78-4.67,4.26.27,6.84,5.23,7.33,6.22,2.21,4.52,1.24,8.84,0,14.89-2.69,13.14-4,19.71-4.22,24-.3,6.77-.69,15.83,5.33,21.78.8.78,5.9,5.67,12.45,4.67,6.9-1.06,10.37-7.9,11.33-9.78.72-1.42,3.16-6.62,1.11-20.44-1.67-11.26-3.9-12-6-23.56a107.56,107.56,0,0,1-1.55-21.56c.25-9.42.37-14.15,2.66-20,1-2.56,6.61-16.88,19.78-20,2.19-.51,9-2.14,14.22,1.49,4.62,3.23,3.37,7.47,9.63,18.51,3.36,5.93,5.11,8.93,8.45,10.67,4.87,2.55,7.54.15,13.77,3a23.77,23.77,0,0,1,8.89,7.12c3.08,3.95,2.23,5.48,5.78,12,3.11,5.69,4.68,8.56,8,9.77,4.31,1.57,9.54-.42,12.59-3.55,1.48-1.51,3.1-4.07,3.56-12.45.4-7.32-.49-11.68-1.48-19.55-1.62-12.82-2.4-19.32-.45-24s6.8-11.63,13-11.41c5.54.2,9.72,6,11.41,10.22,2.53,6.39-.61,9.22-.74,20.45-.1,7.73-.2,16.37,5.48,22.37,3.86,4.08,10.7,7.26,16.89,5.48,8.15-2.35,11.37-12.22,12.89-16.89,3.29-10.12-.32-13,3.55-21.93,1.4-3.2,4.65-10.65,12.3-13.33,6.57-2.3,12.67.23,14.67,1.19,1.38.66,7.61,3.85,12.59,15.85,2.66,6.4,4.31,13.74,4.07,33.26-.17,14-1.21,25.25-2,32.44-1.73,15.87-2.79,17.29-5.33,37.33-.16,1.25-1.85,14.7-3.11,32.67-.76,10.81-1.12,19.66.89,30.67,2.41,13.22,5.84,16.48,8,18,5.07,3.56,11.92,3.65,17.11,1.78a21.62,21.62,0,0,0,10.44-8.67c2.21-3.21,6.23-10.49,4.67-28.89-.7-8.2-1.81-10.4-6.45-30-4.25-18-5.87-26.9-6.66-31.56-.65-3.79-1.13-12.53-2.08-30-.3-5.56-.66-12.89,3.56-15.7.31-.2,2.6-1.73,4.15-.89s.93,3.6,1.77,7.71c.43,2.07,1.63,7.94,5.63,10.07,3,1.59,7.09.84,9.78-.89,3.66-2.35,5.44-7,6.22-20.44a210,210,0,0,0-.59-31.41c-1.31-13.08-2.74-17.42-.59-25.19,1.17-4.23,3-10.5,8.59-13.33,6.7-3.4,14.51.33,16.3,1.19,6.84,3.26,6.39,7,14.52,12.14,4.41,2.78,9.66,6.07,14.81,4.45,4.85-1.53,7.5-6.75,9.48-10.67,3.39-6.68,1.88-9.16,5-12.15,3.73-3.52,9.64-3.69,13.63-2.66,7.44,1.9,10.82,8.62,11.56,10.07,2.68,5.33,1.25,8.21,1.33,21.7.11,18.45,2.83,21.91,4.22,23.34,3.33,3.43,9,5.55,13.33,4,1-.37,2.73-1.2,8-9.11,6-9,5.47-10.41,8.23-12.23,6.77-4.44,16.37-.21,17.33.23a22.51,22.51,0,0,1,10.44,10c3.56,7,2.1,14.17,0,22.89-4.7,19.54-7.12,24.08-9.55,34.22-3.44,14.33-8.06,33.57,1.78,46.44,1.19,1.56,6.95,9.1,15.77,9.34,8.1.21,13.73-5.87,14.89-7.12,3.73-4,6.59-10,6.89-24,.31-14.15-3.3-22.26-4-32.22-2.15-30.42-3.91-52.15,9.34-62.66,3-2.41,10.25-8.14,19.33-7.34,5.59.5,10.41,3.34,12.67,4.67,6.72,4,6.32,6.45,11.55,8.89.33.15,3.89,3.11,7.7,3.11s8.11-2.95,8.45-3.11c5.23-2.44,4.83-4.92,11.55-8.89,2.26-1.33,7.08-4.17,12.67-4.67,9.08-.8,16.3,4.93,19.33,7.34,13.25,10.51,11.48,32.24,9.34,62.66-.7,10-4.31,18.07-4,32.22.3,14,3.16,20,6.89,24,1.15,1.25,6.79,7.33,14.89,7.12,8.82-.24,14.58-7.78,15.77-9.34,9.84-12.87,5.22-32.11,1.78-46.44-2.43-10.14-4.85-14.68-9.55-34.22-2.1-8.72-3.56-15.85,0-22.89a22.51,22.51,0,0,1,10.44-10c1-.44,10.56-4.67,17.33-.23,2.76,1.82,2.21,3.2,8.23,12.23,5.27,7.91,7,8.74,8,9.11,4.36,1.55,10-.57,13.33-4,1.39-1.43,4.11-4.89,4.22-23.34.08-13.49-1.35-16.37,1.33-21.7.74-1.45,4.12-8.17,11.56-10.07,4-1,9.9-.86,13.63,2.66,3.16,3,1.65,5.47,5,12.15,2,3.92,4.63,9.14,9.48,10.67,5.15,1.62,10.4-1.67,14.81-4.45,8.13-5.1,7.68-8.88,14.52-12.14,1.79-.86,9.6-4.59,16.3-1.19,5.58,2.83,7.42,9.1,8.59,13.33,2.15,7.77.72,12.11-.59,25.19a210,210,0,0,0-.59,31.41c.78,13.48,2.56,18.09,6.22,20.44,2.69,1.73,6.78,2.48,9.78.89,4-2.13,5.2-8,5.62-10.07.85-4.11.14-6.82,1.78-7.71s3.84.69,4.15.89c4.22,2.81,3.86,10.14,3.56,15.7-.95,17.47-1.43,26.21-2.08,30-.79,4.66-2.42,13.6-6.66,31.56-4.64,19.6-5.75,21.8-6.45,30-1.56,18.4,2.46,25.68,4.67,28.89a21.62,21.62,0,0,0,10.44,8.67c5.19,1.87,12,1.78,17.11-1.78,2.16-1.52,5.59-4.78,8-18,2-11,1.65-19.86.89-30.67-1.26-18-2.95-31.42-3.11-32.67-2.54-20-3.6-21.46-5.33-37.33-.79-7.19-1.83-18.44-2-32.44-.25-19.52,1.41-26.86,4.07-33.26,5-12,11.21-15.19,12.59-15.85,2-1,8.1-3.49,14.67-1.19,7.65,2.68,10.9,10.13,12.3,13.33,3.87,8.89.26,11.81,3.55,21.93,1.52,4.67,4.74,14.54,12.89,16.89,6.19,1.78,13-1.4,16.89-5.48,5.68-6,5.58-14.64,5.48-22.37-.13-11.23-3.27-14.06-.74-20.45,1.69-4.24,5.87-10,11.41-10.22,6.24-.22,11.1,6.77,13,11.41s1.17,11.18-.45,24c-1,7.87-1.88,12.23-1.48,19.55.46,8.38,2.08,10.94,3.56,12.45,3,3.13,8.28,5.12,12.59,3.55,3.32-1.21,4.89-4.08,8-9.77,3.55-6.52,2.7-8.05,5.78-12a23.8,23.8,0,0,1,8.88-7.12c6.24-2.81,8.91-.41,13.78-3,3.34-1.74,5.09-4.74,8.45-10.67,6.26-11,5-15.28,9.63-18.51,5.18-3.63,12-2,14.22-1.49,13.17,3.12,18.77,17.44,19.78,20,2.29,5.85,2.41,10.58,2.66,20a107.56,107.56,0,0,1-1.55,21.56c-2.1,11.59-4.33,12.3-6,23.56-2.05,13.82.39,19,1.11,20.44,1,1.88,4.43,8.72,11.33,9.78,6.55,1,11.65-3.89,12.45-4.67,6-5.95,5.63-15,5.33-21.78-.19-4.29-1.53-10.86-4.22-24-1.24-6.05-2.21-10.37,0-14.89.49-1,3.07-5.95,7.33-6.22,3.56-.22,6.31,3,7.78,4.67,4.45,5.16,2.92,8.85,7.55,16.22,2.12,3.37,3.81,6,6.67,6.45,3.66.6,7.4-2.56,9.33-5.34,3.34-4.77,1.82-9,1.56-20.66-.25-11.18-.38-16.8,2.22-23.12,1.11-2.69,4.08-11.42,12.89-14.66,8.45-3.11,16.62,2.77,21.85,14.9,4.35,10.08,5.65,18.43,7.11,29.33,2.39,17.69,3.58,26.54,4.15,35.26a354.55,354.55,0,0,1,.3,41.78c-1.05,19.78-1.57,29.67-4.15,39.7-1.54,6-3.95,13.57-3.56,24.3.42,11.27,3.58,15.91,5,17.78,1.29,1.63,6.06,7.7,13.93,8,8.43.31,21.57-6.27,22.52-7.42,2.61-3.16,4.7-7.66,5-17.48.43-12.4-2.36-21.23-4.44-29-3.39-12.71-4.7-25.88-7.11-38.82,0,0-2.78-14.93-7.41-40.88-4.31-24.21-5.3-30.51-5.33-40.3-.06-16.24,2.56-25.22,7.7-32.3,2.26-3.11,6.4-8.64,13.33-9.77a18.93,18.93,0,0,1,12.45,2.66c5.15,3.45,4.65,7.56,11.26,12.45,2.58,1.91,4.34,3.21,6.81,3.26,3.31.06,6.23-2.15,12.15-9.49,8.5-10.53,7.7-12.45,12.74-17.33a35.53,35.53,0,0,1,16.59-9.48c3.53-.83,13.4-3.16,21.93,2.81.52.37,7.57,5.46,9.33,14.37,1,5-.74,5.92-1.18,15.86-.4,8.91-.54,13.44,2.52,16.74a12.58,12.58,0,0,0,11.55,3.55c3.35-.82,3.69-2.89,10.22-6.52,3.26-1.8,4.92-2.7,6.82-2.66,5.31.11,9,5.86,9.63,7,1.95,3.22,2.74,7,2.07,16-.69,9.47-2,11.3-3.11,19.85-1.21,9.32-2.15,16.54.59,24.82,1.37,4.11,3.81,11.47,10.89,14.89,1,.46,7.69,3.57,13.78.44,5.76-3,7.39-9.65,8.22-13.33,1.87-8.19.17-14.33-7.11-37.56-3.92-12.5-5.59-17.65-6.66-26-1.91-14.85.67-19.81,3.33-22.44.35-.35,4.64-4.48,9.55-3.78,2.42.34,3,1.57,9.12,5.55,6.43,4.22,7.93,4.27,8.66,4.23,1.53-.09,3.65-.78,8-6,6.55-7.86,5.4-10.65,9.78-14.89.89-.86,7.27-6.85,16-6,7.54.73,12.25,6.13,13.56,7.78,5,6.33,4.57,13.28,4.88,22.88.81,24.2,5.23,21.71,5.78,47.56a171.1,171.1,0,0,1-1.11,27.33c-1.37,10.78-2.83,22.28-7.78,36.23-1.81,5.12-3.54,9-4,15.33-.36,5-.92,12.85,4.23,19.33.62.79,7,8.63,15.77,7.56,6.09-.75,9.94-5.42,11.11-6.89,7.5-9.37,5.4-22.84,2.45-40.22-2-11.78-3-17.68-5.11-24.89-2.27-7.74-4.93-14.52-2-21.56.43-1,2.34-5.62,5.33-5.78,3.19-.16,5.72,4.79,6.22,5.78,2.89,5.67.41,8.7,3.11,15.11,1,2.36,2.54,6,5.78,6.89s7.38-1.46,9.34-4.22c3.4-4.79.73-10.8-2.45-22.22-3.52-12.65-6.51-23.7-5.7-36.45.39-6.17,1.76-14.19,7.11-21,1.86-2.38,4.94-6.2,9.78-6.82a14.6,14.6,0,0,1,8.29,1.78c4,2.09,3.87,4.25,7.41,5.63.36.14,4.48,1.68,8.3,0,2.92-1.29,3.89-3.69,7.11-10.07,4.14-8.21,6.25-12.36,8.29-14.52,1.82-1.93,6.34-6.7,13-6.82a15.07,15.07,0,0,1,10.07,3.56c8.65,7.83,3.08,25.06,2.38,27.26-1.3,4-1.82,3.46-3,7.4-1.07,3.67-3.81,13.07.3,22.23.62,1.39,5.74,12.79,14.22,12.74,6.91-.05,12.29-7.65,14.22-13.34,1.68-4.94.25-12.54-2.66-27.55-1.64-8.41-1.77-7.54-2.08-10.37-.56-5.17-1.82-16.86,4.74-27.85,1.77-3,6-9.68,15.6-10.34,6.55-.44,13.57,1.89,14.92,8.85,2,10.09,2.67,11.56,3.71,12.89.42.55,4.07,5.1,9,4.74,4.56-.33,7.34-4.58,8.89-7l.1-.15c8-12.61,21.57-20.59,36.51-20.59h1.09c14.94,0,28.5,8,36.51,20.59l.1.15c1.56,2.38,4.34,6.63,8.89,7,5,.36,8.61-4.19,9-4.74,1-1.33,1.74-2.8,3.7-12.89,1.36-7,8.37-9.29,14.93-8.85,9.64.66,13.82,7.38,15.59,10.34,6.56,11,5.3,22.68,4.74,27.85-.3,2.83-.44,2-2.07,10.37-2.92,15-4.35,22.61-2.67,27.55,1.93,5.69,7.32,13.29,14.22,13.34,8.49.05,13.6-11.35,14.22-12.74,4.11-9.16,1.37-18.56.3-22.23-1.15-3.94-1.67-3.4-3-7.4-.71-2.2-6.28-19.43,2.37-27.26a15.07,15.07,0,0,1,10.07-3.56c6.7.12,11.22,4.89,13,6.82,2,2.16,4.15,6.31,8.3,14.52,3.22,6.38,4.18,8.78,7.11,10.07,3.81,1.68,7.93.14,8.29,0,3.54-1.38,3.44-3.54,7.41-5.63a14.62,14.62,0,0,1,8.3-1.78c4.84.62,7.92,4.44,9.77,6.82,5.35,6.84,6.73,14.86,7.12,21,.8,12.75-2.19,23.8-5.71,36.45-3.18,11.42-5.85,17.43-2.44,22.22,2,2.76,6,5.15,9.33,4.22s4.79-4.53,5.78-6.89c2.71-6.41.22-9.44,3.11-15.11.51-1,3-5.94,6.22-5.78,3,.16,4.91,4.75,5.34,5.78,2.93,7,.26,13.82-2,21.56-2.12,7.21-3.12,13.11-5.12,24.89-2.94,17.38-5,30.85,2.45,40.22,1.17,1.47,5,6.14,11.11,6.89,8.73,1.07,15.15-6.77,15.78-7.56,5.14-6.48,4.58-14.31,4.22-19.33-.45-6.33-2.18-10.21-4-15.33-4.94-14-6.41-25.45-7.78-36.23a172.29,172.29,0,0,1-1.11-27.33c.56-25.85,5-23.36,5.78-47.56.32-9.6-.16-16.55,4.89-22.88,1.31-1.65,6-7.05,13.55-7.78,8.73-.85,15.12,5.14,16,6,4.38,4.24,3.23,7,9.78,14.89,4.35,5.22,6.47,5.91,8,6,.74,0,2.23,0,8.67-4.23,6.09-4,6.7-5.21,9.11-5.55,4.92-.7,9.2,3.43,9.55,3.78,2.67,2.63,5.24,7.59,3.34,22.44-1.07,8.35-2.75,13.5-6.67,26-7.28,23.23-9,29.37-7.11,37.56.84,3.68,2.47,10.37,8.22,13.33,6.1,3.13,12.82,0,13.78-.44,7.08-3.42,9.52-10.78,10.89-14.89,2.75-8.28,1.81-15.5.59-24.82-1.11-8.55-2.41-10.38-3.11-19.85-.66-9,.13-12.78,2.07-16,.67-1.1,4.33-6.85,9.63-7,1.9,0,3.57.86,6.82,2.66,6.54,3.63,6.87,5.7,10.22,6.52a12.6,12.6,0,0,0,11.56-3.55c3.05-3.3,2.91-7.83,2.52-16.74-.45-9.94-2.18-10.84-1.19-15.86,1.77-8.91,8.82-14,9.33-14.37,8.54-6,18.41-3.64,21.93-2.81a35.53,35.53,0,0,1,16.59,9.48c5,4.88,4.24,6.8,12.74,17.33,5.93,7.34,8.85,9.55,12.15,9.49,2.47-.05,4.23-1.35,6.82-3.26,6.6-4.89,6.1-9,11.25-12.45a18.93,18.93,0,0,1,12.45-2.66c6.93,1.13,11.07,6.66,13.33,9.77,5.14,7.08,7.76,16.06,7.71,32.3,0,9.79-1,16.09-5.34,40.3-4.62,25.95-7.4,40.88-7.4,40.88-2.41,12.94-3.73,26.11-7.12,38.82-2.08,7.81-4.86,16.64-4.44,29,.33,9.82,2.43,14.32,5,17.48.95,1.15,14.08,7.73,22.52,7.42,7.86-.3,12.64-6.37,13.92-8,1.47-1.87,4.62-6.51,5-17.78.4-10.73-2-18.31-3.56-24.3-2.57-10-3.1-19.92-4.15-39.7a356.8,356.8,0,0,1,.3-41.78c.57-8.72,1.77-17.57,4.15-35.26,1.47-10.9,2.76-19.25,7.11-29.33,5.23-12.13,13.41-18,21.85-14.9,8.81,3.24,11.78,12,12.89,14.66,2.6,6.32,2.47,11.94,2.22,23.12-.26,11.64-1.78,15.89,1.56,20.66,1.94,2.78,5.67,5.94,9.33,5.34,2.87-.48,4.55-3.08,6.67-6.45,4.63-7.37,3.1-11.06,7.55-16.22,1.48-1.71,4.22-4.89,7.78-4.67,4.26.27,6.85,5.23,7.34,6.22,2.21,4.52,1.23,8.84,0,14.89-2.69,13.14-4,19.71-4.23,24-.29,6.77-.69,15.83,5.34,21.78.79.78,5.9,5.67,12.44,4.67,6.91-1.06,10.38-7.9,11.33-9.78.73-1.42,3.16-6.62,1.12-20.44-1.67-11.26-3.91-12-6-23.56a107.25,107.25,0,0,1-1.56-21.56c.25-9.42.38-14.15,2.67-20,1-2.56,6.61-16.88,19.77-20,2.19-.51,9-2.14,14.23,1.49,4.62,3.23,3.36,7.47,9.63,18.51,3.35,5.93,5.1,8.93,8.44,10.67,4.87,2.55,7.54.15,13.78,3a24,24,0,0,1,8.89,7.12c3.08,3.95,2.22,5.48,5.78,12,3.11,5.69,4.67,8.56,8,9.77,4.31,1.57,9.53-.42,12.59-3.55,1.47-1.51,3.09-4.07,3.55-12.45.41-7.32-.48-11.68-1.48-19.55-1.62-12.82-2.39-19.32-.44-24s6.79-11.63,13-11.41c5.54.2,9.73,6,11.41,10.22,2.54,6.39-.6,9.22-.74,20.45-.09,7.73-.2,16.37,5.48,22.37,3.87,4.08,10.7,7.26,16.89,5.48,8.16-2.35,11.37-12.22,12.89-16.89,3.29-10.12-.32-13,3.56-21.93,1.39-3.2,4.64-10.65,12.29-13.33,6.58-2.3,12.67.23,14.67,1.19,1.39.66,7.61,3.85,12.59,15.85,2.66,6.4,4.32,13.74,4.08,33.26-.18,14-1.22,25.25-2,32.44-1.73,15.87-2.79,17.29-5.34,37.33-.16,1.25-1.84,14.7-3.11,32.67-.76,10.81-1.12,19.66.89,30.67,2.41,13.22,5.85,16.48,8,18,5.07,3.56,11.93,3.65,17.11,1.78a21.66,21.66,0,0,0,10.45-8.67c2.2-3.21,6.22-10.49,4.66-28.89-.69-8.2-1.8-10.4-6.44-30-4.25-18-5.87-26.9-6.67-31.56-.65-3.79-1.12-12.53-2.07-30-.31-5.56-.67-12.89,3.55-15.7.31-.2,2.6-1.73,4.15-.89s.94,3.6,1.78,7.71c.42,2.07,1.63,7.94,5.63,10.07,3,1.59,7.08.84,9.78-.89,3.65-2.35,5.43-7,6.22-20.44a213.08,213.08,0,0,0-.59-31.41c-1.32-13.08-2.75-17.42-.6-25.19,1.18-4.23,3-10.5,8.6-13.33,6.69-3.4,14.5.33,16.29,1.19,6.85,3.26,6.39,7,14.52,12.14,4.42,2.78,9.67,6.07,14.82,4.45,4.85-1.53,7.49-6.75,9.48-10.67,3.38-6.68,1.87-9.16,5-12.15,3.73-3.52,9.64-3.69,13.63-2.66,7.44,1.9,10.83,8.62,11.56,10.07,2.69,5.33,1.25,8.21,1.33,21.7.11,18.45,2.84,21.91,4.22,23.34,3.33,3.43,9,5.55,13.34,4,1-.37,2.72-1.2,8-9.11,6-9,5.46-10.41,8.22-12.23,6.77-4.44,16.38-.21,17.33.23a22.47,22.47,0,0,1,10.45,10c3.55,7,2.1,14.17,0,22.89-4.71,19.54-7.13,24.08-9.56,34.22-3.44,14.33-8.05,33.57,1.78,46.44,1.19,1.56,6.95,9.1,15.78,9.34,8.09.21,13.73-5.87,14.89-7.12,3.73-4,6.58-10,6.89-24,.3-14.15-3.3-22.26-4-32.22-2.15-30.42-3.92-52.15,9.33-62.66,3-2.41,10.25-8.14,19.33-7.34,5.6.5,10.41,3.34,12.67,4.67a26.53,26.53,0,0,1,4.91,3.61Z"/></svg>