<svg id="Capa_1" data-name="Capa 1" xmlns="http://www.w3.org/2000/svg" xmlns:xlink="http://www.w3.org/1999/xlink" viewBox="0 0 306.76 304.51"><defs><style>.cls-1{fill:#147e40;}.cls-2{fill:#57a046;}.cls-3{fill:#9cbc53;}.cls-4{fill:#fff;}.cls-5{fill:#0b090b;}.cls-10,.cls-11,.cls-12,.cls-13,.cls-14,.cls-15,.cls-6,.cls-7,.cls-8{stroke-miterlimit:10;}.cls-10,.cls-11,.cls-12,.cls-13,.cls-6,.cls-7{stroke-width:2px;}.cls-6{fill:url(#Degradado_sin_nombre_27);stroke:url(#Degradado_sin_nombre_27-2);}.cls-7{fill:url(#Degradado_sin_nombre_41);stroke:url(#Degradado_sin_nombre_41-2);}.cls-8{fill:url(#Degradado_sin_nombre_45);stroke:url(#Degradado_sin_nombre_45-2);}.cls-9{fill:#0c0a0c;}.cls-10{fill:url(#Degradado_sin_nombre_37);stroke:url(#Degradado_sin_nombre_37-2);}.cls-11{fill:url(#Degradado_sin_nombre_37-3);stroke:url(#Degradado_sin_nombre_37-4);}.cls-12{fill:url(#Degradado_sin_nombre_37-5);stroke:url(#Degradado_sin_nombre_37-6);}.cls-13{fill:url(#Degradado_sin_nombre_37-7);stroke:url(#Degradado_sin_nombre_37-8);}.cls-14{fill:url(#Degradado_sin_nombre_27-3);stroke:url(#Degradado_sin_nombre_27-4);}.cls-15{fill:url(#Degradado_sin_nombre_27-5);stroke:url(#Degradado_sin_nombre_27-6);}</style><linearGradient id="Degradado_sin_nombre_27" x1="96.57" y1="61.35" x2="189.59" y2="154.37" gradientUnits="userSpaceOnUse"><stop offset="0" stop-color="#eccaa6"/><stop offset="1" stop-color="#d99368"/></linearGradient><linearGradient id="Degradado_sin_nombre_27-2" x1="72.11" y1="104.89" x2="213.55" y2="104.89" xlink:href="#Degradado_sin_nombre_27"/><linearGradient id="Degradado_sin_nombre_41" x1="161.01" y1="11.02" x2="53.44" y2="118.59" gradientUnits="userSpaceOnUse"><stop offset="0" stop-color="#8e4c1d"/><stop offset="1" stop-color="#7c4332"/></linearGradient><linearGradient id="Degradado_sin_nombre_41-2" x1="162.02" y1="10.61" x2="52.85" y2="119.77" xlink:href="#Degradado_sin_nombre_41"/><linearGradient id="Degradado_sin_nombre_45" x1="168.17" y1="30.75" x2="74.82" y2="124.1" gradientUnits="userSpaceOnUse"><stop offset="0" stop-color="#57a046"/><stop offset="1" stop-color="#147e40"/></linearGradient><linearGradient id="Degradado_sin_nombre_45-2" x1="168.74" y1="30.62" x2="74.27" y2="125.08" xlink:href="#Degradado_sin_nombre_45"/><linearGradient id="Degradado_sin_nombre_37" x1="98.62" y1="248.45" x2="126.5" y2="276.33" gradientUnits="userSpaceOnUse"><stop offset="0" stop-color="#e4df6a"/><stop offset="1" stop-color="#f0d05c"/></linearGradient><linearGradient id="Degradado_sin_nombre_37-2" x1="96.16" y1="244.68" x2="128.64" y2="277.16" xlink:href="#Degradado_sin_nombre_37"/><linearGradient id="Degradado_sin_nombre_37-3" x1="116.22" y1="256.13" x2="119.93" y2="259.84" xlink:href="#Degradado_sin_nombre_37"/><linearGradient id="Degradado_sin_nombre_37-4" x1="115.62" y1="255.11" x2="121.43" y2="260.92" xlink:href="#Degradado_sin_nombre_37"/><linearGradient id="Degradado_sin_nombre_37-5" x1="167.57" y1="250.36" x2="190.48" y2="273.26" xlink:href="#Degradado_sin_nombre_37"/><linearGradient id="Degradado_sin_nombre_37-6" x1="166.96" y1="249.02" x2="191.65" y2="273.71" xlink:href="#Degradado_sin_nombre_37"/><linearGradient id="Degradado_sin_nombre_37-7" x1="106.7" y1="169.83" x2="194.35" y2="257.48" xlink:href="#Degradado_sin_nombre_37"/><linearGradient id="Degradado_sin_nombre_37-8" x1="105.67" y1="169.21" x2="195.34" y2="258.89" xlink:href="#Degradado_sin_nombre_37"/><linearGradient id="Degradado_sin_nombre_27-3" x1="119.71" y1="230.02" x2="192.88" y2="230.02" xlink:href="#Degradado_sin_nombre_27"/><linearGradient id="Degradado_sin_nombre_27-4" x1="119.13" y1="230.04" x2="193.38" y2="230.04" xlink:href="#Degradado_sin_nombre_27"/><linearGradient id="Degradado_sin_nombre_27-5" x1="202.52" y1="209.58" x2="265.57" y2="209.58" xlink:href="#Degradado_sin_nombre_27"/><linearGradient id="Degradado_sin_nombre_27-6" x1="201.96" y1="209.63" x2="266.07" y2="209.63" xlink:href="#Degradado_sin_nombre_27"/></defs><title>logo</title><path class="cls-1" d="M173.2,297a78,78,0,0,1-11.08-1.21c-2.45-.37-5.51-.83-9.25-1.33a205.88,205.88,0,0,0-21.14-2,50,50,0,0,1-12-1.68c-14.12-3.56-23.67-9.36-32.9-15-6.82-4.14-14.57-10.34-30-22.69-11.24-9-17.43-13.94-22.72-19.1-1.15-1.12-2.24-2.19-3.29-3.2-10.29-10-16-15.49-18.73-23.26-2.46-6.87-1.87-11.34-1.18-16.52a88.46,88.46,0,0,0,.8-17.81A82.51,82.51,0,0,0,9.63,157.8a73.76,73.76,0,0,1-1.94-14.91v-.35c-.41-13.43-.79-26.11,6.8-38A30.68,30.68,0,0,1,21.15,97a43.82,43.82,0,0,0,7.4-8c1.93-2.56,2.95-4.25,11.51-19.68l1.76-3.18c8.44-15.25,9.52-17.21,13.3-20.68,7.52-6.92,15.59-9.72,20.93-11.58a48,48,0,0,1,13-2.76,23.12,23.12,0,0,0,8.37-2,31.76,31.76,0,0,0,7.41-4.32A35.73,35.73,0,0,1,116.7,18.7a62.73,62.73,0,0,1,16.92-2.5h0c4.2-.17,7.08.06,18.69,1.21,6.78.67,11.05,1.11,13.93,1.41,4.87.51,5.49.58,7.53.63a76.69,76.69,0,0,0,9.69-.28,44.76,44.76,0,0,1,9.46,0,67,67,0,0,1,22.65,6.56c15.38,7.56,23.53,17.66,27.65,24.8.84,1.46,1.44,2.66,2,3.72a21.64,21.64,0,0,0,3,4.88c3.48,4.22,7.11,6.14,10.95,8.17l2.3,1.24c4.87,2.71,21.35,12.84,28.86,29.71a54,54,0,0,1,5,25.24c-.11,1.84-.31,3.49-.51,5.08-.45,3.64-.8,6.51.08,10.68a18.46,18.46,0,0,0,1.31,4,33.31,33.31,0,0,1,1.9,5.53c1.92,7.64,1,13.58.07,19.87L298,170.3a101.61,101.61,0,0,0-1.37,14.42,77.8,77.8,0,0,1-1.32,13c-2.83,16.84-4.25,25.29-9.66,32.47a31.25,31.25,0,0,1-10.78,9.12,39.65,39.65,0,0,0-10.56,8.3,33.66,33.66,0,0,0-5.89,8.09,33.71,33.71,0,0,1-7.28,9.52c-9.36,8.84-19.84,12.31-30,15.67a74.18,74.18,0,0,1-10.7,2.79,42.33,42.33,0,0,0-8.58,2.44,61.82,61.82,0,0,0-10.76,5.28,34.74,34.74,0,0,1-10.91,4.74A28.26,28.26,0,0,1,173.2,297Z"/><path class="cls-2" d="M63.07,114.1c4.89-1.78,12.75-11.26,28.45-17s24.59-5.48,28.15-4.89,8.29,1.48,10.07-2.37-2.37-6.67-7.55-6.81-19.12-.08-25.34-.86-14.66,2.34-17.33,5.45-5.22,7.11-9.11,6.22S64.52,90,66.07,86.25s3.12-7.67.78-10.78-6,.55-9.11,2.33-9.89,5.89-12.11,3.67S35.41,96.36,35.41,96.36L20.5,114.13l-3.87,19.78L19,157l2.11,17.34L18.74,200.8l1.76,6.45,15,18,17.29,16.32,9.38,3.56c0-8.66-.67-11.77-4.23-14s-11.11,1.12-11.11,1.12l-8-9.12s5.34-8.22,0-15.55-16.66-2-16.66-2l-1.69-2.89s11.24-2.89,15.24-16.89-3.33-13.11-2.89-20.67,10-13.55,4.22-19.77-12.66-1.56-12.66-1.56a12.52,12.52,0,0,1,5.33-9.33c5.11-3.34,9.19-6.3,9-12.67s-3-6.81-3-6.81a53.91,53.91,0,0,1,6.81-5.78c3-1.93,4.3-1,5.93-2.08s2.07-6.22,5.18-7.11,5,1.93,4.3,4.74S58.19,115.87,63.07,114.1Z"/><path class="cls-2" d="M249.85,225s-6.89,5.34-19.78,10-17.22,5.11-29.55,8.89-25.11,8.11-33.89,12.67S150.07,262,144,259.47s-8.55-5.22-10.66-8.34-5.11-7-10.34-8.66-10.11,2.11-15.89-.34S96.7,233,94.85,227.65s-7.11-9.78-10.74-16.29-8.62-14-10.72-20a87,87,0,0,1-2.76-9.11s-.47,14.66,2.76,21.77,7.91,16.45,9.91,23.56,1.77,15.78,8.89,23.33,12.66,6.45,19.55,11.56,9,7.18,9.85,8.52,1.48,2.37,2.82,1.92,7.18-2.59,11.48-1.33,15.33,7,23.48,6.07,12.15-3.4,16.89-8.59,17.7-16.48,29.26-19,29.67-9.22,35-13.44S249.85,225,249.85,225Z"/><path class="cls-2" d="M288,150.1l-1.71-12.6V123.73l-3-15.41L274.78,94s3,9.19,3.18,15.71-2,15.18-2,23.4,1.11,18.78,1.34,23.67-.23,7.22-4,6a26.48,26.48,0,0,1-6.45-3.1s1.56,16.32-13.55,38.36-41.11,29.52-41.11,29.52a18.51,18.51,0,0,0,4.88.44c3.49,0,5.93-1.77,7.49-2.66s3.26-1.11,6.74-1.41,9.11-.22,22-9,13-16.3,17-16.89,5,5.63,2,14.66S255.43,238,248.11,243.13s-15.7,6.82-23.55,11.12a89.7,89.7,0,0,0-13,8.59s.74,1,7.7,0S229.44,260,237,256.76s11.7-4.89,11.7-4.89l7.56-9.18,7.7-8.59,11.86-6.82L282.63,216l3.62-14.66V182.25l3.05-21Z"/><path class="cls-3" d="M256.11,139a31.61,31.61,0,0,0-5.48-13.15c-2.46-3.36-3.55-3.12-7.56-8.33a14.72,14.72,0,0,1-3.11-6.11,18.76,18.76,0,0,1-.11-4.89c.05-3.45-.83-6-2.11-9.56C237,94.77,236.52,94,230.85,84c-4.09-7.2-4.52-8-5.11-9.77-.82-2.48-1-4.08-2.44-7.67-1.65-4.12-2.78-5.49-3.23-6a13,13,0,0,0-5.55-3.89,10.09,10.09,0,0,0-5.67-.56c-1.1.25-1.16.5-4.11,2s-4.5,2.28-5.78,2.23-2.28-.67-4.33-1.89c-3.19-1.91-3.67-3.17-5.78-3.45a7.33,7.33,0,0,0-3.11.34c-1.84.55-2.27,1.37-3.67,2a7,7,0,0,1-5.77,0c-3-1.64-3.63-6.71-2.34-10.23a10.73,10.73,0,0,1,5.34-5.66c2.16-1,2.67-.26,7.77-1.67,3.56-1,4.41-1.65,4.89-2.22l2.34-2.78a.87.87,0,0,1,.41-.47,1.18,1.18,0,0,1,1,.17,19,19,0,0,1,3.8,2.58c1.15,1.13.44.2,4.58,3.58A22.39,22.39,0,0,0,208,43.58a6.44,6.44,0,0,0,3.67,1,5.07,5.07,0,0,0,2.94-1.48,6.06,6.06,0,0,0,1.78-4.88c-.72-4.49-10.08-6.51-15.31-7.63a66,66,0,0,0-12.66-1.41c-5.61-.16-6.85.37-12.82.44a112.92,112.92,0,0,1-15-.89c-11.85-1.29-10.6-2.55-19.11-3-3.24-.19-8.38.44-18.67,1.7a3.8,3.8,0,0,0-1.33.37c-2.09,1.05-1.62,3.42-3.45,5.78-1.58,2.05-2.72,1.27-4,3.22-1,1.55-1.83,4.4-.33,6.22a4.81,4.81,0,0,0,4.67,1.34c1.87-.43,2.49-1.77,4.33-3.45a19.55,19.55,0,0,1,7-3.89c3.88-1.41,4.43-.24,10.56-1.44,3.72-.73,3.83-1.22,7.89-1.89,4.69-.78,6.54-.45,7.88,0A7.46,7.46,0,0,1,160.63,37a6.31,6.31,0,0,1,.67,3.34,7.22,7.22,0,0,1-1.89,4.22c-1.46,1.49-3.08,1.62-7,2.33a58.74,58.74,0,0,0-7.89,1.67c-3.84,1.45-6.13,4-8.67,6.89a31.18,31.18,0,0,0-5.33,8.44c-1.05,2.49-2.18,5.23-.89,6.89A3.63,3.63,0,0,0,132.07,72c2.1.23,3.1-1.37,5.67-2.33,1-.37,1.75-.47,5.11-.56,8.7-.23,8.48.28,11.34-.11a59.08,59.08,0,0,0,9.22-2.44c3.92-1.22,5.88-2,7.33-1,1,.72,1.3,2,1.78,4,.66,2.77,0,3.18.67,5,.42,1.14,1.43,2.24,3.44,4.44a29.29,29.29,0,0,0,3,3,23.63,23.63,0,0,0,4.78,3.11c3.12,1.65,5.31,3.57,8.59,6.45,2,1.77,5,5.94,10.82,14.22,0,0,2.59,3.68,6.22,9.63,2.41,4,3.36,5.81,3.55,8.3a10.88,10.88,0,0,0,.45,3.11c.72,2.16,2,3,3.26,4.74a15,15,0,0,1,2.52,5.63c.65,3.78-1,8.67-4.3,10.66-.78.47-.58.14-7,1.78-3.3.85-4.6,1.26-5.19,2.45s-.15,2.48.22,3.63c.84,2.54,2.1,3,3.78,5.63,1.16,1.79,2.46,3.79,2.45,6.44,0,.3-.09,4-2.75,6.15-1.28,1-2,.78-4.29,1.7-2.67,1.09-3,2-6.3,4.15-4.15,2.74-6.22,4.11-8.52,3.78s-3.8-2.08-6-4.59c-3.39-3.91-3.48-6.44-6-7.12a6.65,6.65,0,0,0-4.44.75c-1.37.65-1.59,1.24-4.67,3.92-2.41,2.11-3,2.35-3.63,2.45a5,5,0,0,1-4-1.34c-1.19-1.16-.89-2.26-2.15-3.33a4.18,4.18,0,0,0-2.59-1c-1.44,0-1.88,1-3.78,2.15-1.09.64-3.59,2.1-5.77,1.26a5.19,5.19,0,0,1-2.74-3.19c-.52-1.48-.21-2.6.37-5.48.72-3.63,1.16-4.28,1.11-6.29a7.57,7.57,0,0,0-.74-3.63c-.67-1.23-1.46-1.59-3.71-3.26a26.57,26.57,0,0,1-4.22-3.48c-.77-.93-2.65-3.18-2.37-6,.22-2.18,1.62-3.6,3-5a15.57,15.57,0,0,1,6.67-3.85,13.12,13.12,0,0,1,6.15-.81,12.67,12.67,0,0,1,5,1.85,9.91,9.91,0,0,1,4.3,3.92,4.83,4.83,0,0,1,.74,3.26c-.31,1.46-1.53,2.32-3,3.34-2.12,1.5-2.92,1.23-4.14,2.59a5.14,5.14,0,0,0-1.48,3,5.58,5.58,0,0,0,1.85,4.07c1.55,1.68,3.52,2.32,7.4,3.56,3.13,1,3.33.77,6.15,1.77s2.89,1.31,4.22,1.49a10.29,10.29,0,0,0,6.52-1.41c.95-.6.44-.53,4.6-5.48a7,7,0,0,0,1.77-2.82,6.1,6.1,0,0,0-.59-4.22c-1-1.79-2.63-2.54-5.78-3.93-3.31-1.45-3.91-1.1-5.33-2.29a7.57,7.57,0,0,1-2.81-5.11c-.06-1.49.57-1.77,2.07-5.63,1.05-2.72,1.57-4.1,1.26-5.19-.53-1.81-2.38-2.74-4.3-3.7a19,19,0,0,0-6.37-1.71,15.7,15.7,0,0,0-4.89-.22,13.92,13.92,0,0,0-5.26,2.15c-2.16,1.32-2.1,1.88-3.4,2.22a5.58,5.58,0,0,1-5.26-1.33,5.05,5.05,0,0,1-1.56-3.93c.39-2.73,3.95-4.3,7.3-5.77,2.61-1.16,3.56-1.1,6.66-2.67,2.51-1.27,2.18-1.46,3.45-1.89a12.22,12.22,0,0,1,9,.67c1.79.88,2,1.59,3.78,2a7,7,0,0,0,4.44-.34c.22-.09,3.46-1.58,3.56-4.11.06-1.71-1.34-2.93-3.34-4.66a21.2,21.2,0,0,0-5.89-3.67A23.43,23.43,0,0,0,158.85,100c-3.85.18-8.64.39-12.11,3.56a37.05,37.05,0,0,1-4,3.55c-2.78,2.06-4,2.22-4.67,2.23a6.37,6.37,0,0,1-3.88-1.56c-1.87-1.39-1.92-2.6-3.34-4a8.54,8.54,0,0,0-5.66-2.44c-2.66.07-4.58,2-7.12,4.44s-1.91,2.77-3.77,4.33c-.74.62-1.73,1.33-8.11,3.89-4.28,1.72-5,1.86-6.37,2.89-.28.21-3.86,2.89-3.89,4.89a.81.81,0,0,1-.19.56c-.51.47-2.08-.22-3.11-1.08-1.5-1.25-1.09-2.22-2.33-3.48a6,6,0,0,0-4.78-1.67c-.89.11-1.5.43-4.78,2.89-2.1,1.57-3.14,2.36-3.78,2.89a66.74,66.74,0,0,0-9,9.45c-4,5-6,7.59-7.22,11.44a13,13,0,0,0-.55,6.89,12.54,12.54,0,0,0,3.33,5.89c.78.83,1.51,1.41,5.89,4,6,3.53,6.25,3.43,7.33,4.55.87.91,3.66,3.8,3.67,7.34a23.46,23.46,0,0,1-.34,5.33,3.28,3.28,0,0,0-.11,1.67,3.59,3.59,0,0,0,1.11,1.78A56.42,56.42,0,0,0,87,185.36a38.91,38.91,0,0,0,8.89,4.22c2.84.92,5.26,1.24,10.11,1.89,4.51.6,7.36,1,7.56.33.26-.83-4.52-1.9-9.22-6.55a55.27,55.27,0,0,1-4.89-6.45A100.75,100.75,0,0,1,93.52,169c-1.31-2.45-1.69-3.39-1.67-4.66,0-1.92.94-3.39,2.56-6,2-3.25,2.81-3.34,3.11-5.11s-.4-3.05.44-4c.23-.26.86-.83,3-.78,2.49.06,3.69.88,6.89,2.11,4.15,1.59,4.59,1.15,6.56,2.44a8.75,8.75,0,0,1,3.66,3.78c1,2.25.37,4.46-.33,6.89-.94,3.26-1.79,3.4-3.55,7.78-1.94,4.82-1.69,6.57-1.56,7.22a7.48,7.48,0,0,0,2.56,4.44c1.44,1.12,2.54.88,5.33,1.56a20.21,20.21,0,0,1,6.67,2.67,14.42,14.42,0,0,1,5.33,7.22c.6,1.93.51,4,.33,8.22-.16,3.91-.58,5.12-.11,7.89.33,1.95.62,3.53,1.89,5a9.11,9.11,0,0,0,5.78,2.78c1.91.25,2.28-.24,5.55-.34,2.56-.07,3.52.19,5.11.23,3.92.09,7-1.26,9.67-2.45,4.12-1.82,4.33-2.89,10.22-6.78,7.65-5,8.37-3.95,12.89-7.77,2.66-2.25,7.39-6.85,7.78-7.23a19.41,19.41,0,0,1,6.67-4.77c2.84-1.14,4.42-.82,5.22-.56a4.73,4.73,0,0,1,3,2.45c.59,1.52-.19,3.14-1,4.55a34.41,34.41,0,0,1-7.67,8.89c-5.28,4.52-7.93,6.78-9.89,8.22-5.61,4.12-8.41,6.18-10.55,7.34-1.82,1-3.21,2.63-5,3.66-.26.15-1,.56-.95,1,0,.29.4.49.92.7a6,6,0,0,0,6.75-.75c3-2.26,6.45-3.67,9.61-5.61,2.54-1.56,3-1.51,10.19-4.86,5.53-2.55,10.72-5.1,14.07-6.81,9.05-4.63,13.58-7,17.78-10.37a44.94,44.94,0,0,0,12.44-14.52c2.3-4.42,5.28-10.13,4.45-17a67,67,0,0,0-2.23-11c-.65-2.09-1.57-4.56-1-7.7.2-1.18.61-3.37,2.37-4.3a3.68,3.68,0,0,1,2.66-.3c.92.29,1,.81,2.67,2.37,1.94,1.8,2.71,1.91,3,1.93a11.19,11.19,0,0,0,2-.33.58.58,0,0,0,.4-.23c.21-.33-.18-.91-.25-1C256.47,144,256.26,140.23,256.11,139Z"/><path class="cls-3" d="M115.41,213.58c-4-4.33-6.45-6.89-9.67-9.33a49.24,49.24,0,0,0-5-3.45,76.13,76.13,0,0,1,3.67,7.22c1.11,2.78,3.89,9,6.89,12.34a30.45,30.45,0,0,0,10.55,7.33,17.9,17.9,0,0,0,5.56.78,51.55,51.55,0,0,1-4.67-5.67A60.58,60.58,0,0,0,115.41,213.58Z"/><path class="cls-3" d="M270.63,103.73c-1-9.78-6-14.37-6-14.37s-.93,4.89-1.53,10.81a67.79,67.79,0,0,0,1.49,19.56c1.33,6.22,1.77,18.07,1.77,18.07l2.37-12.59C269.74,119.73,271.67,113.5,270.63,103.73Z"/><path class="cls-4" d="M173.2,297a78,78,0,0,1-11.08-1.21c-2.45-.37-5.51-.83-9.25-1.33a205.88,205.88,0,0,0-21.14-2,50,50,0,0,1-12-1.68c-14.12-3.56-23.67-9.36-32.9-15-6.82-4.14-14.57-10.34-30-22.69-11.24-9-17.43-13.94-22.72-19.1-1.15-1.12-2.24-2.19-3.29-3.2-10.29-10-16-15.49-18.73-23.26-2.46-6.87-1.87-11.34-1.18-16.52a88.46,88.46,0,0,0,.8-17.81A82.51,82.51,0,0,0,9.63,157.8a73.76,73.76,0,0,1-1.94-14.91v-.35c-.41-13.43-.79-26.11,6.8-38A30.68,30.68,0,0,1,21.15,97a43.82,43.82,0,0,0,7.4-8c1.93-2.56,2.95-4.25,11.51-19.68l1.76-3.18c8.44-15.25,9.52-17.21,13.3-20.68,7.52-6.92,15.59-9.72,20.93-11.58a48,48,0,0,1,13-2.76,23.12,23.12,0,0,0,8.37-2,31.76,31.76,0,0,0,7.41-4.32A35.73,35.73,0,0,1,116.7,18.7a62.73,62.73,0,0,1,16.92-2.5h0c4.2-.17,7.08.06,18.69,1.21,6.78.67,11.05,1.11,13.93,1.41,4.87.51,5.49.58,7.53.63a76.69,76.69,0,0,0,9.69-.28,44.76,44.76,0,0,1,9.46,0,67,67,0,0,1,22.65,6.56c15.38,7.56,23.53,17.66,27.65,24.8.84,1.46,1.44,2.66,2,3.72a21.64,21.64,0,0,0,3,4.88c3.48,4.22,7.11,6.14,10.95,8.17l2.3,1.24c4.87,2.71,21.35,12.84,28.86,29.71a54,54,0,0,1,5,25.24c-.11,1.84-.31,3.49-.51,5.08-.45,3.64-.8,6.51.08,10.68a18.46,18.46,0,0,0,1.31,4,33.31,33.31,0,0,1,1.9,5.53c1.92,7.64,1,13.58.07,19.87L298,170.3a101.61,101.61,0,0,0-1.37,14.42,77.8,77.8,0,0,1-1.32,13c-2.83,16.84-4.25,25.29-9.66,32.47a31.25,31.25,0,0,1-10.78,9.12,39.65,39.65,0,0,0-10.56,8.3,33.66,33.66,0,0,0-5.89,8.09,33.71,33.71,0,0,1-7.28,9.52c-9.36,8.84-19.84,12.31-30,15.67a74.18,74.18,0,0,1-10.7,2.79,42.33,42.33,0,0,0-8.58,2.44,61.82,61.82,0,0,0-10.76,5.28,34.74,34.74,0,0,1-10.91,4.74A28.26,28.26,0,0,1,173.2,297Zm-39-267.83a50.49,50.49,0,0,0-13.59,1.94,23,23,0,0,0-8,4.18,44.67,44.67,0,0,1-10.07,5.83A35.79,35.79,0,0,1,90.2,44.07a34.87,34.87,0,0,0-9.88,2.09c-4.59,1.6-10.86,3.78-16.4,8.87-2.16,2-3,3.35-10.73,17.4l-1.76,3.19c-8.69,15.66-10,17.84-12.5,21.2a55.62,55.62,0,0,1-9.27,10,17.86,17.86,0,0,0-4.22,4.7C20,120,20.3,129.8,20.67,142.14v.35a61,61,0,0,0,1.66,12.58,94.44,94.44,0,0,1,2.34,17.53,102.25,102.25,0,0,1-.9,20.15c-.62,4.61-.87,6.52.53,10.42,1.76,4.92,6.66,9.68,15.55,18.32l3.31,3.21c4.64,4.53,10,8.87,21.74,18.25,15,12,22.55,18,28.65,21.74,8.8,5.34,17.11,10.39,29.33,13.47a36.94,36.94,0,0,0,9.42,1.3c3.91.18,9.81.44,22.3,2.12,3.84.52,6.95,1,9.45,1.36,7.93,1.2,9.54,1.4,13,.55a22.83,22.83,0,0,0,7.32-3.27A72.5,72.5,0,0,1,197.2,274,55,55,0,0,1,208,270.88a61.39,61.39,0,0,0,9.06-2.36c9.19-3,17.87-5.92,25.14-12.78a20.76,20.76,0,0,0,4.8-6.32,46.34,46.34,0,0,1,7.81-10.73A51.81,51.81,0,0,1,268.32,228c2.88-1.66,4.61-2.67,6.9-5.7,3.5-4.64,4.74-12,7.22-26.79a64.72,64.72,0,0,0,1.14-11.16,115.31,115.31,0,0,1,1.51-16l.25-1.67c.84-5.6,1.45-9.66.17-14.76a20.75,20.75,0,0,0-1.25-3.61A30.89,30.89,0,0,1,282.2,142a41.28,41.28,0,0,1-.27-15c.18-1.45.35-2.82.43-4.25a41.47,41.47,0,0,0-3.89-19.2c-5.87-13.18-19.31-21.41-23.29-23.62-.67-.38-1.37-.74-2.07-1.12-4.35-2.3-9.77-5.17-14.9-11.39a34.19,34.19,0,0,1-4.64-7.33c-.47-.94-1-1.92-1.61-3-3.22-5.58-9.67-13.52-22.12-19.64a55,55,0,0,0-18.24-5.29,31.78,31.78,0,0,0-7.06,0,88.47,88.47,0,0,1-11.12.32c-2.54-.07-3.45-.17-8.53-.7C162,31.46,157.77,31,151,30.34c-11.6-1.15-13.65-1.29-16.88-1.16Z"/><path class="cls-5" d="M136,22.64c2.86,0,6.22.29,15.71,1.23,18.44,1.83,18.32,2,21.92,2.08,1.08,0,2.06,0,3,0,6,0,8.18-.56,11.66-.56a40.4,40.4,0,0,1,4,.22,61.13,61.13,0,0,1,20.44,5.93c3.87,1.9,17,8.56,24.89,22.22,2.23,3.86,2.64,5.85,5.63,9.48,5.1,6.19,10.54,8.43,15.11,11,3.11,1.72,19.08,11,26.08,26.66a47.85,47.85,0,0,1,4.44,22.22c-.34,5.8-1.84,10.2-.29,17.49,1,4.69,2.13,5.29,3.26,9.77,1.74,7,.69,12.23-.3,19-2.48,16.8-.46,14.09-2.67,27.26-2.66,15.81-4,23.72-8.44,29.63-6.26,8.29-10.71,6-20.89,16.88-8.12,8.66-5.85,10.69-12.89,17.34-8.31,7.85-17.83,11-27.56,14.22-10.23,3.39-10.52,1.88-19.55,5.33-12.06,4.62-12.86,7.82-20.89,9.78a22,22,0,0,1-5.46.71c-3.94,0-8.63-1-19.43-2.49-24.05-3.24-22.61-1.07-32.44-3.55-13.17-3.32-22.25-8.84-31.11-14.22-6.47-3.93-14.09-10-29.34-22.23-11.44-9.15-17.26-13.82-22.22-18.66-11.78-11.49-17.93-17-20.44-24-3.58-10,.95-12.38,0-32.45-.74-15.56-3.62-17.49-4-30.22-.4-13.17-.8-24.36,5.77-34.67,4.17-6.53,6.39-5.28,13.78-15.11,2.21-2.94,3.34-4.8,12-20.44C55.4,55,56.31,53.2,59.52,50.25c6.53-6,13.77-8.53,18.67-10.23,11.14-3.87,12.5-1,21.77-4.89s9.34-7.32,18.67-10.22a56.13,56.13,0,0,1,15.26-2.22c.71,0,1.38-.05,2.07-.05m0-14c-.83,0-1.67,0-2.64.06a69,69,0,0,0-18.84,2.84,42.56,42.56,0,0,0-14,7.23,24.81,24.81,0,0,1-5.89,3.46,16,16,0,0,1-6.11,1.42A54.74,54.74,0,0,0,73.59,26.8C68,28.73,58.71,32,50,39.94c-4.67,4.3-6.21,7.09-14.79,22.57L33.5,65.68c-8.27,14.91-9.31,16.64-10.95,18.81a36.77,36.77,0,0,1-6.3,6.83,37.79,37.79,0,0,0-8.09,9.18c-8.84,13.85-8.4,28.29-8,42.26v.35A81.58,81.58,0,0,0,2.3,159.37a75.31,75.31,0,0,1,1.9,14.2,81.41,81.41,0,0,1-.74,16.48c-.75,5.62-1.53,11.44,1.54,20,3.37,9.41,9.85,15.7,20.58,26.13q1.56,1.5,3.27,3.18c5.56,5.42,11.84,10.45,23.26,19.58,15.69,12.55,23.57,18.85,30.81,23.25,9.25,5.62,19.74,12,35,15.83a56.72,56.72,0,0,0,13.52,1.9,202.65,202.65,0,0,1,20.48,2c3.68.49,6.58.93,9.13,1.31a81.17,81.17,0,0,0,12.17,1.3A36.24,36.24,0,0,0,182,303.4a42.86,42.86,0,0,0,13-5.59,52.72,52.72,0,0,1,9.58-4.71,35,35,0,0,1,7.31-2.09,81.17,81.17,0,0,0,11.65-3c10.4-3.45,22.19-7.35,32.76-17.33A40.77,40.77,0,0,0,265,259.27a26.23,26.23,0,0,1,4.78-6.55,32.38,32.38,0,0,1,8.84-6.94,38.79,38.79,0,0,0,13-11.11c6.51-8.64,8.13-18.26,11.07-35.73a86.87,86.87,0,0,0,1.42-14,94.92,94.92,0,0,1,1.29-13.51c.08-.55.16-1.08.24-1.61,1-6.74,2.07-13.71-.22-22.8a39.63,39.63,0,0,0-2.27-6.64,11.68,11.68,0,0,1-.87-2.64c-.62-2.94-.38-4.92,0-8.2.2-1.63.43-3.48.55-5.56a61.28,61.28,0,0,0-5.63-28.73C289,76.75,272,65.84,265.13,62c-.79-.44-1.6-.87-2.43-1.31-3.57-1.89-6.15-3.26-8.68-6.33a14.55,14.55,0,0,1-2.12-3.46c-.55-1.1-1.23-2.46-2.18-4.11-4.65-8-13.77-19.39-30.84-27.78a74.83,74.83,0,0,0-25.2-7.3,53.75,53.75,0,0,0-5.47-.29c-2.09,0-3.76.14-5.37.27-1.79.15-3.48.29-6.29.29-.81,0-1.68,0-2.58,0a68.62,68.62,0,0,1-7-.59c-2.85-.29-7.17-.74-14-1.42C143.54,9,139.6,8.64,136,8.64Z"/><path class="cls-6" d="M97.15,156.61c-3.71-4.19-7.34-8-9.22-9.89,1.29-.21,2.4-.42,2.48-.43a1.25,1.25,0,0,0-.45-2.46s-3.52.65-5.22.8l-.1,0h-.1a12.43,12.43,0,0,1-1.46.08,8.2,8.2,0,0,1-4.7-1.13c-.09-.07-8.87-7.2-3.57-16.59a31.28,31.28,0,0,1,2.81-4.37l.42-.49a10.31,10.31,0,0,1,4.82-1.45,1.24,1.24,0,0,0,1.2-1.29,1.26,1.26,0,0,0-1.29-1.21,14,14,0,0,0-4.54,1c0-5.31.35-21.62,3.65-31,.16-.46.32-.94.5-1.44,3.12-9.09,8.93-26,32.33-39.75,9.28-5.45,18.84-8.21,28.4-8.21a60.87,60.87,0,0,1,22.81,4.82l.87.35a57,57,0,0,1,16.77,9.49,23.85,23.85,0,0,1,6.18,7.32,88,88,0,0,0-14,1.72A1.25,1.25,0,0,0,176,65a1,1,0,0,0,.24,0c6.86-1.34,12.84-1.83,15.21-1.63a.8.8,0,0,0,.27,0l.12,0a66.34,66.34,0,0,1,11.42,4.91,18.88,18.88,0,0,1,3.6,2.84c3.45,3.63,5.27,8.12,5.66,14a310.42,310.42,0,0,0-40.31,3.21A56.77,56.77,0,0,1,172.1,81a1.25,1.25,0,1,0-2.5-.12c-.59,12.57,1.52,21.86,13.71,26.35a27.72,27.72,0,0,0,9.59,1.9c6,0,9.85-2.67,12.66-4.64l.34-.25a21.2,21.2,0,0,0,1.93-1.52,69.32,69.32,0,0,1,.5,8.37c0,6.08-.81,14.13-4.1,21-6.3,13.16-12.63,20.28-16.85,24.5a75.11,75.11,0,0,1-5.58,5.18c-1.19.7-10,5.79-17.34,7.29a115.34,115.34,0,0,1-23,1.94c-3,0-6.29-.07-9.94-.21-10.14-.41-23.23-5.68-24.29-6.12A36.88,36.88,0,0,1,97.15,156.61Z"/><path class="cls-4" d="M210.57,95.82l-.11.11a24.77,24.77,0,0,1-6,6.24l-.35.24c-3.85,2.71-9.13,6.42-20,2.44-7.49-2.76-10.66-7.5-11.71-14.08,5.83-1,13.41-1.75,20.6-2.32A2.51,2.51,0,0,0,193,89a2.69,2.69,0,0,0,5.38,0,2.72,2.72,0,0,0-.17-.91c5.92-.38,11.16-.58,14.36-.52A20.1,20.1,0,0,1,210.57,95.82Z"/><path class="cls-7" d="M71,136.1a93.5,93.5,0,0,1-8.85-11.36c-1-1.65-2.21-3.4-3.52-5.25-3.07-4.32-6.56-9.23-6.65-13.15-.11-5.25.89-13.73,1.55-19.34.14-1.18.26-2.24.37-3.15a39.84,39.84,0,0,0,0-6c-.28-5.69-.63-12.77,3-17.71,3-4,6.55-8.75,9.69-12.92C69.46,43.39,72,40,73.53,38c2.74-3.71,20.82-17,28.92-19.41,3.63-1.07,7-2.38,10.16-3.64,4.35-1.7,8.47-3.32,12.11-3.78,3.84-.48,11.12.54,17.53,1.44,4.11.58,8,1.12,11,1.29,6.84.4,12.09,3.7,19.37,9.66,8.24,6.74,12.82,11.69,13.61,14.7a24.78,24.78,0,0,1,.14,8.13c-5.31-4-14.16-10.25-22.31-14-10.45-4.78-29.71-4.5-39.59-2.46-9.49,2-15.22,3.14-26.9,12.55-8.89,7.16-16.47,18.17-23.18,33.66C69.9,86.45,67,105.06,72.18,126.3a1.76,1.76,0,0,0,.09.2A14,14,0,0,0,71,136.1Z"/><path class="cls-8" d="M76.67,77.11C83.21,62,90.55,51.3,99.12,44.4c11.21-9,16.4-10.1,25.84-12s28.07-2.27,38,2.28c8.51,3.89,17.86,10.64,22.9,14.49v0l.25.18c1.06.81,1.92,1.49,2.51,2l.05,0a9.94,9.94,0,0,1,2.48,3.16c.69,1.81,1.68,4.87,2.29,6.78l-.92-.31s-1.59-4.66-7.41-9.43c-7.41-6.07-13.59-8.33-18.3-10.22a63.36,63.36,0,0,0-23.74-5c-8.82,0-18.82,2.19-29.67,8.56C88,59.82,82.66,78.41,79.52,87.37,75.37,99.23,75.74,121,75.74,121a22.07,22.07,0,0,0-1.65,2.36C69.8,103.66,72.71,86.26,76.67,77.11Z"/><path class="cls-9" d="M172.81,200.06a4.68,4.68,0,0,1,1.42-.69l-.3,1.51c-.16-.14-.31-.27-.48-.4S173,200.2,172.81,200.06Z"/><path class="cls-10" d="M120.69,262.39a16.21,16.21,0,0,1-4.42-.61,7.08,7.08,0,0,1-3.94-3h0l-.07-.13c0-.12-3.76-9-6.9-16.91v26.94a78.28,78.28,0,0,0,18.15,7.09c1.15.29,2.09.5,2.93.66-1.1-2.62-2.79-6.93-5.54-14Z"/><path class="cls-11" d="M119.91,259.86c-.64-1.64-1.33-3.43-2.07-5.35-.82,1-1.76,2.18-2.86,3.62a4.6,4.6,0,0,0,2,1.25A12.77,12.77,0,0,0,119.91,259.86Z"/><path class="cls-12" d="M187.78,232.7l0-2.51c-1.14,1.5-2.39,3-3.75,4.46-1.75,1.9-3.9,5.44-6.61,9.92-1.26,2.08-2.66,4.4-4.25,6.92-4,6.33-13.19,21.5-17,27.78,3.3.45,6,.86,8.27,1.2,8,1.2,9.14,1.31,12.08.59a20.41,20.41,0,0,0,6.63-3c1.52-.91,3.34-2,5.75-3.21-.31-7.16-.78-18.3-.85-23.59C187.91,243.39,187.78,232.7,187.78,232.7Z"/><path class="cls-13" d="M212.19,212.42a142.86,142.86,0,0,0-17-30.17l-.71-1a134.6,134.6,0,0,0-13-15.45l-.62-.63c-3.45,1.87-10.06,5.13-15.87,6.33a120.16,120.16,0,0,1-23.51,2c-3.51,0-6.9-.09-10-.22-8.29-.33-18.24-3.68-22.76-5.37l-.32.53c0,.09-5.36,8.94-8.86,15.07-2.17,3.79-1.78,8.64-1.37,13.78.18,2.19.36,4.46.36,6.75,0,6.08,4.9,23.68,6.79,29.95l.1.35v.51c2.46,6.49,6.62,16.57,8.38,20.82,5.43-7,7-7.72,11.53-9.66l.26-.11c4.19-1.81,11.3-3.07,13.71-3.46-.76-1.69-4.28-9.68-7.34-18.55-3.45-10-4-15-4.06-15.15a1.25,1.25,0,0,1,2.49-.28s.59,4.91,3.94,14.62,7.36,18.58,7.4,18.67l.09.33c.12.76.46,3.35-.07,4.68-.43,1.06-.89,2.44-.89,2.46s0,.06-.06.1c.34,1,.72,2.13,1.14,3.13.87,2.09,1.67,4,2.21,5.24,3.38-4.7,7.5-10.41,10.43-14.45,4.42-6.11,8.34-12.07,9.93-14.53a22.17,22.17,0,0,1-6-5c-4-4.63-4.26-9.84-2.53-12.4a6.87,6.87,0,0,1,3.69-2.79c.42-3.1,1.88-6.57,4.08-8.21a7.82,7.82,0,0,1,6.59-1.28,7.13,7.13,0,0,1,4.48-2.23c1.19-6.21,2.38-11.93,4.54-14.74s4.55-3.62,5.95-3.27a2.23,2.23,0,0,1,1.75,1.83c.32,1.9-1,9.18-1.78,12.76-.41,1.92-.74,4.23-1,6.37,1.35.47,8.5,3.15,10.26,7.58,1.67,4.22,1.08,9.15-1.82,15.08a45.69,45.69,0,0,1-3.25,5.55l2.76,3.12a19.87,19.87,0,0,1,2,3.36c.52,1,1.29,2.57,2.17,4.43.77,1.61,1.91,4,2.9,5.93l.13-.26c2.59-5.31,4.15-8.51,10.08-10.81a32.17,32.17,0,0,1,10.66-1.94C219.07,228.94,216.78,223,212.19,212.42Z"/><path class="cls-9" d="M201,247.76c-.08-.09-.18-.23-.29-.38l.41-.83.71,1.4A.86.86,0,0,1,201,247.76Z"/><path class="cls-14" d="M186,203.14a7.52,7.52,0,0,0,.67.87,25.17,25.17,0,0,0,2.27,2,1.25,1.25,0,0,1-.77,2.24,1.29,1.29,0,0,1-.76-.26,30.49,30.49,0,0,1-2.55-2.2,11.76,11.76,0,0,1-1.12-1.48c-.11,1.28-.17,2.11-.17,2.14a1.25,1.25,0,0,1-1.25,1.17h-.08a1.24,1.24,0,0,1-1.16-1.33,115.66,115.66,0,0,1,1.65-13.44,73.3,73.3,0,0,0,1.79-11.67c-.49,0-1.77.43-3.28,2.39-1.95,2.55-3.16,8.93-4.33,15.09-.27,1.44-.55,2.9-.84,4.34a16.73,16.73,0,0,1,1.44,1.85,1.25,1.25,0,0,1-2.11,1.34,16.65,16.65,0,0,0-3.49-3.68,5.59,5.59,0,0,0-6.76-.21c-2.1,1.57-3.46,6.08-3.18,8.75.24,2.29,2.31,3.39,4.79,4.49.28.13.37.07.43,0,.44-.24,1-1.3,1.41-3.17a16.17,16.17,0,0,0-2.56.15,1,1,0,0,1-.24,0,1.25,1.25,0,0,1-.23-2.47,17.32,17.32,0,0,1,2.95-.2,4.87,4.87,0,0,0-1.48-1.74,1.25,1.25,0,0,1,1.37-2.09c.14.09,3.4,2.26,2.83,5.8-.5,3.16-1.47,5.15-2.86,5.9a2.76,2.76,0,0,1-1.33.34,3.25,3.25,0,0,1-1.31-.29c-2.33-1-5.84-2.61-6.25-6.52a.13.13,0,0,0,0-.06,4.71,4.71,0,0,0-1.53,1.45c-1,1.49-1,5.5,2.36,9.37a17.08,17.08,0,0,0,6.36,5l1.47.53-.84,1.32c0,.08-5,7.83-10.78,15.84s-16.44,22.81-16.44,22.81l-2-1.46,4.31-6c-.3-.7-1.47-3.45-2.81-6.65a60.44,60.44,0,0,1-2.54-8,57.33,57.33,0,0,0-10.51,2.82l-.26.11c-2.79,1.21-4.32,1.87-6.54,4.14,4.59,11.85,8.08,20.71,9.6,24.37.92.07,1.89.12,3.11.17,3.8.17,9.46.43,21,1.94,3.37-5.55,13.39-22,17.59-28.74,1.57-2.51,3-4.81,4.22-6.89,2.9-4.78,5-8.23,6.92-10.32a49.87,49.87,0,0,0,8.24-11.7c2.57-5.26,3.14-9.53,1.73-13.06C191.3,206.09,188.42,204.29,186,203.14Z"/><path class="cls-15" d="M264.53,178.46a34.84,34.84,0,0,1-2.6-3.08,10,10,0,0,0-.4,2.53,1.27,1.27,0,0,1-1,1.45l-.23,0a1.24,1.24,0,0,1-1.22-1c-.19-1,.17-2.52.81-5.15.19-.8.4-1.64.57-2.45.11-2.1.31-5.84.46-8.44,0-.75.13-1.63.21-2.58.19-2.14.58-6.53.05-7.75-.59-.28-2.09.21-2.87,1.11-.12.14-1.19,1.54-1.39,7.45-.12,3.51-2.07,9.09-2.29,9.72l-.38,1-1,.43a3.86,3.86,0,0,1-1.2.26,18.42,18.42,0,0,1,1.63,2,28.63,28.63,0,0,1,2.45,4.12,1.26,1.26,0,0,1-.61,1.66,1.4,1.4,0,0,1-.53.11,1.25,1.25,0,0,1-1.13-.72,26.22,26.22,0,0,0-2.22-3.72,14.14,14.14,0,0,0-5.38-4.65,6.59,6.59,0,0,0-1.28.25,4.66,4.66,0,0,0-2,1.38l-.21.25c3.27,1.8,5.78,4.45,6.16,6.29a1.25,1.25,0,0,1-1,1.48,1.07,1.07,0,0,1-.25,0,1.25,1.25,0,0,1-1.22-1c-.23-1.1-3-4.13-7-5.56a15.55,15.55,0,0,0-2.63,1.21c-1,.74-1.26,6.21.22,10.5.71,2,1.47,2.65,1.7,2.79l.95.06a27.75,27.75,0,0,0,1.45-2.95,12.37,12.37,0,0,0-1.51.21,1.25,1.25,0,0,1-.79-2.37,8,8,0,0,1,1.17-.23c-.4-.44-.92-1-1.62-1.6a1.25,1.25,0,0,1,1.69-1.85c2.84,2.61,3.79,4.13,3.62,5.83-.12,1.25-2,4.58-2.83,6l-.13.17c-.13,1-.43,3.7-.6,6.58a6.85,6.85,0,0,0,1.67,4.56l1.15,1.19-.65,1.53-3.33,7.85c-1.06,2.5-3,7-4.58,10.64l-1.43,3.3a133.09,133.09,0,0,1-6.61,11.88l-1.52,2.46c-2.47,6-5.17,13.37-5.21,13.47a1.23,1.23,0,0,1-1.17.82,1.09,1.09,0,0,1-.43-.08,1.25,1.25,0,0,1-.75-1.6c.15-.39,2.66-7.23,5.06-13.11l-1.38-6.92A30.45,30.45,0,0,0,210.34,236c-4.36,1.7-5.87,3.85-7.82,7.73l1.9,3.81.78,1.12c.15.2,3.69,5.09,4.56,10.16a48.52,48.52,0,0,0,2.91,8.42c1.11-.3,2.28-.66,3.57-1.09,7.11-2.36,13.84-4.59,19.73-8.62.73-1.77,1.57-3.73,2.46-5.83,2.79-6.56,6.27-14.72,9.07-22.55,4.82-13.47,13.33-34.91,16.5-42.23C266.72,180.65,265.24,179.17,264.53,178.46Z"/><path class="cls-4" d="M139.28,92.58a2.6,2.6,0,0,0-.37,1.33,2.69,2.69,0,0,0,5.38,0,2.66,2.66,0,0,0-.47-1.52c5.78-.22,10.87-.35,14-.43-.95,10-5.45,15.52-15.47,19.57-11.29,4.56-23.26.33-27.34-6.48A26.38,26.38,0,0,1,111.36,95C117.91,93.76,129.13,93,139.28,92.58Z"/><path class="cls-9" d="M149,147a1.25,1.25,0,0,0,1.75.22c.05,0,4.37-3.35,13.13-4.2l1.53-.14c8.23-.8,13.2-1.28,17.51-1.07a13.14,13.14,0,0,1,6.44,1.76,1.25,1.25,0,0,0,1.47-2,15.14,15.14,0,0,0-7.79-2.24c-4.49-.22-9.53.27-17.87,1.08l-1.53.15c-9.48.91-14.23,4.55-14.43,4.71A1.24,1.24,0,0,0,149,147Z"/><path class="cls-9" d="M177.31,121.56a5.16,5.16,0,0,0,3.46-1.14,5.48,5.48,0,0,0,2-5c-.39-3.35-3.59-7-8.35-9.43a1.27,1.27,0,0,0-1.69.54,1.24,1.24,0,0,0,.54,1.68c4,2.06,6.73,5,7,7.5a3,3,0,0,1-1.15,2.78c-2.2,1.88-8.4-1.29-11.79-3.73a1.25,1.25,0,0,0-1.46,2C166.73,117.41,172.66,121.56,177.31,121.56Z"/><path class="cls-9" d="M132.53,116a28.91,28.91,0,0,0,10.79-2.12c12.4-5,17.23-12.39,17.23-26.35,0-11.07-6.81-16.62-13.41-20.37l.52.06a1.25,1.25,0,1,0,.31-2.48c-1.72-.21-3.89-.35-6.43-.4h0a135.11,135.11,0,0,0-23.68,1.89,1.25,1.25,0,0,0,.2,2.48.71.71,0,0,0,.2,0,134.45,134.45,0,0,1,22.9-1.86l.34.18c7.38,3.74,16.57,8.39,16.57,20.52,0,.68,0,1.32-.05,2-9.06.22-35,.88-46.88,3a43.82,43.82,0,0,1,.09-4.91,1.25,1.25,0,1,0-2.49-.17c-.39,5.59-.14,11.76,4.17,19C116.19,111.82,123.76,116,132.53,116Zm6.75-23.39a2.6,2.6,0,0,0-.37,1.33,2.69,2.69,0,0,0,5.38,0,2.66,2.66,0,0,0-.47-1.52c5.78-.22,10.87-.35,14-.43-.95,10-5.45,15.52-15.47,19.57-11.29,4.56-23.26.33-27.34-6.48A26.38,26.38,0,0,1,111.36,95C117.91,93.76,129.13,93,139.28,92.58Z"/><path class="cls-9" d="M268.06,174.92a37.67,37.67,0,0,1-2.65-3.22c.1-1.86.32-6.19.49-9.09.05-.71.12-1.53.2-2.42.53-6,.71-10-1.63-12-3-2.47-7.55-1.15-10,1.62-.58.67-2.34,2.7-2.61,10.55a28.28,28.28,0,0,1-1.26,5.92,12.52,12.52,0,0,0-7.23,0,9.71,9.71,0,0,0-3.81,2.34,21.14,21.14,0,0,0-5.34,2.17c-4.79,2.77-3.38,12.47-2,16.46a10.35,10.35,0,0,0,3.3,5.08c-.15,1.37-.34,3.41-.47,5.59a11.5,11.5,0,0,0,2,7c-.68,1.59-1.83,4.32-2.76,6.52-1.06,2.5-3,7-4.57,10.61l-1.43,3.29a63.77,63.77,0,0,1-3.1,5.9c-.8-2.26-3.06-8.3-8.45-20.78a146.56,146.56,0,0,0-17.54-31.07l-.71-1a138.64,138.64,0,0,0-11.67-14.17c1-.9,2.34-2.17,4.06-3.88,4.47-4.48,11.19-12,17.82-25.87,6-12.65,4.61-28.08,4.07-32.27a26.53,26.53,0,0,0,4.76-14.59c0-8.37-2.33-14.89-7.13-20-3.6-3.79-9.47-6.33-12-7.31-.59-1.87-1.75-5.48-2.58-7.64A15.58,15.58,0,0,0,191.31,47c.28-2.27.63-6.62-.26-10-1.12-4.23-5.83-9.56-15.28-17.3-7.91-6.47-14.09-10.31-22.25-10.78C150.73,8.7,147,8.17,143,7.61c-7.06-1-14.36-2-18.86-1.45-4.26.54-8.65,2.27-13.3,4.09-3.12,1.22-6.34,2.48-9.76,3.5C92.1,16.39,73.12,30.08,69.51,35c-1.49,2-4.05,5.42-7,9.27-3.15,4.18-6.71,8.9-9.71,13-4.75,6.38-4.33,14.79-4,20.94a39.75,39.75,0,0,1,.06,5.16c-.1.9-.23,2-.37,3.12-.67,5.75-1.7,14.44-1.57,20s4.07,11,7.56,15.94c1.25,1.76,2.43,3.42,3.29,4.88,3.31,5.64,14.31,18,17.53,20.51,2.71,2.09,6.55,2.24,8.56,2.16,1.64,1.67,5.54,5.7,9.52,10.19a43.55,43.55,0,0,0,9.32,7.91c-1.82,3.05-5.15,8.67-7.6,13-2.94,5.13-2.47,11-2,16.66.17,2.1.34,4.26.34,6.35,0,7.61,6,28,6.89,31v33.68a85.12,85.12,0,0,0,22.54,9.42,36.94,36.94,0,0,0,9.42,1.3c3.91.18,9.81.44,22.3,2.12,3.84.52,6.95,1,9.45,1.36,7.93,1.2,9.54,1.4,13,.55a22.83,22.83,0,0,0,7.32-3.27,71.55,71.55,0,0,1,9.48-4.93c-.26-6.07-.79-18.54-.87-24.08,0-2.51-.07-5.31-.11-8,1.94,4,3.36,6.76,4.45,7.93a5.64,5.64,0,0,0,4.7,1.78,21.1,21.1,0,0,1,2.77,6.71c.51,3,2.58,8,3.9,11.06a59.53,59.53,0,0,0,8.3-2.21c9.18-3,17.85-5.91,25.1-12.75.3-.69.59-1.39.9-2.11,2.82-6.62,6.33-14.86,9.18-22.82,4.78-13.39,13.24-34.67,16.38-41.94C272.19,180.58,270.2,177.06,268.06,174.92Zm-57.49-79.1-.11.11a24.77,24.77,0,0,1-6,6.24l-.35.24c-3.85,2.71-9.13,6.42-20,2.44-7.49-2.76-10.66-7.5-11.71-14.08,5.83-1,13.41-1.75,20.6-2.32A2.51,2.51,0,0,0,193,89a2.69,2.69,0,0,0,5.38,0,2.72,2.72,0,0,0-.17-.91c5.92-.38,11.16-.58,14.36-.52A20.1,20.1,0,0,1,210.57,95.82ZM71,136.1a93.5,93.5,0,0,1-8.85-11.36c-1-1.65-2.21-3.4-3.52-5.25-3.07-4.32-6.56-9.23-6.65-13.15-.11-5.25.89-13.73,1.55-19.34.14-1.18.26-2.24.37-3.15a39.84,39.84,0,0,0,0-6c-.28-5.69-.63-12.77,3-17.71,3-4,6.55-8.75,9.69-12.92C69.46,43.39,72,40,73.53,38c2.74-3.71,20.82-17,28.92-19.41,3.63-1.07,7-2.38,10.16-3.64,4.35-1.7,8.47-3.32,12.11-3.78,3.84-.48,11.12.54,17.53,1.44,4.11.58,8,1.12,11,1.29,6.84.4,12.09,3.7,19.37,9.66,8.24,6.74,12.82,11.69,13.61,14.7a24.78,24.78,0,0,1,.14,8.13c-5.31-4-14.16-10.25-22.31-14-10.45-4.78-29.71-4.5-39.59-2.46-9.49,2-15.22,3.14-26.9,12.55-8.89,7.16-16.47,18.17-23.18,33.66C69.9,86.45,67,105.06,72.18,126.3a1.76,1.76,0,0,0,.09.2A14,14,0,0,0,71,136.1Zm5.71-59C83.21,62,90.55,51.3,99.12,44.4c11.21-9,16.4-10.1,25.84-12s28.07-2.27,38,2.28c8.51,3.89,17.86,10.64,22.9,14.49v0l.25.18c1.06.81,1.92,1.49,2.51,2l.05,0a9.94,9.94,0,0,1,2.48,3.16c.69,1.81,1.68,4.87,2.29,6.78l-.92-.31s-1.59-4.66-7.41-9.43c-7.41-6.07-13.59-8.33-18.3-10.22a63.36,63.36,0,0,0-23.74-5c-8.82,0-18.82,2.19-29.67,8.56C88,59.82,82.66,78.41,79.52,87.37,75.37,99.23,75.74,121,75.74,121a22.07,22.07,0,0,0-1.65,2.36C69.8,103.66,72.71,86.26,76.67,77.11Zm20.48,79.5c-3.71-4.19-7.34-8-9.22-9.89,1.29-.21,2.4-.42,2.48-.43a1.25,1.25,0,0,0-.45-2.46s-3.52.65-5.22.8l-.1,0h-.1a12.43,12.43,0,0,1-1.46.08,8.2,8.2,0,0,1-4.7-1.13c-.09-.07-8.87-7.2-3.57-16.59a31.28,31.28,0,0,1,2.81-4.37l.42-.49a10.31,10.31,0,0,1,4.82-1.45,1.24,1.24,0,0,0,1.2-1.29,1.26,1.26,0,0,0-1.29-1.21,14,14,0,0,0-4.54,1c0-5.31.35-21.62,3.65-31,.16-.46.32-.94.5-1.44,3.12-9.09,8.93-26,32.33-39.75,9.28-5.45,18.84-8.21,28.4-8.21a60.87,60.87,0,0,1,22.81,4.82l.87.35a57,57,0,0,1,16.77,9.49,23.85,23.85,0,0,1,6.18,7.32,88,88,0,0,0-14,1.72A1.25,1.25,0,0,0,176,65a1,1,0,0,0,.24,0c6.86-1.34,12.84-1.83,15.21-1.63a.8.8,0,0,0,.27,0l.12,0a66.34,66.34,0,0,1,11.42,4.91,18.88,18.88,0,0,1,3.6,2.84c3.45,3.63,5.27,8.12,5.66,14a310.42,310.42,0,0,0-40.31,3.21A56.77,56.77,0,0,1,172.1,81a1.25,1.25,0,1,0-2.5-.12c-.59,12.57,1.52,21.86,13.71,26.35a27.72,27.72,0,0,0,9.59,1.9c6,0,9.85-2.67,12.66-4.64l.34-.25a21.2,21.2,0,0,0,1.93-1.52,69.32,69.32,0,0,1,.5,8.37c0,6.08-.81,14.13-4.1,21-6.3,13.16-12.63,20.28-16.85,24.5a75.11,75.11,0,0,1-5.58,5.18c-1.19.7-10,5.79-17.34,7.29a115.34,115.34,0,0,1-23,1.94c-3,0-6.29-.07-9.94-.21-10.14-.41-23.23-5.68-24.29-6.12A36.88,36.88,0,0,1,97.15,156.61ZM123.5,275.74a78.28,78.28,0,0,1-18.15-7.09V241.71c3.14,7.88,6.85,16.79,6.9,16.91l.07.13h0a7.08,7.08,0,0,0,3.94,3,16.21,16.21,0,0,0,4.42.61h.2c2.75,7.08,4.44,11.39,5.54,14C125.59,276.24,124.65,276,123.5,275.74ZM115,258.13c1.1-1.44,2-2.63,2.86-3.62.74,1.92,1.43,3.71,2.07,5.35a12.77,12.77,0,0,1-2.92-.48A4.6,4.6,0,0,1,115,258.13Zm38.45,20.77c-11.55-1.51-17.21-1.77-21-1.94-1.22,0-2.19-.1-3.11-.17-1.52-3.66-5-12.52-9.6-24.37,2.22-2.27,3.75-2.93,6.54-4.14l.26-.11A57.33,57.33,0,0,1,137,245.35a60.44,60.44,0,0,0,2.54,8c1.34,3.2,2.51,5.95,2.81,6.65l-4.31,6,2,1.46s10.59-14.73,16.44-22.81,10.74-15.76,10.78-15.84l.84-1.32-1.47-.53a17.08,17.08,0,0,1-6.36-5c-3.32-3.87-3.37-7.88-2.36-9.37a4.71,4.71,0,0,1,1.53-1.45.13.13,0,0,1,0,.06c.41,3.91,3.92,5.48,6.25,6.52a3.25,3.25,0,0,0,1.31.29,2.76,2.76,0,0,0,1.33-.34c1.39-.75,2.36-2.74,2.86-5.9.57-3.54-2.69-5.71-2.83-5.8a1.25,1.25,0,0,0-1.37,2.09,4.87,4.87,0,0,1,1.48,1.74,17.32,17.32,0,0,0-2.95.2,1.25,1.25,0,0,0,.23,2.47,1,1,0,0,0,.24,0,16.17,16.17,0,0,1,2.56-.15c-.4,1.87-1,2.93-1.41,3.17-.06,0-.15.09-.43,0-2.48-1.1-4.55-2.2-4.79-4.49-.28-2.67,1.08-7.18,3.18-8.75a5.59,5.59,0,0,1,6.76.21,16.65,16.65,0,0,1,3.49,3.68,1.25,1.25,0,0,0,2.11-1.34,16.73,16.73,0,0,0-1.44-1.85c.29-1.44.57-2.9.84-4.34,1.17-6.16,2.38-12.54,4.33-15.09,1.51-2,2.79-2.42,3.28-2.39a73.3,73.3,0,0,1-1.79,11.67,115.66,115.66,0,0,0-1.65,13.44,1.24,1.24,0,0,0,1.16,1.33h.08a1.25,1.25,0,0,0,1.25-1.17s.06-.86.17-2.14a11.76,11.76,0,0,0,1.12,1.48,30.49,30.49,0,0,0,2.55,2.2,1.29,1.29,0,0,0,.76.26A1.25,1.25,0,0,0,189,206a25.17,25.17,0,0,1-2.27-2,7.52,7.52,0,0,1-.67-.87c2.41,1.15,5.29,3,6.12,5.05,1.41,3.53.84,7.8-1.73,13.06a49.87,49.87,0,0,1-8.24,11.7c-1.93,2.09-4,5.54-6.92,10.32-1.25,2.08-2.65,4.38-4.22,6.89C166.82,256.85,156.8,273.35,153.43,278.9Zm19.38-78.84a4.68,4.68,0,0,1,1.42-.69l-.3,1.51c-.16-.14-.31-.27-.48-.4S173,200.2,172.81,200.06Zm10.31,78a20.41,20.41,0,0,1-6.63,3c-2.94.72-4.12.61-12.08-.59-2.24-.34-5-.75-8.27-1.2,3.8-6.28,13-21.45,17-27.78,1.59-2.52,3-4.84,4.25-6.92,2.71-4.48,4.86-8,6.61-9.92,1.36-1.48,2.61-3,3.75-4.46l0,2.51s.13,10.69.24,18.58c.07,5.29.54,16.43.85,23.59C186.46,276.08,184.64,277.17,183.12,278.08ZM201,247.76c-.08-.09-.18-.23-.29-.38l.41-.83.71,1.4A.86.86,0,0,1,201,247.76Zm-1.65-3.28-.13.26c-1-1.93-2.13-4.32-2.9-5.93-.88-1.86-1.65-3.47-2.17-4.43a19.87,19.87,0,0,0-2-3.36l-2.76-3.12a45.69,45.69,0,0,0,3.25-5.55c2.9-5.93,3.49-10.86,1.82-15.08-1.76-4.43-8.91-7.11-10.26-7.58.25-2.14.58-4.45,1-6.37.75-3.58,2.1-10.86,1.78-12.76a2.23,2.23,0,0,0-1.75-1.83c-1.4-.35-3.69.32-5.95,3.27s-3.35,8.53-4.54,14.74a7.13,7.13,0,0,0-4.48,2.23,7.82,7.82,0,0,0-6.59,1.28c-2.2,1.64-3.66,5.11-4.08,8.21a6.87,6.87,0,0,0-3.69,2.79c-1.73,2.56-1.44,7.77,2.53,12.4a22.17,22.17,0,0,0,6,5c-1.59,2.46-5.51,8.42-9.93,14.53-2.93,4-7,9.75-10.43,14.45-.54-1.26-1.34-3.15-2.21-5.24-.42-1-.8-2.09-1.14-3.13,0,0,.05-.07.06-.1s.46-1.4.89-2.46c.53-1.33.19-3.92.07-4.68l-.09-.33c0-.09-4-8.84-7.4-18.67s-3.94-14.58-3.94-14.62a1.25,1.25,0,0,0-2.49.28c0,.2.61,5.14,4.06,15.15,3.06,8.87,6.58,16.86,7.34,18.55-2.41.39-9.52,1.65-13.71,3.46l-.26.11c-4.51,1.94-6.1,2.64-11.53,9.66-1.76-4.25-5.92-14.33-8.38-20.82v-.51l-.1-.35c-1.89-6.27-6.79-23.87-6.79-29.95,0-2.29-.18-4.56-.36-6.75-.41-5.14-.8-10,1.37-13.78,3.5-6.13,8.81-15,8.86-15.07l.32-.53c4.52,1.69,14.47,5,22.76,5.37,3.14.13,6.53.22,10,.22a120.16,120.16,0,0,0,23.51-2c5.81-1.2,12.42-4.46,15.87-6.33l.62.63a134.6,134.6,0,0,1,13,15.45l.71,1a142.86,142.86,0,0,1,17,30.17c4.59,10.62,6.88,16.52,7.91,19.31a32.17,32.17,0,0,0-10.66,1.94C203.51,236,202,239.17,199.36,244.48ZM264,186.92c-3.17,7.32-11.68,28.76-16.5,42.23-2.8,7.83-6.28,16-9.07,22.55-.89,2.1-1.73,4.06-2.46,5.83-5.89,4-12.62,6.26-19.73,8.62-1.29.43-2.46.79-3.57,1.09a48.52,48.52,0,0,1-2.91-8.42c-.87-5.07-4.41-10-4.56-10.16l-.78-1.12-1.9-3.81c1.95-3.88,3.46-6,7.82-7.73a30.45,30.45,0,0,1,10.57-1.77l1.38,6.92c-2.4,5.88-4.91,12.72-5.06,13.11a1.25,1.25,0,0,0,.75,1.6,1.09,1.09,0,0,0,.43.08,1.23,1.23,0,0,0,1.17-.82c0-.1,2.74-7.46,5.21-13.47l1.52-2.46a133.09,133.09,0,0,0,6.61-11.88l1.43-3.3c1.59-3.67,3.52-8.14,4.58-10.64l3.33-7.85.65-1.53-1.15-1.19a6.85,6.85,0,0,1-1.67-4.56c.17-2.88.47-5.57.6-6.58l.13-.17c.81-1.37,2.71-4.7,2.83-6,.17-1.7-.78-3.22-3.62-5.83a1.25,1.25,0,0,0-1.69,1.85c.7.64,1.22,1.16,1.62,1.6a8,8,0,0,0-1.17.23,1.25,1.25,0,0,0,.79,2.37,12.37,12.37,0,0,1,1.51-.21,27.75,27.75,0,0,1-1.45,2.95l-.95-.06c-.23-.14-1-.74-1.7-2.79-1.48-4.29-1.21-9.76-.22-10.5a15.55,15.55,0,0,1,2.63-1.21c4,1.43,6.78,4.46,7,5.56a1.25,1.25,0,0,0,1.22,1,1.07,1.07,0,0,0,.25,0,1.25,1.25,0,0,0,1-1.48c-.38-1.84-2.89-4.49-6.16-6.29l.21-.25a4.66,4.66,0,0,1,2-1.38,6.59,6.59,0,0,1,1.28-.25,14.14,14.14,0,0,1,5.38,4.65,26.22,26.22,0,0,1,2.22,3.72,1.25,1.25,0,0,0,1.13.72,1.4,1.4,0,0,0,.53-.11,1.26,1.26,0,0,0,.61-1.66,28.63,28.63,0,0,0-2.45-4.12,18.42,18.42,0,0,0-1.63-2,3.86,3.86,0,0,0,1.2-.26l1-.43.38-1c.22-.63,2.17-6.21,2.29-9.72.2-5.91,1.27-7.31,1.39-7.45.78-.9,2.28-1.39,2.87-1.11.53,1.22.14,5.61-.05,7.75-.08.95-.16,1.83-.21,2.58-.15,2.6-.35,6.34-.46,8.44-.17.81-.38,1.65-.57,2.45-.64,2.63-1,4.16-.81,5.15a1.24,1.24,0,0,0,1.22,1l.23,0a1.27,1.27,0,0,0,1-1.45,10,10,0,0,1,.4-2.53,34.84,34.84,0,0,0,2.6,3.08C265.24,179.17,266.72,180.65,264,186.92Z"/><path class="cls-4" d="M42.57,85.71h0l6.21-8.85c-.28-6-.35-13.71,4.08-19.67,3-4.05,6.56-8.77,9.71-13C65.46,40.4,68,37,69.51,35,73.12,30.08,92.1,16.39,101,13.75c3.42-1,6.64-2.28,9.76-3.5,4.65-1.82,9-3.55,13.3-4.09a24.88,24.88,0,0,1,3-.16A126.46,126.46,0,0,1,143,7.61c4,.56,7.78,1.09,10.57,1.25,8.16.47,14.34,4.31,22.25,10.78a87.51,87.51,0,0,1,11.45,10.77l7.2-.36c-2.68-4.21-7.37-8.93-14.85-15-8.64-7.07-16-11.57-25.71-12.13-2.53-.15-6.19-.66-10.06-1.2A131.71,131.71,0,0,0,127.08,0a30.14,30.14,0,0,0-3.74.21c-5,.63-9.74,2.49-14.75,4.45-3,1.18-6.09,2.4-9.26,3.34C88.87,11.09,69,25.57,64.68,31.43c-1.47,2-4,5.32-6.89,9.18l-.12.15C54.56,44.9,51,49.59,48,53.62c-6,8.11-5.53,18.16-5.19,24.81a37.57,37.57,0,0,1,.08,4.21Z"/></svg>