<?xml version="1.0" encoding="utf-8"?>
<!-- Generator: Adobe Illustrator 23.0.5, SVG Export Plug-In . SVG Version: 6.00 Build 0)  -->
<svg version="1.1" id="Capa_1" xmlns="http://www.w3.org/2000/svg" xmlns:xlink="http://www.w3.org/1999/xlink" x="0px" y="0px"
	 viewBox="0 0 7327.7 7327.7" style="enable-background:new 0 0 7327.7 7327.7;" xml:space="preserve">
<style type="text/css">
	.st0{fill:#FFFFFF;}
</style>
<g>
	<path class="st0" d="M5119.7,2289.7c-1137.8-654.2-2716.4-85.3-3584,711.1s-440.9,2147.6-440.9,2147.6s1280,327.1,3072,85.3
		s2432-938.7,2432-938.7S6257.5,2944,5119.7,2289.7z M2636.6,4932.4c-537.3,0-972.9-435.6-972.9-972.9
		c0-407.1,250.1-755.8,605-900.9c149.8,406.5,573.5,699.6,1072.7,699.6c83,0,164-8.1,241.9-23.5c17.1,72.2,26.1,147.4,26.1,224.8
		C3609.5,4496.8,3173.9,4932.4,2636.6,4932.4z M5027.3,4309.3c-404.5,0-732.4-327.9-732.4-732.4s327.9-732.4,732.4-732.4
		s732.4,327.9,732.4,732.4S5431.8,4309.3,5027.3,4309.3z"/>
	<path class="st0" d="M5909,2810.5c175,199.3,332.6,427.3,468.4,677.7c46.4,85.5,86.9,167.7,121.8,243.7l416.6-293.6
		c0,0-16.9-272.5-316.9-646.7c-430.7-537.3-696.4-537.3-696.4-537.3l-255.5,291C5738.1,2626.9,5825.6,2715.5,5909,2810.5z"/>
	<path class="st0" d="M5334.4,5084.2c-97.8,31.1-198.5,60.2-301.9,87.1c-330.5,104.1-738,189.1-1238.1,233.1
		c-628.4,55.3-1098.2,47.6-1448,9.8c-133.9-6.9-266.6-16.5-397.3-28.9c-230.7-21.9-421-49.2-557.8-72.1
		c97.6,548.8,670.7,1623.1,2740.6,1474.3c2023-145.5,2245.8-1600.9,2249.3-2186.9c-76.1,50.7-168.1,106.7-277.3,164.9
		C5875.2,4887.2,5616.4,4994.4,5334.4,5084.2z"/>
	<path class="st0" d="M3201.4,2000.4c349.3-86.6,688.7-117.3,1008.8-91.2c86.3,7,170.8,18.2,253.4,33.4l123.3-250.2
		c0,0-215.5-124.7-765.1-121.1l-119.4-317.3c166.1-35.5,290.7-183.1,290.7-359.9c0-203.2-164.8-368-368-368s-368,164.8-368,368
		c0,168.1,112.7,309.9,266.7,353.9v337.2c-643,60.3-887.2,333.7-887.2,333.7l106.6,225.9C2895,2086.7,3049,2038.1,3201.4,2000.4z"/>
	<path class="st0" d="M886,4372.9c1.1-265.3,40.3-512.3,116.5-734.3c82.7-240.6,209-451.7,376.3-629l-223-165.2
		c0,0-234.7,124.4-533.3,615.1s-192,849.8-192,849.8l456.2,136.4C886.1,4421.8,885.9,4397.5,886,4372.9z"/>
</g>
</svg>
