<svg id="Capa_1" data-name="Capa 1" xmlns="http://www.w3.org/2000/svg" xmlns:xlink="http://www.w3.org/1999/xlink" viewBox="0 0 1310.6 1583.11"><defs><style>.cls-1,.cls-12,.cls-13,.cls-14,.cls-17,.cls-18,.cls-19,.cls-2,.cls-3,.cls-4,.cls-7,.cls-8,.cls-9{stroke:#0b090b;}.cls-1,.cls-10,.cls-12,.cls-13,.cls-14,.cls-15,.cls-17,.cls-18,.cls-19,.cls-2,.cls-3,.cls-4,.cls-7,.cls-8,.cls-9{stroke-miterlimit:10;stroke-width:7px;}.cls-1{fill:url(#Degradado_sin_nombre_17);}.cls-2,.cls-6{fill:#8aa6ad;}.cls-3{fill:url(#Degradado_sin_nombre_59);}.cls-4{fill:#ffc49d;}.cls-5{fill:#0b090b;}.cls-7{fill:url(#Degradado_sin_nombre_35);}.cls-8{fill:url(#Degradado_sin_nombre_35-2);}.cls-9{fill:#70939b;}.cls-10,.cls-14{fill:#082930;}.cls-10,.cls-15{stroke:#000;}.cls-11{fill:#4d5459;}.cls-12,.cls-15{fill:none;}.cls-13{fill:url(#Degradado_sin_nombre_30);}.cls-16{fill:url(#Degradado_sin_nombre_30-2);}.cls-17{fill:#f7f7f7;}.cls-18{fill:#823526;}.cls-19{fill:#cc3232;}.cls-20{fill:url(#Degradado_sin_nombre_30-3);}</style><linearGradient id="Degradado_sin_nombre_17" x1="2935.81" y1="825.27" x2="3601.22" y2="825.27" gradientUnits="userSpaceOnUse"><stop offset="0" stop-color="#7c491f"/><stop offset="1" stop-color="#542614"/></linearGradient><linearGradient id="Degradado_sin_nombre_59" x1="2787.63" y1="1495.92" x2="3669.1" y2="1495.92" gradientUnits="userSpaceOnUse"><stop offset="0" stop-color="#8aa6ad"/><stop offset="1" stop-color="#5f8287"/></linearGradient><linearGradient id="Degradado_sin_nombre_35" x1="3107.56" y1="1431.56" x2="3188.74" y2="1431.56" gradientUnits="userSpaceOnUse"><stop offset="0" stop-color="#962929"/><stop offset="1" stop-color="#561010"/></linearGradient><linearGradient id="Degradado_sin_nombre_35-2" x1="3117.85" y1="1301.68" x2="3218.76" y2="1301.68" xlink:href="#Degradado_sin_nombre_35"/><linearGradient id="Degradado_sin_nombre_30" x1="2911.07" y1="990.27" x2="3539.03" y2="990.27" gradientUnits="userSpaceOnUse"><stop offset="0" stop-color="#ffc49d"/><stop offset="1" stop-color="#e89567"/></linearGradient><linearGradient id="Degradado_sin_nombre_30-2" x1="2491.15" y1="1507.65" x2="2834.37" y2="1507.65" xlink:href="#Degradado_sin_nombre_30"/><linearGradient id="Degradado_sin_nombre_30-3" x1="3572.72" y1="1959.73" x2="3793.14" y2="1959.73" xlink:href="#Degradado_sin_nombre_30"/></defs><title>morty2</title><path class="cls-1" d="M2939.23,869c-4.12-41.41-8.86-98.3,14.25-130.9s19-44.44,30.22-61,39.71-31.41,53.93-52.15,72.3-52.15,125-62.82,111.4-14.81,154.07,10.08,86.15,20.74,135.7,53.85,41.34,45.56,68,68.22,52.89,72.45,60,117.34,7.56,93.33,13.78,114.22,16,48.44-10.66,84.44-13.34,72.45-44.53,86.08S2939.23,869,2939.23,869Z" transform="translate(-2486.64 -550.18)"/><path class="cls-2" d="M2768.54,1610.34c14.41,11.14,57.4,46.7,62.57,78s-2.38,41.72-5.05,44.3c0,0-73.17,12.29-74.5-55.71" transform="translate(-2486.64 -550.18)"/><path class="cls-3" d="M3659.85,1654.22c-22.52-5.92,2.37-35-7.11-45.63s-26.07-3-36.15-19.55-15.26-70.37-33-103.26S3504.89,1380,3456,1330.22s-78.22-71.55-103.11-71.55l-.76,6.17-278.94-26-33.89,16.91s-14.41,11.39-49.08,49.17-77.78,106.22-93.78,124.89-36.22,47.78-36.22,47.78-26.44-.45-32.89,8.88,1.56,28.89-1.11,33.78-26.07.08-33.33,9.85-4.89,24.45-4.89,24.45,36.3,3.41,72.44,39.85,31.71,61.33,31.71,61.33,8.89-16.29,27-16.59,42.08,1.78,49.19-6.22,2.07-24.59,7.11-31.11,69-70.22,69-70.22l329.78,209.77s-1.78-90.66,0-144c.85-25.42,3.11-50.24,5.25-69.25,46.66,65.24,106.31,144.36,106.31,144.36s-8,21.12,6.22,40.45,32.89,8.44,32.89,8.44-19.11,19.26-7.85,28.74,60.29-5.4,102.52-22.74S3682.37,1660.15,3659.85,1654.22Z" transform="translate(-2486.64 -550.18)"/><path class="cls-4" d="M2911.51,1024s-22.62,24-14.18,59.07,30.75,35.23,30.75,35.23" transform="translate(-2486.64 -550.18)"/><path class="cls-5" d="M3352.89,1255.17c8.73.08,17.11,2.57,24.68,6a132.23,132.23,0,0,1,21.24,12.69l4.94,3.63,4.8,3.78c1.61,1.25,3.17,2.55,4.72,3.86l4.66,3.92c6.1,5.34,12.1,10.77,17.94,16.36,23.35,22.31,45.48,45.77,66.83,69.91s42.05,48.85,61.34,74.78c2.45,3.21,4.75,6.55,7.13,9.82s4.59,6.68,6.88,10a166.31,166.31,0,0,1,12.18,21.41c6.73,15.07,11,30.81,14.94,46.45l5.72,23.42c.47,1.94,1,3.86,1.49,5.78s1,3.83,1.6,5.72a97.8,97.8,0,0,0,3.83,10.94c.36.86.82,1.6,1.22,2.42.21.39.4.81.63,1.19l.72,1.11a21.17,21.17,0,0,0,3.4,3.88A21.93,21.93,0,0,0,3633,1597c3.59,1,7.6,1.52,11.85,2.85a24.84,24.84,0,0,1,6.32,2.89,19.87,19.87,0,0,1,2.86,2.24c.45.41.85.86,1.27,1.29a16.46,16.46,0,0,1,1.27,1.74,14.68,14.68,0,0,1,1.88,7.59,34.11,34.11,0,0,1-.75,6.67c-.85,4.19-2,8-2.93,11.82s-1.53,7.5-1,10.47a6.79,6.79,0,0,0,1.73,3.57,9.67,9.67,0,0,0,3.71,2.27l1.19.38,1.65.55a16.49,16.49,0,0,1,3.47,1.67,14.92,14.92,0,0,1,5.1,5.89,19.19,19.19,0,0,1,1.83,7.07l.08,1.74c0,.58,0,1.14-.05,1.71a28.19,28.19,0,0,1-.34,3.34,49,49,0,0,1-3.71,12.39,73.35,73.35,0,0,1-6.08,11.08,94.64,94.64,0,0,1-7.6,10,104,104,0,0,1-8.87,8.82,101.69,101.69,0,0,1-10,7.58,98.35,98.35,0,0,1-10.92,6.16c-3.87,1.77-7.57,3.24-11.33,4.74s-7.53,3-11.31,4.36q-11.36,4.25-22.92,8c-7.71,2.48-15.5,4.77-23.43,6.69a134.18,134.18,0,0,1-24.44,4,48.79,48.79,0,0,1-6.49-.13,24.39,24.39,0,0,1-6.87-1.53c-.6-.27-1.2-.57-1.79-.87s-1.18-.8-1.73-1.22a14.28,14.28,0,0,1-2.66-3,13.14,13.14,0,0,1-1.68-3.79,14.5,14.5,0,0,1-.4-4,20.66,20.66,0,0,1,1.53-7,37.35,37.35,0,0,1,3-5.93,60.38,60.38,0,0,1,3.67-5.28,62.59,62.59,0,0,1,4.21-4.87l4.25,5.49c-.57.32-.94.5-1.4.71s-.87.39-1.3.57c-.88.35-1.76.66-2.65.93a31,31,0,0,1-5.51,1.13,27,27,0,0,1-11.31-1.08,25.86,25.86,0,0,1-5.23-2.34c-.83-.46-1.6-1-2.38-1.54s-1.52-1.13-2.19-1.76a36.5,36.5,0,0,1-7-8.33,47.61,47.61,0,0,1-4.83-9.62,50.37,50.37,0,0,1-2.43-10.47,51.56,51.56,0,0,1,.68-16c.17-.88.38-1.75.61-2.63s.47-1.7.83-2.73v0l.48,3.35q-20.79-26.55-40.88-53.62t-39.84-54.39q-9.86-13.68-19.54-27.48c-6.46-9.21-12.94-18.4-19.24-27.71-3.18-4.64-6.24-9.37-9.3-14.09-1.52-2.36-3.09-4.7-4.57-7.09l-4.43-7.2c-3-4.77-5.8-9.66-8.55-14.59s-5.31-10-7.74-15.05c3.41,4.53,6.54,9.15,10,13.61,1.7,2.23,3.33,4.51,5,6.76l5.06,6.73c6.68,9,13.42,18,20,27l19.86,27.18,20,27.1,40,54.19q20,27.1,39.75,54.39l1.15,1.58-.67,1.76h0c-.19.54-.43,1.34-.61,2s-.37,1.47-.52,2.23a43.36,43.36,0,0,0-.67,4.57,45.71,45.71,0,0,0,.09,9.21,43.11,43.11,0,0,0,2.06,8.92,40.27,40.27,0,0,0,4.11,8.16c3.24,5.22,7.76,9.4,13.12,11.12a20.07,20.07,0,0,0,8.39.8,24.32,24.32,0,0,0,4.25-.88c.69-.21,1.38-.46,2.05-.72l1-.43c.3-.13.67-.33.83-.41l20.23-11.08-16,16.57a55.49,55.49,0,0,0-3.66,4.25,52.2,52.2,0,0,0-3.21,4.61,30.25,30.25,0,0,0-2.43,4.82,14.12,14.12,0,0,0-1.07,4.69,7.7,7.7,0,0,0,.2,2,5.79,5.79,0,0,0,.76,1.7,7.22,7.22,0,0,0,1.31,1.49c.26.16.49.33.73.51s.62.29.93.45a18.06,18.06,0,0,0,4.86,1,40.81,40.81,0,0,0,5.55.1,126.14,126.14,0,0,0,23.09-3.77c7.69-1.86,15.34-4.11,22.93-6.54s15.12-5.09,22.6-7.9c3.75-1.39,7.47-2.84,11.19-4.31s7.47-3,10.91-4.55a92.06,92.06,0,0,0,10.06-5.68,88.08,88.08,0,0,0,17.43-15.18,87.44,87.44,0,0,0,7-9.19,66.78,66.78,0,0,0,5.51-10,42.14,42.14,0,0,0,3.21-10.63c.52-3.53.42-7.13-.88-9.75a8.2,8.2,0,0,0-2.67-3.12,9.51,9.51,0,0,0-2-.91l-.53-.19-.26-.1-.42-.13-1.68-.53a16.74,16.74,0,0,1-6.42-4,14,14,0,0,1-3.51-7.08,24,24,0,0,1-.13-7,55.49,55.49,0,0,1,1.17-6.33c1-4,2.13-7.89,2.87-11.58a26.73,26.73,0,0,0,.62-5.28,7.82,7.82,0,0,0-.87-4c-.15-.25-.34-.45-.5-.7s-.54-.58-.84-.85a12.83,12.83,0,0,0-1.88-1.47,18.1,18.1,0,0,0-4.62-2.09c-3.42-1.09-7.42-1.63-11.58-2.76a35.24,35.24,0,0,1-6.27-2.31,25.77,25.77,0,0,1-5.78-3.85,28.66,28.66,0,0,1-4.53-5.16l-.92-1.42c-.29-.48-.52-1-.79-1.47-.49-1-1.06-2-1.49-3a103.2,103.2,0,0,1-4.14-11.81c-.58-2-1.15-3.93-1.65-5.89s-1-3.93-1.52-5.88l-5.72-23.43c-3.88-15.51-8.12-30.93-14.53-45.25a157.71,157.71,0,0,0-11.65-20.45c-2.24-3.29-4.44-6.6-6.75-9.85s-4.61-6.52-7-9.7c-19.09-25.66-39.74-50.27-61-74.3s-43.27-47.37-66.41-69.48c-5.78-5.53-11.7-10.88-17.7-16.13l-4.56-3.84c-1.52-1.29-3-2.56-4.61-3.77l-4.67-3.68-4.78-3.51a125.49,125.49,0,0,0-20.07-12c-7-3.22-14.38-5.34-21.77-5.42Z" transform="translate(-2486.64 -550.18)"/><path class="cls-6" d="M2856.89,1544.44c20,14.67,34.67,12,59.55,29.78" transform="translate(-2486.64 -550.18)"/><path class="cls-5" d="M2856.89,1544.44c5.36,2.12,10.39,4.18,15.54,5.92s10.37,3.32,15.65,5.28a79.77,79.77,0,0,1,15.38,7.43,57.2,57.2,0,0,1,13,11.15c-5.4-2-10.42-4.25-15.5-6.26s-10.12-3.85-15.3-5.76a107,107,0,0,1-15.48-6.85A46.94,46.94,0,0,1,2856.89,1544.44Z" transform="translate(-2486.64 -550.18)"/><path class="cls-7" d="M3127.51,1398.15c-10.47,25-20,87.18-20,87.18l81.18,7.71s-1.18-32.6-4.15-58.08-7.11-36.81-7.11-36.81l-24.89-28.08Z" transform="translate(-2486.64 -550.18)"/><path class="cls-8" d="M3117.85,1328.44c4.52,28.3,2.74,61.49,6.89,67.12s9.48,3.85,27.26,4.44,27.26-1.78,28.44-4.44,5.34-23.41,8.3-34.67,9-32.45,9-32.45l21-108.59-97.57-16.59Z" transform="translate(-2486.64 -550.18)"/><path class="cls-9" d="M3146.44,1290.22c34,21.11,60.45,42.67,74.23,66.22s25.55,48.23,25.55,48.23,24.22-22,45.56-59.78,27.78-83.56,27.78-83.56Z" transform="translate(-2486.64 -550.18)"/><path class="cls-9" d="M3071.11,1261.33s-6.07,33.11,2.08,71.67,22.81,62.56,22.81,62.56,12-51.12,26.22-75.56,39.56-56,39.56-56Z" transform="translate(-2486.64 -550.18)"/><path class="cls-10" d="M3016,2040.59h380.33c-1.35-33.38-3.27-63.51-5.51-85.33-5.33-52.15-9.7-241-9.7-249.93s-7.63-28.88-22-53.77-27.11-41.34-39.55-61.34-25.78-47.11-25.78-65.78,20.44-97.77,35.11-149.33,45.33-129.78,45.33-129.78l-27.55,11.11s-18,24-40.45,80.89S3258.67,1476,3258.67,1476s-33.78,9.33-96.89,6.22-94.67-15.11-94.67-15.11-.89-66.22,1.83-112.44,16.87-97.78,16.87-97.78l-12.62-18.08a189,189,0,0,0-24.75,49.19c-9.77,29.33-12.59,82.37-16.14,134.52s-4.15,85.92-5.93,145.78-8.59,98.37-11.26,141-3.55,134.23,0,189.34C3017.4,1934.1,3016.75,1974.33,3016,2040.59Z" transform="translate(-2486.64 -550.18)"/><path class="cls-11" d="M3392.79,2040.59l-6.35-158.84c-27.33-27.53-41.55-23.08-57.55-12.42s-42.67,29.34-42.67,58.67,9.78,44.46,0,64.45c-8.41,17.21-31.95,30.14-41.19,48.14Z" transform="translate(-2486.64 -550.18)"/><path class="cls-12" d="M3016.09,2040.59h380.23c-1.35-33.38-3.27-63.51-5.51-85.33-5.33-52.15-9.7-241-9.7-249.93s-7.63-28.88-22-53.77-27.11-41.34-39.55-61.34-25.78-47.11-25.78-65.78,20.44-97.77,35.11-149.33,45.33-129.78,45.33-129.78l-27.55,11.11s-18,24-40.45,80.89S3258.67,1476,3258.67,1476s-33.78,9.33-96.89,6.22-94.67-15.11-94.67-15.11-.89-66.22,1.83-112.44,16.87-97.78,16.87-97.78l-12.62-18.08a189,189,0,0,0-24.75,49.19c-9.77,29.33-12.59,82.37-16.14,134.52s-4.15,85.92-5.93,145.78-8.59,98.37-11.26,141-3.55,134.23,0,189.34C3017.29,1932.39,3016.8,1975.76,3016.09,2040.59Z" transform="translate(-2486.64 -550.18)"/><path class="cls-13" d="M3523,1056.4c5.67-40.9,4.6-88-4.29-122.18-14.23-54.66-40.15-120-97.93-174.22s-158.52-72.59-202.37-75.85-48.89,10.07-103.11,19.26-100.74,54.22-147,116.44-58.08,133.48-57.19,191.26,13.33,101.78,25.78,130.67,30.22,56.44,86.22,101.78S3128,1295.11,3192,1296.89c0,0,51.26-.59,90.37-6.52s93-20.15,131-50.37c26.8-21.35,51.22-51.58,70.77-82.53,20.09-2.8,46.94-13.52,53.68-49.91C3542.25,1083.4,3534.19,1067.18,3523,1056.4Z" transform="translate(-2486.64 -550.18)"/><path class="cls-5" d="M3482.67,1036.44a40.64,40.64,0,0,1,13.11,1,55.73,55.73,0,0,1,12.41,4.39,69.85,69.85,0,0,1,21.39,16,55.65,55.65,0,0,1,7.79,11.24,56.52,56.52,0,0,1,4.65,12.94,68.49,68.49,0,0,1,0,27,76.86,76.86,0,0,1-3.7,12.94,59.58,59.58,0,0,1-6.2,12.13l-2,2.81c-.7.91-1.45,1.77-2.17,2.66a30.77,30.77,0,0,1-2.31,2.54,32.49,32.49,0,0,1-2.44,2.4,57.32,57.32,0,0,1-11.08,7.93,68.32,68.32,0,0,1-12.36,5.33,83.76,83.76,0,0,1-13,3,53.16,53.16,0,0,1-13.15.44,37.69,37.69,0,0,1-12.77-3.28c4.37-.9,8.51-1.55,12.62-2.18s8.15-1.23,12.15-1.95a77.36,77.36,0,0,0,11.72-3.08,61.67,61.67,0,0,0,10.8-5.09,50.72,50.72,0,0,0,16.74-16.19,63.5,63.5,0,0,0,8.42-22,62.57,62.57,0,0,0,.34-23.57,52.09,52.09,0,0,0-3.68-11,48,48,0,0,0-6.34-9.82A63,63,0,0,0,3505,1048C3497.83,1044,3490.44,1040.56,3482.67,1036.44Z" transform="translate(-2486.64 -550.18)"/><path class="cls-14" d="M3068.94,1539.26l-6.42,74.07s42.07,22.52,96.59,21.93,96.59-14.82,96.59-14.82V1541s-48.59,2.66-96.59,3.4A654.69,654.69,0,0,1,3068.94,1539.26Z" transform="translate(-2486.64 -550.18)"/><path class="cls-11" d="M3187.56,1853.33c-7.41,33.54-20.45,58.67,8,63.11s77.33-25.77,80-63.11-1.78-79.11-32-80.89-56,16.89-55.12,37.34S3191.18,1836.91,3187.56,1853.33Z" transform="translate(-2486.64 -550.18)"/><path class="cls-11" d="M3196.44,1968c-2.64,9.2-6.62,27.56,9.14,24s24.64-16,15.75-30.22S3198.71,1960.1,3196.44,1968Z" transform="translate(-2486.64 -550.18)"/><path class="cls-15" d="M2571.12,1360.5c-25.34-10-40.45-10.28-61.79-16.2s-21.33-15.71-13-20.15,15.4-2.08,24.89-2.08,40.29.6,58.66,3.26,39,7.41,52.82,8.6,17.77,29,17.77,29l-27.92,11.85Z" transform="translate(-2486.64 -550.18)"/><path class="cls-16" d="M2775.41,1588.44l-11.9,9.15L2752.89,1572c-24.27-58.48-18.22-45.33-32.89-80-4.84-11.45-12.6-33.38-20.81-57.61a104.19,104.19,0,0,0,3-30c-1.18-27.25-5-27-7.11-39.7s-.73-23.2-4.58-30.61-21.79-18.57-27.42-24.5-25.48.59-28.74,10.07c-1,3-1.55,8.18-1.67,14.23h0c-13.85-1.19-34.45-5.93-52.82-8.6s-49.18-3.26-58.66-3.26-16.6-2.37-24.89,2.08-8.3,14.22,13,20.15,36.45,6.22,61.79,16.2h0c-1.55,1.2-3.09,2.51-4.6,3.94-12.15,11.56-3.26,22.23,9.39,29.84-3.66,3.55-6.62,7.48-7.17,11.65-1.08,8.17,1.67,14.9,10.84,20.12h0c-8.2,9.62-7.09,21.53,10.05,29.36,12.36,5.65,28.12,8.15,40.5,9.25,2.19,3.49,7.42,11.8,8.09,12.67,4.45,5.78,10.67,13.93,23.11,53.63s42.08,160,67.56,173,57.48-9.48,65.78-20.74,39.7-35.26,39.7-35.26Z" transform="translate(-2486.64 -550.18)"/><path class="cls-5" d="M2775.41,1588.44c-2,1.91-3.89,3.72-5.68,5.48-.89.89-1.77,1.72-2.64,2.55l-2.56,2.45-1.48,1.41-1.09-2.1c-6.74-13-12.81-26.34-18.49-39.83s-11.2-27.06-16.68-40.59c-2.76-6.74-5.6-13.46-8.46-20.18-1.43-3.33-2.9-6.77-4.25-10.21s-2.68-6.87-4-10.31c-5.12-13.77-9.93-27.6-14.69-41.45l-.37-1.09.28-1.15a99.71,99.71,0,0,0,2.91-22.23c0-1.87,0-3.74-.06-5.61s-.2-3.81-.3-5.71c-.28-3.81-.61-7.6-1.16-11.29a65.47,65.47,0,0,0-2.47-10.73c-.56-1.79-1.22-3.67-1.79-5.68a61.54,61.54,0,0,1-1.4-6.12,117.8,117.8,0,0,1-1.39-12c-.29-3.93-.49-7.78-1-11.28a26,26,0,0,0-1.2-4.84,7.12,7.12,0,0,0-.43-1.06,8.49,8.49,0,0,0-.46-.95,12,12,0,0,0-1.26-1.75,60.42,60.42,0,0,0-7.93-7.36c-2.94-2.39-6-4.72-9.13-7.12-1.56-1.21-3.12-2.43-4.7-3.75-.78-.65-1.57-1.34-2.38-2.09-.4-.37-.8-.77-1.21-1.19a1.62,1.62,0,0,0-.29-.23,6.92,6.92,0,0,0-3.33-.68,19.92,19.92,0,0,0-4.72.61,26.7,26.7,0,0,0-9,4.09,13.83,13.83,0,0,0-3.17,3,6.4,6.4,0,0,0-.84,1.54,15,15,0,0,0-.56,2.13,69.39,69.39,0,0,0-.9,10.87l-.11,4.74-4.7-.44c-10.08-.94-19.73-2.82-29.36-4.54-4.81-.87-9.6-1.74-14.38-2.55s-9.55-1.57-14.26-2.1c-9.51-1.06-19.22-1.6-28.91-2q-7.28-.3-14.56-.43l-7.27-.1c-2.31,0-5.09,0-7.58-.2-5.05-.33-9.54-.85-13.27.1a16.65,16.65,0,0,0-2.75.89c-.46.17-.89.43-1.34.63a10,10,0,0,0-1.1.65,5.44,5.44,0,0,0-1.46,1.38,1.88,1.88,0,0,0-.4,1,2.31,2.31,0,0,0,.34,1.13,7.34,7.34,0,0,0,1.43,1.69,21.1,21.1,0,0,0,5.05,3.18,45.93,45.93,0,0,0,6.25,2.37c1.09.33,2.2.65,3.38,1s2.3.63,3.47.91c9.26,2.34,18.86,4,28.56,6.2,4.84,1.12,9.69,2.38,14.47,3.87s9.5,3.17,14.15,5l-.56-.18h0l8.94,2.24-7.3,5.63c-1.34,1-2.64,2.14-3.88,3.3a21.42,21.42,0,0,0-3,3.38,9.83,9.83,0,0,0-1.58,3.43,7,7,0,0,0,.06,3.37c.58,2.31,2.39,4.8,4.71,7a46,46,0,0,0,8,6l5,3-4.14,4a24.64,24.64,0,0,0-5,6.33,9.27,9.27,0,0,0-.62,1.55,7.16,7.16,0,0,0-.19.73l-.06.36c0,.12,0,.32,0,.47a17.12,17.12,0,0,0-.06,3.84,13,13,0,0,0,.83,3.45,12.33,12.33,0,0,0,1.79,3,21,21,0,0,0,6.1,5l-2.87-.52h0l11.78-1.8-7.73,9.06a16.26,16.26,0,0,0-3.65,6.76,9.49,9.49,0,0,0,.86,6.59,17.29,17.29,0,0,0,5.29,5.7,39.6,39.6,0,0,0,7.82,4.21,99.1,99.1,0,0,0,18.13,5.37,171,171,0,0,0,19.11,2.73l2.17.2,1.16,1.84,6.47,10.22.8,1.24c.26.4.54.83.67,1,.62.81,1.26,1.66,1.9,2.54a64.35,64.35,0,0,1,3.52,5.47,111,111,0,0,1,5.58,11.33c1.67,3.81,3.14,7.65,4.58,11.49,2.84,7.7,5.42,15.44,7.86,23.21s4.67,15.6,6.91,23.39c8.9,31.11,17.7,62.22,28.62,92.46,2.74,7.55,5.63,15,8.79,22.35a167.77,167.77,0,0,0,10.64,21.09,53.89,53.89,0,0,0,6.69,8.93,16.83,16.83,0,0,0,3.73,3l.22.13.3.14.6.3,1.21.55c.82.34,1.65.66,2.5.93,6.76,2.26,14.33,2,21.6.18A74.91,74.91,0,0,0,2787,1686a42.53,42.53,0,0,0,3.88-4c.3-.35.54-.66.83-1s.7-.9,1.06-1.32c.7-.85,1.42-1.65,2.15-2.44,2.91-3.09,5.93-5.89,9-8.63s6.17-5.38,9.34-8c6.33-5.15,12.72-10.14,19.29-15l-.31,4.51-14.05-15-14.07-15.24Zm0,0,15,13.87,15.27,14.21,15.41,14.54,15.43,14.82,2.41,2.32-2.72,2.19c-6.25,5-12.48,10.18-18.52,15.46a213.89,213.89,0,0,0-17.29,16.35c-.64.72-1.26,1.44-1.83,2.15-.29.36-.54.72-.82,1.07s-.68.92-1,1.36a49.11,49.11,0,0,1-4.49,4.8,79.71,79.71,0,0,1-10,8,75.92,75.92,0,0,1-23.13,10.79,54.16,54.16,0,0,1-13,1.83,42.3,42.3,0,0,1-13.3-1.93c-1.08-.34-2.14-.74-3.19-1.17-.52-.23-1-.44-1.56-.69l-.77-.37-.38-.19-.44-.23a25.81,25.81,0,0,1-5.77-4.48,58.3,58.3,0,0,1-7.89-10.43,176.58,176.58,0,0,1-11.23-22.21c-3.26-7.54-6.19-15.17-9-22.84-5.55-15.33-10.49-30.82-15.2-46.35s-9.17-31.12-13.63-46.67c-2.24-7.77-4.46-15.54-6.87-23.17s-5-15.29-7.73-22.78c-1.41-3.73-2.84-7.45-4.42-11.05a103.1,103.1,0,0,0-5.14-10.43,51.56,51.56,0,0,0-3.05-4.73c-.55-.77-1.13-1.53-1.74-2.32s-.75-1.08-1-1.52l-.85-1.3-6.52-10.3,3.33,2a181.18,181.18,0,0,1-20.09-2.85,107.33,107.33,0,0,1-19.79-5.87,48,48,0,0,1-9.56-5.18,26,26,0,0,1-8-8.77,19.08,19.08,0,0,1-2-6.16,18.69,18.69,0,0,1,.31-6.47,25,25,0,0,1,5.54-10.57l4.05,7.26h0l-1.55.24-1.31-.77a29.6,29.6,0,0,1-8.67-7.16,21.06,21.06,0,0,1-3.08-5.21,21.81,21.81,0,0,1-1.42-5.86,25.64,25.64,0,0,1,.05-5.75c0-.25,0-.44.09-.72l.14-.83a16.07,16.07,0,0,1,.4-1.59,18.36,18.36,0,0,1,1.15-2.91,33.21,33.21,0,0,1,6.76-8.78l.8,7a54.8,54.8,0,0,1-9.6-7.14,31.15,31.15,0,0,1-4.21-4.85,20.16,20.16,0,0,1-3-6.36,15.67,15.67,0,0,1-.14-7.54,18.49,18.49,0,0,1,2.93-6.54,29.52,29.52,0,0,1,4.27-4.86c1.44-1.35,2.95-2.63,4.51-3.84l1.65,7.87h0l-.27-.07-.29-.11c-4.45-1.72-8.95-3.32-13.51-4.73s-9.17-2.61-13.84-3.69c-9.34-2.15-19.05-3.78-28.74-6.22-1.21-.29-2.41-.62-3.62-.94s-2.43-.66-3.68-1a56.29,56.29,0,0,1-7.44-2.82,30.15,30.15,0,0,1-7.28-4.65,16.47,16.47,0,0,1-3.22-3.94,11.29,11.29,0,0,1-1.5-5.87,10.91,10.91,0,0,1,2-5.82,14.46,14.46,0,0,1,3.77-3.69,20.17,20.17,0,0,1,2-1.21c.66-.32,1.3-.67,2-.94a25.65,25.65,0,0,1,4.19-1.37,32.09,32.09,0,0,1,8.42-.78c2.67.07,5.15.3,7.5.44s4.5.18,7.08.18l7.38.12q7.38.15,14.75.46c9.83.43,19.65,1,29.56,2.11,5,.58,9.88,1.37,14.74,2.2s9.67,1.71,14.48,2.6c9.6,1.74,19.17,3.6,28.55,4.49l-4.8,4.3a76.76,76.76,0,0,1,1.1-12.38,22.86,22.86,0,0,1,.94-3.51,15.5,15.5,0,0,1,1.94-3.58,22.61,22.61,0,0,1,5.17-5,35.22,35.22,0,0,1,12.13-5.48,28,28,0,0,1,6.84-.84,18.88,18.88,0,0,1,3.79.4,13,13,0,0,1,4.1,1.63,9.81,9.81,0,0,1,2,1.6c.27.28.55.56.87.85.62.58,1.29,1.18,2,1.77,1.41,1.18,2.92,2.37,4.44,3.55,3,2.37,6.17,4.74,9.27,7.26a68.32,68.32,0,0,1,9.11,8.57,20.37,20.37,0,0,1,2.12,3,17.22,17.22,0,0,1,.83,1.67,15.33,15.33,0,0,1,.66,1.65,34.22,34.22,0,0,1,1.58,6.49c.6,4.2.75,8.15,1,12a111.37,111.37,0,0,0,1.2,11.19,50.07,50.07,0,0,0,1.17,5.27c.47,1.74,1.09,3.54,1.68,5.47a74.35,74.35,0,0,1,2.68,12c.57,4,.89,8,1.15,12,.09,2,.21,3.93.27,6s.06,4,0,6.06a107.91,107.91,0,0,1-3.31,24l-.09-2.24c4.65,13.84,9.35,27.67,14.33,41.35q1.86,5.13,3.82,10.19c1.3,3.38,2.69,6.67,4.11,10.07,2.82,6.75,5.63,13.52,8.36,20.34,5.4,13.61,10.84,27.13,16.38,40.66s10.65,27.24,15.11,41.22l-2.56-.69,3.38-2.12c1.12-.69,2.22-1.39,3.31-2Z" transform="translate(-2486.64 -550.18)"/><path class="cls-12" d="M2575.91,1394.28c-12.65-7.61-21.54-18.28-9.39-29.84a57,57,0,0,1,35.55-15.7c9.49-.59,32,8,37,18.07s5.19,23.22-6.44,24.94" transform="translate(-2486.64 -550.18)"/><path class="cls-2" d="M2826.06,1732.6l-.87.73A5.69,5.69,0,0,0,2826.06,1732.6Z" transform="translate(-2486.64 -550.18)"/><path class="cls-2" d="M2892.15,1655.7c-.9-11.77,4.44-24.89-31.71-61.33-28.54-28.78-57.17-37-68-39.12a10.48,10.48,0,0,0-7.94,1.6l-29.22,20.87c5.15,12.22,9.53,23.1,13.22,32.62,14.41,11.14,57.4,46.7,62.57,78s-2.38,41.72-5.05,44.3l62.76-52.34a9.87,9.87,0,0,0,3.55-7.51C2892.41,1667.53,2892.42,1659.26,2892.15,1655.7Z" transform="translate(-2486.64 -550.18)"/><path class="cls-6" d="M2783.7,1659.56s-3.55-25.19-20.19-62" transform="translate(-2486.64 -550.18)"/><path class="cls-5" d="M2783.7,1659.56c-1.43-5.29-3.18-10.44-5-15.56s-3.78-10.16-5.8-15.17-4.19-10-6.42-14.87c-1.07-2.47-2.2-4.92-3.21-7.41s-2.1-5-3-7.52l6.38-2.88c1.3,2.43,2.48,4.92,3.57,7.45.52,1.27,1.05,2.54,1.54,3.83s1,2.57,1.42,3.88c.91,2.6,1.74,5.23,2.52,7.87s1.54,5.29,2.26,7.94c1.4,5.33,2.63,10.7,3.62,16.11.5,2.7.95,5.41,1.28,8.14S2783.58,1656.82,2783.7,1659.56Z" transform="translate(-2486.64 -550.18)"/><path class="cls-12" d="M2635.56,1417.78c4.88-2.67,7.11-10.89,4.88-17.11s-14.66-14.67-25.11-18.89-21.11-2.45-27.77,2.89-17.71,12.81-18.82,21.26c-1.08,8.17,1.67,14.9,10.84,20.12" transform="translate(-2486.64 -550.18)"/><path class="cls-5" d="M2602.37,1446.22a7.69,7.69,0,0,1,.1-4.41,8.44,8.44,0,0,1,2.61-4,8.23,8.23,0,0,1,5.09-1.92,10.83,10.83,0,0,1,5.22,1.34,25.23,25.23,0,0,1,3.58,2.31l3,2.22a36.35,36.35,0,0,0,5.64,3.58c.48.22,1,.47,1.44.67l1.48.57,1.5.49a4.14,4.14,0,0,0,.83.13.84.84,0,0,0,.72-.26,4,4,0,0,0,.92-1.41,15.76,15.76,0,0,0,1-5.58,33.43,33.43,0,0,0-.52-6.42,29.18,29.18,0,0,0-4.66-11.75c-2.41-3.46-5.4-5.92-9-6.9s-7.94-.74-12.25.24a68.69,68.69,0,0,0-13,4.62,40,40,0,0,0-11.09,7.11c-3.08,2.88-5.41,6.42-5.8,9.82a9.43,9.43,0,0,0,.7,4.91,14.36,14.36,0,0,0,3.29,4.48,27,27,0,0,0,5.08,3.69c.49.27,1,.54,1.45.8l1.5.73c1,.47,2.12.88,3.17,1.33a94.25,94.25,0,0,0,13.4,4.13c4.59,1.12,9.27,2,14,2.93s9.49,1.6,14.27,2.5,9.6,1.89,14.5,3.3a61.25,61.25,0,0,1-14.86,2.47,107.09,107.09,0,0,1-15-.38,101.37,101.37,0,0,1-14.91-2.35c-2.47-.53-4.92-1.26-7.37-2-1.23-.37-2.44-.82-3.65-1.23l-1.82-.63-1.8-.74a43.21,43.21,0,0,1-14-8.27,22.9,22.9,0,0,1-5.31-7.32,18.21,18.21,0,0,1-1.4-9.45,21.61,21.61,0,0,1,3.06-8.61,31.76,31.76,0,0,1,5.39-6.6,48.56,48.56,0,0,1,13.46-8.79,78,78,0,0,1,14.64-5.26c1.32-.27,2.61-.61,4-.76.68-.1,1.36-.2,2-.28l2.11-.12a16.82,16.82,0,0,1,2.13,0c.73,0,1.44,0,2.17.13l2.18.33c.73.11,1.46.36,2.18.54a23.14,23.14,0,0,1,8,4.11,18.12,18.12,0,0,1,1.68,1.46,15.1,15.1,0,0,1,1.54,1.56c.47.54,1,1.08,1.41,1.63l1.24,1.72a32.54,32.54,0,0,1,3.83,7.49,41.78,41.78,0,0,1,2.06,7.92,38.07,38.07,0,0,1,.47,8.22,23.51,23.51,0,0,1-2,8.71,11.88,11.88,0,0,1-3.45,4.41,10.14,10.14,0,0,1-1.38.88,14.07,14.07,0,0,1-1.56.62,11.73,11.73,0,0,1-1.63.32,10.33,10.33,0,0,1-1.57,0,11.35,11.35,0,0,1-2.77-.53l-2-.71c-.64-.27-1.27-.56-1.91-.85s-1.23-.63-1.85-1a44.45,44.45,0,0,1-6.57-4.57l-2.82-2.32a19.39,19.39,0,0,0-2.5-1.81,4.12,4.12,0,0,0-1.76-.65,6,6,0,0,0-1.85.17,10.76,10.76,0,0,0-2.63,1.12C2604.76,1444.75,2603.67,1445.42,2602.37,1446.22Z" transform="translate(-2486.64 -550.18)"/><path class="cls-17" d="M2980.15,1007.7c-51.5-29.13-51.4-66.37-52.07-94.22s8.81-71.54,52.07-88.21,71.7-17.27,109,14.14,30,121,7.7,142.81C3070.22,1008.3,3025.19,1033.19,2980.15,1007.7Z" transform="translate(-2486.64 -550.18)"/><path class="cls-17" d="M3188.74,972.16c-31.84-65.28-1.18-141.94,55.7-154.38s90.67,0,118.23,24,41.77,95.11,30.22,120-39,66.19-112.89,66.66C3233,1028.74,3206.81,1009.22,3188.74,972.16Z" transform="translate(-2486.64 -550.18)"/><circle class="cls-5" cx="725.91" cy="355.29" r="15.19"/><circle class="cls-5" cx="475.14" cy="347.15" r="15.19"/><path class="cls-5" d="M2999.41,776c4.56-2.82,9.25-5.38,14-7.84s9.66-4.74,14.72-6.79a90.16,90.16,0,0,1,15.86-5c1.41-.24,2.8-.53,4.25-.65a18.77,18.77,0,0,1,4.37,0,13.41,13.41,0,0,1,8.1,3.72,63.52,63.52,0,0,1-7.79,2.44c-2.38.63-4.77,1-7.16,1.76a123.78,123.78,0,0,0-14.3,5.58c-4.76,2.12-9.52,4.41-14.32,6.62s-9.64,4.45-14.6,6.43Z" transform="translate(-2486.64 -550.18)"/><path class="cls-5" d="M3248,742.22a23.09,23.09,0,0,1,2.25-1.28c.77-.39,1.54-.76,2.32-1.08a42.8,42.8,0,0,1,4.76-1.58,48.2,48.2,0,0,1,9.82-1.5,148.11,148.11,0,0,1,19.87.28,129.67,129.67,0,0,1,38.75,9.12,118.46,118.46,0,0,1,33.88,21.07,124.38,124.38,0,0,1,13.83,14.38,44.29,44.29,0,0,1,5.55,8.27,37.91,37.91,0,0,1,2,4.63,28.41,28.41,0,0,1,1.21,5,31.92,31.92,0,0,1-4.06-3.11c-1.24-1.09-2.48-2.15-3.59-3.3s-2.28-2.23-3.31-3.42l-3.15-3.5a117.8,117.8,0,0,0-13.57-13,128,128,0,0,0-32.11-18.93,142.62,142.62,0,0,0-36.22-9.47,140.87,140.87,0,0,0-18.83-1.06c-3.15,0-6.3,0-9.51-.22-1.61-.11-3.22-.21-4.86-.46A35.82,35.82,0,0,1,3248,742.22Z" transform="translate(-2486.64 -550.18)"/><path class="cls-5" d="M3115.36,1010.22a20.42,20.42,0,0,1-1.87,4.17,29.56,29.56,0,0,1-2.38,3.54,59.3,59.3,0,0,1-5.59,6,148.34,148.34,0,0,0-10.79,12,59.07,59.07,0,0,0-4.49,6.38,27.72,27.72,0,0,0-3,6.48,9.54,9.54,0,0,0-.17,5.62,8,8,0,0,0,1.24,2.41,6.26,6.26,0,0,0,.46.59l.25.3.13.15.17.19,1.35,1.48a27.39,27.39,0,0,0,5.33,4.65,17.32,17.32,0,0,0,2.88,1.39,18.94,18.94,0,0,0,3.14.76c4.39.61,9.41-.49,14.28-2.15a97.22,97.22,0,0,0,14.43-6.71c1.17-.67,2.36-1.32,3.52-2s2.31-1.43,3.53-2a19.82,19.82,0,0,1,4-1.46,14.44,14.44,0,0,1,4.73-.46,15.46,15.46,0,0,1-5,7.52,38,38,0,0,1-3.45,2.47c-1.16.8-2.38,1.55-3.57,2.32a94.61,94.61,0,0,1-15.31,8,50.22,50.22,0,0,1-8.65,2.63,31.28,31.28,0,0,1-9.57.52,23.84,23.84,0,0,1-5-1.09,25.23,25.23,0,0,1-4.61-2.17,33.39,33.39,0,0,1-7.23-6.15l-1.44-1.6c-.21-.23-.54-.63-.8-.94s-.54-.7-.8-1.06a17.18,17.18,0,0,1-2.47-5,16.27,16.27,0,0,1-.64-5.59,19.86,19.86,0,0,1,1-5.14,35.32,35.32,0,0,1,4.2-8.43,68.7,68.7,0,0,1,5.37-7,140.18,140.18,0,0,1,12-12.12,43,43,0,0,1,6.57-5.29A22.83,22.83,0,0,1,3115.36,1010.22Z" transform="translate(-2486.64 -550.18)"/><path class="cls-18" d="M3077.33,1139.56c52.94,19.14,139.56,10.66,170.67-3.56s91.56,43.56,43.56,62.22-135.12,48.89-189.34,23.11S3035.56,1124.44,3077.33,1139.56Z" transform="translate(-2486.64 -550.18)"/><path class="cls-19" d="M3175.89,1184.89c79.6-6.09,115.67,13.33,115.67,13.33-48,18.67-135.12,48.89-189.34,23.11C3102.22,1221.33,3112,1189.78,3175.89,1184.89Z" transform="translate(-2486.64 -550.18)"/><path class="cls-5" d="M2693.56,1450.22a56.81,56.81,0,0,1,1.66-14.45,106.1,106.1,0,0,0,2.61-13.68,101,101,0,0,0,.69-13.91l-.1-3.47-.22-3.55c-.06-1.19-.17-2.36-.26-3.54s-.2-2.34-.34-3.51a80.84,80.84,0,0,0-2.41-13.53c-.61-2.17-1.39-4.34-2.16-6.75a60.35,60.35,0,0,1-1.89-7.49,126.92,126.92,0,0,1-1.67-14.81c-.36-4.77-.66-9.45-1.9-13.16-.18-.43-.33-.9-.52-1.32s-.4-.89-.58-1.16a14.6,14.6,0,0,0-1.67-2.17,51,51,0,0,0-4.77-4.57c-3.5-3-7.3-5.87-11.13-8.82-1.92-1.48-3.86-3-5.81-4.62-1-.83-2-1.69-3-2.72-.35-.35-.27-.28-.34-.33a1.17,1.17,0,0,0-.19-.14,2.77,2.77,0,0,0-.68-.3,12,12,0,0,0-5.11-.19,26.11,26.11,0,0,0-5.91,1.61,25.45,25.45,0,0,0-5.35,2.91,12.27,12.27,0,0,0-3.59,3.78,5.15,5.15,0,0,0-.41.93,11.85,11.85,0,0,0-.36,1.32,30.83,30.83,0,0,0-.54,3.13c-.28,2.19-.43,4.49-.53,6.8a173,173,0,0,0,1.45,28l-1.4-2.54a27,27,0,0,1,4.15,4.51c.31.44.62.9.9,1.39a16,16,0,0,1,.76,1.46q.63,1.31,1.14,2.67a33.09,33.09,0,0,1,1.64,5.6,28.11,28.11,0,0,1,.6,6l-1.46-3.1a9.45,9.45,0,0,0,4.76,2.26,4.74,4.74,0,0,0,4-1.24,7.64,7.64,0,0,0,1.54-2.06l.76-1.48.66-1.53a32.33,32.33,0,0,0,1.75-6.58,52.72,52.72,0,0,0,.58-7.1c.07-2.45,0-4.92.1-7.7.06-1.32.1-2.47.2-3.74a32.62,32.62,0,0,1,.52-3.74,27.23,27.23,0,0,1,1-3.78,19.12,19.12,0,0,1,1.79-3.84,16.49,16.49,0,0,1,2,3.78,23.4,23.4,0,0,1,1.1,3.83,26.69,26.69,0,0,1,.47,3.88c.07,1.27,0,2.66,0,3.87,0,2.3.08,4.91.06,7.54a58.55,58.55,0,0,1-.51,8.08,38.92,38.92,0,0,1-2,8.16l-.81,2-.94,1.94a14.71,14.71,0,0,1-3,4,12.4,12.4,0,0,1-4.64,2.85,12.75,12.75,0,0,1-5.38.59,17.16,17.16,0,0,1-9-3.85l-1.44-1.15,0-1.94a24.15,24.15,0,0,0-1.87-8.58c-.29-.7-.6-1.39-.94-2.06a8.47,8.47,0,0,0-.45-.83,8.68,8.68,0,0,0-.52-.77,18.81,18.81,0,0,0-2.93-3l-1.15-1-.25-1.57c-.78-4.92-1.28-9.82-1.59-14.73s-.45-9.84-.33-14.83c.08-2.5.21-5,.51-7.59.15-1.3.35-2.61.65-4a21.1,21.1,0,0,1,.57-2.16,15.64,15.64,0,0,1,1-2.38,21.19,21.19,0,0,1,6.14-6.74,35.25,35.25,0,0,1,15.27-6.2,20.46,20.46,0,0,1,9.19.52,12,12,0,0,1,2.6,1.19,9.8,9.8,0,0,1,1.27.93c.4.32.88.84,1,.91a31.84,31.84,0,0,0,2.35,2.15c1.72,1.47,3.59,2.93,5.47,4.39,3.78,2.94,7.67,5.88,11.47,9.17a57.29,57.29,0,0,1,5.61,5.46,22.66,22.66,0,0,1,2.63,3.6,24,24,0,0,1,1.8,4.13,39.6,39.6,0,0,1,1.59,7.94c.28,2.55.43,5,.57,7.41a133,133,0,0,0,1.36,13.91,50.13,50.13,0,0,0,1.51,6.53c.65,2.19,1.45,4.57,2.1,7a88.72,88.72,0,0,1,2.38,14.91c.12,1.24.21,2.46.28,3.69s.16,2.45.2,3.67l.16,3.66,0,3.74a107.65,107.65,0,0,1-1,14.91,102.55,102.55,0,0,1-3.13,14.6,30,30,0,0,1-3.12,6.83A19.76,19.76,0,0,1,2693.56,1450.22Z" transform="translate(-2486.64 -550.18)"/><path class="cls-2" d="M3706.07,1753s-21.63-85.18-26.37-90.22c-2.12-2.25-7.11-2.48-12-2,6.94,15.52-13.2,52.21-48.18,66.57-37.72,15.49-80.85,29-97.66,25a270.94,270.94,0,0,0,9.95,28.45c8,19,16.59,39.11,16.59,39.11s34.67,8.89,64-1.48,59.56-18.07,78.52-39.11S3706.07,1753,3706.07,1753Z" transform="translate(-2486.64 -550.18)"/><path class="cls-20" d="M3792.13,2093a18.27,18.27,0,0,0-5.41-6.49l.05,0c3.9-4.75-1.08-16.75-12.59-19.86s-26.4-12.67-34.4-22.89-18-19.34-27.78-30.89-28-28.45-28-28.45-5.78-55.11-4.44-96.44-.2-98.33-.2-98.33c-18.52,13.57-43,20.25-66.92,28.7a78.21,78.21,0,0,1-8.28,2.41h0c3.54,49.15,8.28,87.66,11.25,119.66s4.15,57.78,3.26,62.23-7.11,26.37-11.86,35.26-12.44,23.7-18.37,29-16.29,14.82-15.7,19.85,8.89,11.86,15.41,8.3,17.78-8.3,24-18.07,17.18-19.56,27-16.3,18.84,13.82,26.37,22.82c16.74,20,27,36.44,43.41,41.33s43.55,8,44.44,0a25.49,25.49,0,0,0,.15-3.37h0c13,.88,23.56-2.42,20-12.2a17.8,17.8,0,0,0-1.59-3.25l0,0C3785,2105.61,3796.7,2102.34,3792.13,2093Z" transform="translate(-2486.64 -550.18)"/><path d="M3789,2094.53a15,15,0,0,0-4.41-5.24l-16.67-12.81,19.94,6.71h.05l-3.84,1.11a3.15,3.15,0,0,0,.48-2.1,9.86,9.86,0,0,0-.77-3.27,15.51,15.51,0,0,0-4.64-5.91,14.42,14.42,0,0,0-1.59-1.09,11.54,11.54,0,0,0-1.71-.89l-.88-.4-.92-.29-1-.32-1.21-.36a61.24,61.24,0,0,1-9.24-3.71,83.71,83.71,0,0,1-16.43-10.64,64.34,64.34,0,0,1-7.17-6.86c-1.1-1.24-2.2-2.62-3.11-3.74s-1.93-2.35-2.93-3.51c-4-4.62-8.33-9.09-12.64-13.66-2.16-2.28-4.32-4.59-6.44-7q-1.6-1.75-3.16-3.56l-3.06-3.54c-4.05-4.57-8.38-9-12.78-13.41s-8.9-8.7-13.43-12.92l-1-1-.14-1.39c-1.64-16.27-2.87-32.49-3.75-48.79s-1.32-32.64-.81-49c.48-16.16.55-32.38.48-48.59q-.06-12.17-.25-24.33l-.21-12.17-.27-12.25,6.18,3.13a116.89,116.89,0,0,1-18.2,10.7c-6.3,3-12.75,5.61-19.21,8s-12.95,4.55-19.39,6.74l-9.62,3.31c-1.55.54-3.31,1.17-5,1.67s-3.44,1-5.17,1.38l2.36-1.63h0l.64-2.45c1.54,21.17,3.45,42.31,5.52,63.46s4.41,42.29,6.23,63.55c.89,10.63,1.68,21.27,2.24,31.94.28,5.35.51,10.69.56,16.11,0,1.37,0,2.73,0,4.14,0,.68-.08,1.47-.12,2.19l-.18,1.34c-.07.42-.16.74-.24,1.12-.65,2.74-1.37,5.29-2.12,7.89-1.5,5.17-3.12,10.29-4.93,15.4-.92,2.55-1.87,5.1-3,7.65-.56,1.27-1.13,2.55-1.8,3.85s-1.26,2.36-1.89,3.56c-2.53,4.7-5.09,9.42-7.92,14.07-1.42,2.32-2.89,4.63-4.53,6.9-.82,1.14-1.69,2.26-2.64,3.37-.51.56-.95,1.11-1.54,1.66l-.83.82-.75.67a107.42,107.42,0,0,0-10.88,10.88,26.31,26.31,0,0,0-2.06,2.84,7.47,7.47,0,0,0-1,2.35.49.49,0,0,1,0,.12s0,0,0,0a2.7,2.7,0,0,1,.08.41,5.44,5.44,0,0,1,.19.52l.29.57a10.42,10.42,0,0,0,1.85,2.27,9.49,9.49,0,0,0,5.14,2.53,4.83,4.83,0,0,0,2.35-.3l.56-.23.91-.48,1.8-.93a77.22,77.22,0,0,0,13.11-7.88,33.84,33.84,0,0,0,5.22-5.06,16.55,16.55,0,0,0,1.09-1.41l.51-.73.55-.81c.77-1.18,1.61-2.32,2.46-3.44a44.11,44.11,0,0,1,12.72-11.39,21.5,21.5,0,0,1,8.73-2.82,15.57,15.57,0,0,1,4.85.36,14.8,14.8,0,0,1,2.27.69,16.9,16.9,0,0,1,2,.87,50,50,0,0,1,13.48,10.09c3.87,3.88,7.37,8,10.75,12.13s6.69,8.34,10,12.52,6.55,8.34,10,12.3a77.93,77.93,0,0,0,11.1,10.79c1,.81,2.07,1.45,3.11,2.2l1.63.95a14.69,14.69,0,0,0,1.66.89l1.7.81c.57.28,1.18.44,1.76.67a38.26,38.26,0,0,0,3.66,1.19,127.42,127.42,0,0,0,15.36,3.37,85.42,85.42,0,0,0,15.58,1.2,29.81,29.81,0,0,0,3.81-.33,14.28,14.28,0,0,0,3.5-.92,3.55,3.55,0,0,0,2.11-1.89,8.08,8.08,0,0,0,.23-1.68c.05-.63.07-1.26.07-1.9l0-3.61,2.12,2.87h0l-.85-.45a50.35,50.35,0,0,0,7.86.1,23,23,0,0,0,7.51-1.65,8.86,8.86,0,0,0,3-2.06,5.66,5.66,0,0,0,1.45-3.16,8.8,8.8,0,0,0-.43-3.67,16.34,16.34,0,0,0-1.59-3.52l-3-5.08,4,4.34,0,0-.47-.19c2.41-.05,4.82-.2,7.21-.48a39.1,39.1,0,0,0,7-1.45c2.24-.74,4.53-1.8,5.93-3.74a5.85,5.85,0,0,0,.77-1.59,5.78,5.78,0,0,0,.21-1.76,8.9,8.9,0,0,0-.91-3.48Zm3.14-1.53a8.78,8.78,0,0,1,1.07,3.47,5.47,5.47,0,0,1-.87,3.54,8.55,8.55,0,0,1-2.67,2.55,17,17,0,0,1-3.32,1.62,36.38,36.38,0,0,1-7.12,1.78c-2.42.38-4.85.61-7.29.75h-.26l-.2-.2,0,0,1-.74a17.37,17.37,0,0,1,1.85,3.74,10.2,10.2,0,0,1,.63,4.24,7.23,7.23,0,0,1-1.71,4.09,10.67,10.67,0,0,1-3.49,2.59,24.87,24.87,0,0,1-8.07,2.09,52.4,52.4,0,0,1-8.21.18l-.51,0-.34-.43h0l2.1-.74c0,.7,0,1.4,0,2.09a10.8,10.8,0,0,1-.26,2.27,4.94,4.94,0,0,1-1.41,2.22,7.73,7.73,0,0,1-2,1.33,16.67,16.67,0,0,1-4.14,1.26,34.33,34.33,0,0,1-4.12.51,87.58,87.58,0,0,1-16.21-.78,134.52,134.52,0,0,1-15.87-3c-1.31-.33-2.61-.7-4-1.17-.66-.24-1.34-.41-2-.71l-1.93-.84a16.41,16.41,0,0,1-1.87-.95l-1.84-1c-1.15-.78-2.37-1.47-3.46-2.32a82.07,82.07,0,0,1-12-11.15c-3.63-4-7-8.14-10.39-12.25s-6.74-8.2-10.17-12.22-6.89-8-10.6-11.56a44.5,44.5,0,0,0-12-8.8,11.52,11.52,0,0,0-6.24-1.28,15.6,15.6,0,0,0-6.29,2.19,38.11,38.11,0,0,0-10.7,10c-.73,1-1.46,2-2.13,3.08l-1.19,1.75c-.4.62-.87,1.18-1.32,1.76a40.55,40.55,0,0,1-6.14,6.08,83,83,0,0,1-14.09,8.7l-1.74.92-.84.45c-.4.2-.84.4-1.27.58a11.42,11.42,0,0,1-5.45.78,16.08,16.08,0,0,1-9-4.18,16.66,16.66,0,0,1-3.19-3.88q-.33-.59-.63-1.2c-.17-.44-.34-.89-.5-1.35s-.23-1-.32-1.53c0-.32-.05-.64-.05-1s0-.58.06-.87a13.49,13.49,0,0,1,1.91-5,31.9,31.9,0,0,1,2.57-3.65A108,108,0,0,1,3585.4,2065l.74-.67.58-.58c.4-.35.78-.85,1.17-1.27.77-.91,1.53-1.9,2.26-2.91,1.47-2.05,2.85-4.23,4.2-6.45,2.69-4.45,5.18-9.09,7.67-13.76.61-1.16,1.27-2.38,1.84-3.49s1.06-2.22,1.56-3.38c1-2.34,1.89-4.78,2.77-7.24,1.72-4.92,3.29-10,4.74-15,.71-2.52,1.43-5.09,2-7.52.05-.28.14-.6.17-.84l.08-.63c0-.6.08-1.15.09-1.79,0-1.25,0-2.54,0-3.84-.07-5.21-.32-10.49-.61-15.77-.59-10.56-1.41-21.13-2.34-31.69-1.88-21.12-4.3-42.25-6.45-63.43s-4.1-42.41-5.62-63.66l-.1-1.34.74-1.11h0l.86-1.28,1.5-.35c1.58-.38,3.15-.79,4.7-1.26s3-1,4.68-1.56l9.7-3.33c6.45-2.19,12.88-4.35,19.21-6.67s12.54-4.81,18.52-7.68a109.48,109.48,0,0,0,17-10l6-4.37.16,7.51.27,12.1.2,12.2q.18,12.21.24,24.41c.06,16.28,0,32.56-.51,48.87-.22,8.06-.27,16.1-.13,24.18s.43,16.15.83,24.22c.82,16.15,2,32.34,3.58,48.4l-1.18-2.35c4.62,4.33,9.13,8.69,13.59,13.15s8.85,9,13.08,13.81l3.07,3.58c1,1.16,2,2.32,3.06,3.47,2.06,2.3,4.17,4.57,6.3,6.84,4.27,4.54,8.64,9.09,12.82,13.94q1.56,1.82,3.08,3.7c1.05,1.31,1.9,2.39,2.87,3.48a57.8,57.8,0,0,0,6.37,6.13,77,77,0,0,0,15,9.77,55.48,55.48,0,0,0,8.15,3.31l1,.31,1.26.41,1.31.43,1.26.57a17.79,17.79,0,0,1,2.44,1.29,20.87,20.87,0,0,1,2.28,1.56,22.52,22.52,0,0,1,6.77,8.75,17.15,17.15,0,0,1,1.31,5.83c0,.54,0,1.08,0,1.63s-.2,1.14-.32,1.71-.41,1.16-.65,1.73a19.51,19.51,0,0,1-1.07,1.66l-1.37,1.94-2.47-.84-.05,0,3.27-6.11a21.9,21.9,0,0,1,6.41,7.73Z" transform="translate(-2486.64 -550.18)"/><path class="cls-5" d="M3771.78,2102.6a74.26,74.26,0,0,0,8.18-1.07,25,25,0,0,0,7.05-2.31,4.88,4.88,0,0,0,1.81-1.54,1.07,1.07,0,0,0,.19-.55,2.08,2.08,0,0,0,0-.73,7.71,7.71,0,0,0-1.12-2.54,14.42,14.42,0,0,0-.94-1.37c-.36-.44-.75-.84-1.13-1.26-3.28-3.18-8.25-5.25-13.5-6.6-2.64-.68-5.38-1.2-8.15-1.67-1.39-.24-2.79-.44-4.19-.63l-2.41-.4c-.82-.15-1.6-.38-2.4-.57a48.66,48.66,0,0,1-16.68-8.77,108.49,108.49,0,0,1-13.21-12.23c-4-4.35-7.7-8.92-11.26-13.51s-6.95-9.24-11-13.51a40.93,40.93,0,0,1,7.58,4.7c2.37,1.79,4.62,3.71,6.81,5.67,4.38,3.91,8.52,8,12.7,11.9a119.25,119.25,0,0,0,12.89,10.9,44.47,44.47,0,0,0,14.25,7c.62.12,1.24.3,1.86.39l1.9.28c1.48.17,3,.35,4.46.57a82,82,0,0,1,9,1.74,52.19,52.19,0,0,1,9,3.11,28.48,28.48,0,0,1,8.38,5.74c.6.66,1.2,1.31,1.75,2a22.51,22.51,0,0,1,1.51,2.24,15.22,15.22,0,0,1,2.12,5.51,9.81,9.81,0,0,1-1.54,7,12.9,12.9,0,0,1-4.77,4.06,30.48,30.48,0,0,1-9.58,2.78,65.1,65.1,0,0,1-9.18.6Z" transform="translate(-2486.64 -550.18)"/><path class="cls-5" d="M3753.72,2118a51.79,51.79,0,0,0,8-.37,17.85,17.85,0,0,0,6.65-2,5.37,5.37,0,0,0,1-.77,3,3,0,0,0,.51-.73,3.26,3.26,0,0,0,.16-1.82,7.37,7.37,0,0,0-.36-1.35c-.17-.49-.44-1-.64-1.51s-.54-1-.84-1.43-.63-.93-1-1.34c-3-3.48-7.74-6-12.82-7.88-2.55-1-5.21-1.77-7.91-2.51-1.35-.39-2.72-.72-4.09-1.07l-2.38-.67-2.31-.83a40.37,40.37,0,0,1-8.37-4.62,62,62,0,0,1-7.11-5.92,100.21,100.21,0,0,1-11.72-13.55c-3.49-4.76-6.62-9.68-9.69-14.59s-6-9.86-9.65-14.43a42.76,42.76,0,0,1,6.91,5.53c2.16,2,4.15,4.19,6.11,6.36,3.91,4.34,7.6,8.81,11.36,13.1a130.73,130.73,0,0,0,11.67,12.15,45.11,45.11,0,0,0,13.39,8.51l1.8.6,1.81.47c1.45.33,2.9.65,4.35,1a83.93,83.93,0,0,1,8.71,2.61,53.08,53.08,0,0,1,8.57,4,29.1,29.1,0,0,1,7.76,6.41,25.67,25.67,0,0,1,1.58,2.14c.48.75.9,1.55,1.32,2.33s.72,1.63,1,2.51a15.45,15.45,0,0,1,.68,2.87,11,11,0,0,1-1.09,6.64,11.28,11.28,0,0,1-2.07,2.75,14,14,0,0,1-2.49,1.86,23.72,23.72,0,0,1-9.92,2.77,49.2,49.2,0,0,1-9.34-.16Z" transform="translate(-2486.64 -550.18)"/><path class="cls-5" d="M3784.07,2084.31a3.12,3.12,0,0,0,.49-2.1,9.91,9.91,0,0,0-.77-3.28,15.4,15.4,0,0,0-4.64-5.93,14.42,14.42,0,0,0-1.59-1.09,10.71,10.71,0,0,0-1.71-.9l-.88-.4-.92-.3-1-.32-1.22-.36a62.55,62.55,0,0,1-9.22-3.72,83.59,83.59,0,0,1-16.4-10.66,64,64,0,0,1-7.14-6.85c-1.11-1.25-2.2-2.62-3.1-3.75s-1.94-2.35-2.94-3.51c-4-4.64-8.32-9.11-12.62-13.69q-3.24-3.42-6.43-7c-1.06-1.17-2.11-2.37-3.15-3.57l-3.05-3.53c-4-4.59-8.38-9.05-12.77-13.44s-8.9-8.72-13.42-13l-1-.91-.13-1.29c-1.62-16.27-2.82-32.49-3.68-48.78s-1.26-32.63-.76-49c.49-16.17.56-32.39.5-48.61s-.32-32.45-.72-48.65l5.57,2.73a117,117,0,0,1-18.15,10.66c-6.29,3-12.72,5.6-19.17,8s-12.94,4.55-19.39,6.73l-9.62,3.31c-1.56.55-3.31,1.17-5,1.67s-3.42,1-5.14,1.37l1.93-1.22h0l.76-2.44c1.86,25.87,4.31,51.68,7,77.51s5.48,51.72,7,77.76c.38,6.52.71,13,.8,19.64,0,1.66,0,3.32-.07,5.07l-.08,1.35c-.06.52-.14,1.11-.22,1.6-.19.9-.4,1.72-.6,2.53-.83,3.23-1.73,6.38-2.68,9.53-1.9,6.29-3.92,12.52-6.46,18.74-.31.78-.64,1.56-1,2.34s-.73,1.57-1.13,2.36-.77,1.46-1.15,2.2l-1.15,2.15c-1.54,2.88-3.1,5.76-4.72,8.62s-3.32,5.72-5.15,8.53c-.92,1.41-1.88,2.8-2.92,4.18a37.69,37.69,0,0,1-3.47,4.09c-.34.32-.71.69-1,1l-.9.81-1.77,1.62q-1.75,1.64-3.45,3.28a61.24,61.24,0,0,0-6.13,6.83,14.92,14.92,0,0,0-2,3.33,3.07,3.07,0,0,0-.2.84c0,.11.05.29.11.48a6.27,6.27,0,0,0,.27.63,10.41,10.41,0,0,0,5.24,4.6,6.15,6.15,0,0,0,3,.43,4.24,4.24,0,0,0,1.31-.4,1.86,1.86,0,0,0,.36-.15l.56-.3,1.11-.58c2.92-1.52,5.71-3,8.37-4.55a47.83,47.83,0,0,0,7.34-5.32c.57-.48,1.06-1,1.6-1.52s1-1.07,1.47-1.61.93-1.12,1.33-1.71.77-1.1,1.28-1.89a55,55,0,0,1,6.51-8.11,39.5,39.5,0,0,1,8.34-6.64,21.83,21.83,0,0,1,11.08-3.15l1.55.14.77.08.76.18,1.51.39c.46.16.88.33,1.32.49a34.3,34.3,0,0,1,4.9,2.41c6.09,3.75,10.88,8.61,15.35,13.51,2.22,2.47,4.35,5,6.44,7.48s4.17,5.05,6.21,7.58c4.09,5.07,8.09,10.17,12.25,15,1,1.23,2.11,2.37,3.16,3.55s2.15,2.3,3.28,3.36a56.19,56.19,0,0,0,7,5.9,34.86,34.86,0,0,0,7.8,4.15l2.06.73,2.27.63c1.51.42,3,.79,4.59,1.14a123,123,0,0,0,18.69,2.82,54.13,54.13,0,0,0,9.11-.08,17.09,17.09,0,0,0,3.91-.83,4.67,4.67,0,0,0,1.2-.61c.21-.19.16-.2.15-.14h0s0,.07,0-.06l0-.53c0-.35.07-.7.07-1.05a20,20,0,0,0,0-2,14.4,14.4,0,0,0-.78-3.8,9.75,9.75,0,0,0-4.62-5.35,14.75,14.75,0,0,0-3.69-1.38c-.61-.18-1.47-.34-2.26-.51l-2.4-.51c-3.22-.69-6.48-1.47-9.73-2.47a56.92,56.92,0,0,1-9.61-3.86,36.42,36.42,0,0,1-8.75-6.21c-.64-.65-1.26-1.33-1.88-2l-1.62-1.92-3.15-3.83c-2.08-2.54-4.15-5.06-6.1-7.67s-3.81-5.26-5.58-8-3.55-5.44-5.27-8.2c-3.46-5.51-6.84-11-10.28-16.66a116.56,116.56,0,0,1,14.43,13.46c2.26,2.38,4.41,4.83,6.56,7.29s4.21,5,6.16,7.55,3.83,5.22,5.75,7.8c1,1.29,1.92,2.56,2.92,3.8l1.5,1.81,1.45,1.55c4.09,4,9.64,6.58,15.53,8.39,3,.91,6,1.65,9.15,2.32l2.36.5c.8.17,1.54.31,2.5.56a22.19,22.19,0,0,1,5.39,2.05,17.26,17.26,0,0,1,4.74,3.81,16.18,16.18,0,0,1,3.07,5.26,21.57,21.57,0,0,1,1.2,5.71,26.37,26.37,0,0,1,0,2.81c0,.47-.05.92-.08,1.38l-.06.69a4.47,4.47,0,0,1-.09.53l-.13.61a7.38,7.38,0,0,1-2.57,3.79,11.6,11.6,0,0,1-3.08,1.67,22.86,22.86,0,0,1-5.59,1.23,60.71,60.71,0,0,1-10.34.11,129.74,129.74,0,0,1-19.8-3c-1.62-.37-3.25-.77-4.86-1.21l-2.43-.68-2.53-.88a42.7,42.7,0,0,1-9.35-5,62.65,62.65,0,0,1-7.88-6.63c-1.24-1.16-2.36-2.41-3.53-3.61s-2.26-2.46-3.32-3.73c-4.32-5-8.34-10.14-12.41-15.17q-3-3.78-6.13-7.49c-2.08-2.48-4.15-4.93-6.27-7.28-4.24-4.68-8.74-9.13-13.76-12.2a25.47,25.47,0,0,0-3.82-1.88l-1-.37-.85-.2-.42-.12-.44,0-.88-.09a15,15,0,0,0-7.4,2.21,32.57,32.57,0,0,0-6.83,5.47,47.17,47.17,0,0,0-5.66,7.07l-1.46,2.13c-.52.75-1.11,1.43-1.67,2.14s-1.19,1.34-1.81,2-1.25,1.27-1.92,1.84a55.53,55.53,0,0,1-8.41,6.11c-2.91,1.75-5.9,3.28-8.74,4.75l-1,.55-.52.28-.75.35a11.42,11.42,0,0,1-3.33,1,13.23,13.23,0,0,1-6.5-.83,17.21,17.21,0,0,1-5.18-3.18,15.91,15.91,0,0,1-3.84-4.88,12.45,12.45,0,0,1-.66-1.62,7.27,7.27,0,0,1-.23-.92c-.06-.33-.13-.6-.17-1a9.09,9.09,0,0,1,.6-3.93,21.36,21.36,0,0,1,2.9-5.07,69,69,0,0,1,6.86-7.66c1.19-1.17,2.4-2.31,3.61-3.43l1.83-1.66.91-.83c.3-.27.49-.48.74-.72a29.89,29.89,0,0,0,2.83-3.34c.91-1.21,1.79-2.49,2.65-3.8,1.71-2.63,3.34-5.37,4.92-8.15s3.11-5.61,4.64-8.47l1.14-2.14c.37-.7.8-1.47,1.11-2.11s.66-1.33,1-2,.62-1.4.92-2.14c2.37-5.8,4.36-11.94,6.22-18.08.92-3.07,1.81-6.17,2.59-9.23.19-.76.38-1.52.53-2.21l.1-.81.07-1.08c.07-1.49.07-3.08.06-4.67-.09-6.37-.41-12.84-.79-19.29-1.51-25.83-4.3-51.6-7-77.45s-5.14-51.77-7-77.72l-.1-1.37.86-1.07h0l.75-.95,1.18-.27c1.59-.38,3.17-.8,4.72-1.27s3-1,4.7-1.56l9.69-3.33c6.46-2.2,12.89-4.36,19.22-6.68s12.56-4.82,18.56-7.7a109.49,109.49,0,0,0,17-10l5.4-3.93.16,6.66q.62,24.42.73,48.81c.06,16.27,0,32.55-.5,48.86-.5,16.1-.06,32.27.75,48.43s2.05,32.34,3.65,48.41l-1.1-2.2c4.62,4.32,9.14,8.67,13.6,13.12s8.86,9,13.09,13.78l3.08,3.57q1.51,1.74,3.07,3.47c2.06,2.3,4.18,4.57,6.31,6.83,4.28,4.54,8.65,9.08,12.83,13.92q1.57,1.82,3.09,3.69c1.05,1.31,1.91,2.39,2.88,3.49a57,57,0,0,0,6.39,6.12,76.69,76.69,0,0,0,15,9.76,55.21,55.21,0,0,0,8.17,3.3l1,.31,1.27.41,1.3.43,1.26.56a18.89,18.89,0,0,1,2.44,1.28,23.5,23.5,0,0,1,2.27,1.57,22.43,22.43,0,0,1,6.78,8.73,17,17,0,0,1,1.31,5.81c0,.54,0,1.08,0,1.63s-.19,1.14-.31,1.7-.42,1.17-.66,1.74a19.23,19.23,0,0,1-1.06,1.65Z" transform="translate(-2486.64 -550.18)"/></svg>