<?xml version="1.0" encoding="utf-8"?>
<!-- Generator: Adobe Illustrator 23.0.5, SVG Export Plug-In . SVG Version: 6.00 Build 0)  -->
<svg version="1.1" id="Capa_1" xmlns="http://www.w3.org/2000/svg" xmlns:xlink="http://www.w3.org/1999/xlink" x="0px" y="0px"
	 viewBox="0 0 59 57.17" style="enable-background:new 0 0 59 57.17;" xml:space="preserve">
<style type="text/css">
	.st0{fill:#FFFFFF;}
</style>
<title>add shopping cart-1</title>
<g id="Layer_2">
	<g id="Layer_1-2">
		<g id="add_shopping_cart-1">
			<path class="st0" d="M42.6,41H23.31c-5.02,0-9.34-3.56-10.31-8.48L9.21,12.9C8.79,10.72,7.1,9.01,4.92,8.56L2,8
				C0.65,7.72-0.23,6.4,0.05,5.05S1.65,2.82,3,3.1l2.93,0.61c4.16,0.85,7.39,4.12,8.19,8.29l3.79,19.62
				c0.53,2.56,2.79,4.39,5.4,4.38H42.6c2.28-0.01,4.32-1.41,5.14-3.53l6.43-16.77c0.42-1.31,1.83-2.04,3.14-1.62
				c1.31,0.42,2.04,1.83,1.62,3.14c-0.03,0.09-0.06,0.18-0.1,0.26l-6.42,16.8C50.83,38.33,46.94,40.99,42.6,41z"/>
			<circle class="st0" cx="42.32" cy="52.17" r="5"/>
			<circle class="st0" cx="22.68" cy="52.17" r="5"/>
			<path class="st0" d="M33.58,27.35c-0.66,0-1.3-0.27-1.77-0.74l-9.9-9.9c-0.99-0.96-1.02-2.54-0.06-3.54s2.54-1.02,3.54-0.06
				c0.02,0.02,0.04,0.04,0.06,0.06l8.13,8.13l8.13-8.13c0.96-0.99,2.54-1.02,3.53-0.07c0.99,0.96,1.02,2.54,0.07,3.53
				c-0.02,0.02-0.04,0.04-0.06,0.06l-9.9,9.9C34.88,27.08,34.24,27.35,33.58,27.35z"/>
			<path class="st0" d="M33.58,27.35c-1.38,0-2.5-1.12-2.5-2.5V4.39c0-1.38,1.12-2.5,2.5-2.5s2.5,1.12,2.5,2.5v20.5
				C36.06,26.25,34.95,27.35,33.58,27.35z"/>
		</g>
	</g>
</g>
</svg>
