<svg id="Capa_1" data-name="Capa 1" xmlns="http://www.w3.org/2000/svg" viewBox="0 0 6940 364.21"><defs><style>.cls-1{fill:#0c0a0c;}</style></defs><title>separator2</title><path class="cls-1" d="M-.33,237.06c1-3.5-.29-8.14-3.1-11.87V241C-1.75,239.58-.62,238.23-.33,237.06Z" transform="translate(3.43)"/><path class="cls-1" d="M6936.57,326.87V157a219.24,219.24,0,0,0-32.23-.48c-22.5,1.7-54.9,10.6-59.2,16.2-2.8,3.6-.6,10.9,4,13.4a50.22,50.22,0,0,0,6.7,2.3c4.5,1.2,6.8,2.6,11.7,7.2,1.8,1.7,2.3,3.3,2.3,7,0,4.1,2.9,28.8,4.6,40.5.7,4,.3,4.3-7.1,5.2-.46.07-1,.17-1.48.29-18.83-.77-37.18-1.54-54.94-2.28.81-.61,1.64-1.2,2.38-1.66,3.8-2.4,4.5-4.1,3.6-9.1-.9-4.6-8.8-12.1-14.1-13.4-2.2-.5-7.3-1.9-11.4-3-6.6-1.9-10.3-2.1-31.5-2.1-14,0-25.6.4-27.6,1.1-1.9.5-5.7,1.4-8.5,1.8-4.6.8-5.2.7-8.6-2.1a43.49,43.49,0,0,1-6.8-7.3c-3.1-4.3-17.7-16.4-22.3-18.6-3.9-1.7-4.9-6.1-4.3-20,.3-6.8,1.1-17,1.7-22.6,1.1-9.7,1.3-10.2,3.7-10.8,5.1-1.3,7.1-3.3,7.1-7.3,0-4.3-1.4-6.2-4.6-6.2-2,0-5.2-2.6-4.3-3.5a46.75,46.75,0,0,1,5.4-1.6c10.2-2.4,12-3.3,12.3-6.2a6.29,6.29,0,0,0-.9-4.3c-.9-1.1-.9-1.4,0-1.4,2,0,.3-1.7-4.5-4.5-4.1-2.4-6.5-2.9-19.8-4.1-16.3-1.4-48.6-1.6-55.1-.3-16.1,3.2-16.8,3.6-16.9,10.1-.1,4.2,0,4.3,5.5,7.1a36.67,36.67,0,0,0,11.3,3.4c3.1.3,5.9.9,6.1,1.3s-3,1.6-7.3,2.6l-7.7,1.9-.5,4c-.7,4.8.4,7.5,3,7.5a13,13,0,0,1,4.3,1.1c2.6,1.2,2.5.2,3.8,21.9.6,8.7.4,23.5-.3,26.1-.4,1.4-2.9,4.1-5.5,5.9s-6.9,5.4-9.5,7.8l-4.6,4.3-9-4.6c-5-2.5-9.5-4.5-10.2-4.5a73.82,73.82,0,0,1-8.2-2.1l-7.1-2.2.7-12.6c.3-6.9.9-16.7,1.3-21.8l.6-9.2,5.7-4.4c3.9-3,5.9-5.5,6.6-7.8s2.3-4.3,5.2-6.2c4.8-3.2,5.5-6.4,2.2-9.7-2.8-2.8-5.7-3.8-17-5.9-19-3.7-62.4-3.5-75.1.4-3,.9-7.2,2.1-9.4,2.7-6.6,1.9-9.1,3.5-10.5,6.8-1.2,2.8-1.1,3.4.8,5.3a15.92,15.92,0,0,0,5.4,3.1c2.7.9,3.4,1.7,3.8,4.6.8,4.5,1.7,6,3.7,6a18.39,18.39,0,0,1,5,1.2c3.1,1.1,3.3,1.5,3.3,5.8.1,6.8,1.9,34.9,2.6,39.6.5,3.6.3,4.1-1.9,5.1a59.17,59.17,0,0,1-8.8,2.4c-11.3,2.1-25.7,10.8-36.7,21.9-9.1,9.3-13.7,16-15.4,22.5a49.58,49.58,0,0,0-.68,6.84q-18.27.77-36.21,1.62a34.9,34.9,0,0,0-4.45-8.78c-3.2-4.4-13-12.3-18-14.4-10.1-4.3-18-7.1-22.9-8.1l-5.5-1.2.3-18.9c.1-10.5.6-19.9,1.1-21,1.4-3,4.1-13,4.1-15.2,0-1.1,1.6-3.5,3.6-5.4,3-2.9,3.5-3.9,3.1-6.6-.4-2.1-.1-3.6.9-4.4,1.7-1.4,1.9-4.5.3-5.5-.7-.4-.7-.9-.2-1.3s1.3-2,1.6-3.7c.5-2.6.2-3.3-1.9-4.2-1.3-.7-2.4-1.6-2.4-2.1,0-1.6-7.4-3.9-15.6-5s-52.4-2.2-58.4-1.5c-8.6,1-21.7,3.8-23.7,5s-2.3,2.3-2.3,8.3c0,5.5.4,7.1,2,8.6,1.3,1.2,1.7,2.2,1.1,3.4-.6,1-.3,3,.7,5.3,1.3,2.9,2.5,4,5.6,5,5.2,1.7,6.1,4.4,7.5,23.4.6,8.2,1.6,18,2.2,21.7a66.5,66.5,0,0,1,.7,11l-.3,4.1-8,1.2c-7.5,1.1-22.3,5.7-27.6,8.4-8.4,4.42-13.67,10.64-17.54,21q-19.4-.45-39.34-.77l.09,0c7.8-2.5,14.8-7.1,15.6-10.3,1.1-3.9-.6-9.2-4.1-13.1-3.2-3.5-4.3-4-13.7-5.9-5.7-1.2-13.4-2.8-17.3-3.6-13.5-2.9-53.8-5.6-73-5-28,1-55.9,5.6-64.8,10.9-7.1,4.1-9,9.3-6.5,17.7,1.3,4.5,3.2,5.7,12.5,8.3.75.22,1.43.42,2.06.62-33.53.3-67.19.84-100.47,1.62.26-17.07.32-29.78.13-30.53-1.3-4-22.13-15.32-43-23.43-4-1.54-8.1-3.16-9.16-3.56-1.46-.57-1.7-1.14-1.29-2.76.24-1.13,1.62-12.32,3.08-25l2.51-22.86,4.05-2.11c3.49-1.78,4.05-2.43,4.05-4.45v-2.35l-9.15-.25-9.16-.24.24-3,.24-3,13-.4,13-.41.24-3.65.25-3.72-13.62-9.24L5884,98.36l-20.26.08c-14.75,0-20.83.32-22.21,1-1,.57-7,4.7-13.21,9.16l-11.27,8.1.25,3.73.24,3.81,13.78.41,13.78.4.24,2.35c.41,3.25-.81,3.73-7.94,3.25-8.43-.57-13.29.4-13.62,2.75-.24,1.46.57,2.11,4.22,3.89a40.61,40.61,0,0,1,4.53,2.27s1.14,11.35,2.44,25.21c2.67,29,3.16,26.5-6.08,29.82-5.35,2-12,4.71-23.75,9.89L5800,206.8l-3.24-3.16-3.24-3.16-14-.24-14.11-.33-3.4,2.27c-2.76,1.87-3.65,2.11-4.7,1.3-.81-.57-4.46-2.51-8.27-4.38-6.24-3.08-7.62-3.4-14.67-3.73-12.24-.56-20.18,1.95-28.61,8.92l-3.89,3.32.32-10.45c.33-8.43.73-11.19,2.11-14.11,2.35-4.86,2.35-7.94,0-8.91-1.05-.41-16.78-1-35.1-1.54s-37.52-1.14-42.71-1.38c-11-.65-10.54.08-8.27-10.21a77.25,77.25,0,0,0,1.38-12.56l.16-6.73h4.3c4.78,0,7.62-1.95,6.89-4.7-.33-1.22-1.54-1.79-5.92-2.52a74.71,74.71,0,0,0-8.83-.89,6.43,6.43,0,0,1-6.57-6.72v-2.44l5.11.49c2.75.32,9.64.73,15.32,1l10.29.57.89-2.19a18.19,18.19,0,0,0,.81-4.78c0-2.35-1.21-3.48-13.94-13.53-7.62-6-14.59-11.27-15.48-11.59-2.11-.82-29-3-36.55-3h-5.68l-13.78,8c-17.18,10.05-16.61,9.65-17.5,13.37-1.14,5-.65,5.35,6.64,5.35,4.46,0,7.22.41,9,1.38a30.09,30.09,0,0,0,8.67,1.78c5.68.49,6.08.65,6.32,2.44.25,1.37-.48,2.67-2.75,4.62-3,2.75-3.16,2.75-10.86,2.75-6.81,0-8.19.24-10.05,1.7l-2.19,1.79-44.34-.65-44.33-.57-4-3.81c-6-5.67-9.65-7.78-18.65-10.94-13.13-4.62-23.42-9.16-24.64-11s-.73-8.51,2-30a188.83,188.83,0,0,0,1.22-21.48V44.05l3.4-3c4.46-3.89,3.65-5.43-3.73-7.13a25.2,25.2,0,0,1-5.83-1.78c-.25-.25,5.18-.57,12.07-.73,11.59-.33,12.73-.49,14.35-2.11,4.05-4-.57-10.7-10.7-15.48-9.89-4.62-30.31-9.4-49.36-11.43C5350.23.12,5306.78-.77,5291.06.77c-8.84.89-24.24,4.13-30.07,6.32-6.89,2.59-11,7.94-9.49,12.24,1,3,3.17,3.73,15.24,5.27,5.6.73,10.7,1.46,11.35,1.7,1.94.65-.73,1.95-4.05,1.95a14.73,14.73,0,0,0-5.68,1.45c-4,1.95-3.81,4.14.81,6.41a40.17,40.17,0,0,1,4.62,2.59c.65.65,1,7.3,1,24.07,0,12.73.4,26.26.89,30.07,1.38,11.11.81,11.76-19.37,19.29-14.75,5.52-17.67,7-23.51,11.68l-3.56,2.91-22.78.41c-22.78.4-22.78.4-23,2.19-.16,1.38.24,1.94,1.7,2.27l1.95.48.49,20c.32,11,.56,28.21.56,38.18v18.15l-16.78-.64c-40.44-1.46-50.17-1.71-51.46-1.06-1.79.89-1.87,4.3-.17,5.68,6.08,4.94,16.05,18.39,14.68,19.77-.17.25-2,0-3.9-.48-5.67-1.38-27.15-1.95-35.66-1-4.21.57-14.34,1.38-22.61,1.79-15.24.89-20.67,1.7-22.05,3.08-.48.48-.32,1.7.49,3.24,1.05,1.94,1.3,5.19,1.3,14.67,0,12,0,12.24-1.87,12.56-1,.16-13.7.73-28.37,1.22s-27.15,1.13-27.88,1.62c-1.13.63-1.34,2.51-1.26,22-60.68-.42-118.68-1.42-170.44-2.93-5.9-5.2-10.24-9.15-12.37-11.28l-3.3-3.3.6-17.7c.2-9.7.6-17.8.7-18.1s.2-3.4.3-7v-6.4l4.4-1.7c5.5-2,7.1-4.1,7.1-9.5v-4.1l-6.2-1.3a87.26,87.26,0,0,0-11.1-1.9c-.5-.1-.7-1.1-.5-2.4s.9-2.1,1.5-2,6-.4,12.1-1.1c15.6-2,18.8-4.6,15.9-13.1a10.74,10.74,0,0,0-4.3-5.7c-3.7-2.1-20.4-5.3-35.4-6.7-16.6-1.5-55.7-2.2-61-1-9.5,2-11.9,3-14.4,6-1.4,1.7-2.6,4.3-2.6,5.8,0,6.2,5.2,9.4,21.3,13.1,5.3,1.3,9.7,2.6,9.7,3s-3.5,1.1-7.7,1.6l-7.8.9-.3,3.7c-.3,3.2.2,4.2,3.5,7.2a32.71,32.71,0,0,0,6.9,5l3.1,1.5.5,11.8c.3,6.5.4,18.6.4,26.9-.1,13.5-.3,15.4-2,17.3-1.1,1.2-2.5,2.1-3.3,2.1s-3.3,1.8-5.7,4l-1,.88c-20.6-1-39.16-2.16-55.3-3.39.12-6.25.22-11.89.32-16.64.48-24.48.65-45.39.4-46.36-1.29-4-22.12-15.32-43-23.43l-9.15-3.56c-1.46-.57-1.71-1.14-1.3-2.76.24-1.13,1.62-12.32,3.08-25l2.51-22.86,4.05-2.11c3.49-1.78,4.06-2.43,4.06-4.45v-2.35l-9.16-.25-9.16-.24.24-3,.25-3,13-.4,13-.41.24-3.65.25-3.72-13.62-9.24-13.62-9.32-20.26.08c-14.75,0-20.83.32-22.21,1-1.05.57-7,4.7-13.21,9.16l-11.26,8.1.24,3.73.24,3.81,13.78.41,13.78.4.24,2.35c.41,3.25-.81,3.73-7.94,3.25-8.43-.57-13.29.4-13.62,2.75-.24,1.46.57,2.11,4.22,3.89a41.34,41.34,0,0,1,4.54,2.27s1.13,11.35,2.43,25.21c2.67,29,3.16,26.5-6.08,29.82-5.35,2-12,4.71-23.75,9.89l-5.11,2.27-3.24-3.16-3.24-3.16-14-.24-14.1-.33-3.41,2.27c-2.75,1.87-3.65,2.11-4.7,1.3-.81-.57-4.46-2.51-8.27-4.38-6.24-3.08-7.62-3.4-14.67-3.73-12.24-.56-20.18,1.95-28.61,8.92l-3.89,3.32.33-10.45c.32-8.43.72-11.19,2.1-14.11,2.35-4.86,2.35-7.94,0-8.91-1-.41-16.78-1-35.09-1.54s-37.53-1.14-42.72-1.38c-11-.65-10.53.08-8.26-10.21a77.27,77.27,0,0,0,1.37-12.56l.17-6.73h4.29c4.78,0,7.62-1.95,6.89-4.7-.32-1.22-1.54-1.79-5.92-2.52a74.71,74.71,0,0,0-8.83-.89,6.43,6.43,0,0,1-6.57-6.72v-2.44l5.11.49c2.76.32,9.65.73,15.32,1l10.29.57.89-2.19a18.19,18.19,0,0,0,.81-4.78c0-2.35-1.21-3.48-13.94-13.53-7.61-6-14.59-11.27-15.48-11.59-2.1-.82-29-3-36.55-3h-5.67l-13.78,8c-17.19,10.05-16.62,9.65-17.51,13.37-1.14,5-.65,5.35,6.65,5.35,4.45,0,7.21.41,9,1.38a30.09,30.09,0,0,0,8.67,1.78c5.68.49,6.08.65,6.33,2.44.24,1.37-.49,2.67-2.76,4.62-3,2.75-3.16,2.75-10.86,2.75-6.81,0-8.19.24-10,1.7l-2.19,1.79-44.33-.65-44.34-.57-4.05-3.81c-6-5.67-9.65-7.78-18.64-10.94-13.13-4.62-23.43-9.16-24.64-11s-.73-8.51,2-30a188.83,188.83,0,0,0,1.22-21.48V44.05l3.4-3c4.46-3.89,3.65-5.43-3.73-7.13a25.39,25.39,0,0,1-5.83-1.78c-.24-.25,5.19-.57,12.07-.73,11.6-.33,12.73-.49,14.35-2.11,4.05-4-.57-10.7-10.7-15.48-9.89-4.62-30.31-9.4-49.36-11.43C4084.45.12,4041-.77,4025.28.77c-8.83.89-24.23,4.13-30.07,6.32-6.89,2.59-11,7.94-9.48,12.24,1,3,3.16,3.73,15.23,5.27,5.6.73,10.7,1.46,11.35,1.7,2,.65-.73,1.95-4,1.95a14.69,14.69,0,0,0-5.67,1.45c-4.06,1.95-3.81,4.14.81,6.41A42.07,42.07,0,0,1,4008,38.7c.64.65,1,7.3,1,24.07,0,12.73.4,26.26.89,30.07,1.38,11.11.81,11.76-19.37,19.29-14.75,5.52-17.67,7-23.51,11.68l-3.56,2.91-22.78.41c-22.77.4-22.77.4-23,2.19-.16,1.38.25,1.94,1.71,2.27l1.94.48.49,20c.32,11,.56,28.21.56,38.18v18.15l-16.77-.64c-40.45-1.46-50.17-1.71-51.47-1.06-1.78.89-1.87,4.3-.16,5.68,6.08,4.94,16,18.39,14.67,19.77-.16.25-2,0-3.89-.48-5.68-1.38-27.16-1.95-35.67-1-2.64.36-7.6.81-13,1.2.24-.9.47-1.85.67-2.82.8-4.1,2-7.1,3.1-7.7,3.7-2.1,5.4-4.7,4.8-7.3a4.52,4.52,0,0,1,1.2-4.5c1.6-1.7,1.6-2.2.4-2.9s-1.2-1.2-.2-2.2c1.7-1.7,1.5-5.8-.3-5.8a2.41,2.41,0,0,1-2.1-1.5c-1.5-3.8-17.1-5.5-50.4-5.5-20.3,0-27.8.4-36.6,1.9-15.1,2.5-15.4,2.8-15.4,10.1,0,4.7.4,6.1,1.8,6.9s1.7,1.8,1.4,3.9c-.2,1.6.1,3.3.7,3.6a3,3,0,0,1,1.1,2.2c0,1-1.2,1.4-4.5,1.4-5.1,0-4.9.5-3.4-9.5a122.55,122.55,0,0,0,1-12.5c-.1-3,.2-9.6.5-14.5l.6-9.1,4.4-1.8c7.1-2.9,9.4-5.2,9.4-9.4,0-3-.6-4.1-2.7-5.4l-2.7-1.6,5-2.3c4.6-2.3,4.9-2.6,5.2-6.7.6-8.1-2.7-9.6-26.7-12.4-24.4-2.8-69.4-3.2-81.7-.7-10.9,2.2-14.6,4.4-15.8,9.2-1.5,5.8,1.3,8.9,10.2,11.3,1,.3.4,1.4-1.7,3.3-5.5,5.2-3.3,9.8,7.2,14.9l6.3,3.1,1.2,6.3a114.58,114.58,0,0,1,1.7,14.3,86.53,86.53,0,0,0,1.4,12,35.73,35.73,0,0,1,1.1,7.7c0,4.2,1.8,3.4-17,7.7-13.5,3.1-24.3,9.4-37.5,22-2.7,2.7-5.7,5.1-6.5,5.4-1.3.5-1.3.6.1.6s1.5.6.1,5.3c-1.17,4.22-1.63,24.23-1.24,41.82-35.21-.32-71.07-.9-107.15-1.66-.78-1.86-3.28-2.87-8.74-4-3.7-.8-6.6-1.9-6.6-2.6s3.1-1.6,8.3-2.3c12.3-1.7,13.1-2,16-4.7,2.7-2.5,3.6-7.4,1.9-10.1-1-1.5-11.6-5.3-14.8-5.3a15.83,15.83,0,0,1-4.9-1c-2.2-.8-2.4-1.3-1.6-2.9,1.1-2,5.4-3.8,15.2-6.5,3.1-.9,6.2-2.2,6.8-3s1-3.7.9-6.6l-.3-5.2-6.5-2.8c-13.7-5.9-15.1-6.2-39-8.9-5.8-.7-12.4-1.6-14.8-2.2-6.4-1.4-41.6-.9-48.2.7-3,.7-8.9,1.8-13,2.4-11.1,1.7-22.9,4.7-25.6,6.5a7.58,7.58,0,0,0,.9,13.1c1.7.9,5.2,3.1,7.7,4.8a38.7,38.7,0,0,0,6.4,3.9c1.6.6,1.7,1.4,1.2,4.8-.9,5.4.9,8.1,6.7,10.3l4.4,1.7.7,9.7c.2,2.78.39,5.26.54,7.5-49.4-1.47-98.43-3.17-145.95-5a50.6,50.6,0,0,0-10.51-4.3c-3.8-1.1-7.3-2.1-7.8-2.4-1.4-.9-.9-15.6,1.2-31.5,2.5-19,2.71-19.9,4.4-19.9a27.47,27.47,0,0,0,5.7-1.9,41.46,41.46,0,0,1,9.3-2.6c5.81-.7,8-1.7,10-4.7a7.28,7.28,0,0,0-1.1-10.2c-7.7-6.8-13-9.2-28.8-12.9-14.1-3.4-21.1-4.4-42.5-6.2-16.1-1.4-27.29-1.6-37.5-.9-22.5,1.7-54.9,10.6-59.2,16.2-2.8,3.6-.59,10.9,4,13.4a50.22,50.22,0,0,0,6.7,2.3c4.5,1.2,6.8,2.6,11.71,7.2,1.79,1.7,2.29,3.3,2.29,7,0,4.1,2.9,28.8,4.6,40.5.7,4,.3,4.3-7.1,5.2a12.68,12.68,0,0,0-1.47.29l-54.94-2.28c.81-.61,1.64-1.2,2.38-1.67,3.8-2.4,4.5-4.1,3.6-9.1-.9-4.6-8.8-12.1-14.1-13.4-2.2-.5-7.3-1.9-11.4-3-6.6-1.9-10.3-2.1-31.5-2.1-14,0-25.6.4-27.6,1.1-1.9.5-5.7,1.4-8.5,1.8-4.6.8-5.2.7-8.6-2.1a43.49,43.49,0,0,1-6.8-7.3c-3.1-4.3-17.7-16.4-22.3-18.6-3.9-1.7-4.9-6.1-4.3-20,.3-6.8,1.1-17,1.7-22.6,1.1-9.7,1.3-10.2,3.7-10.8,5.1-1.3,7.1-3.3,7.1-7.3,0-4.3-1.4-6.2-4.6-6.2-2,0-5.2-2.6-4.3-3.5a46.75,46.75,0,0,1,5.4-1.6c10.2-2.4,12-3.3,12.3-6.2a6.29,6.29,0,0,0-.9-4.3c-.9-1.1-.9-1.4,0-1.4,2,0,.3-1.7-4.5-4.5-4.1-2.4-6.5-2.9-19.8-4.1-16.3-1.4-48.6-1.6-55.1-.3-16.1,3.2-16.8,3.6-16.9,10.1-.1,4.2,0,4.3,5.5,7.1a36.67,36.67,0,0,0,11.3,3.4c3.1.3,5.9.9,6.1,1.3s-3,1.6-7.3,2.6l-7.7,1.9-.5,4c-.7,4.8.4,7.5,3,7.5a13,13,0,0,1,4.3,1.1c2.6,1.2,2.5.2,3.8,21.9.6,8.7.4,23.5-.3,26.1-.4,1.4-2.9,4.1-5.5,5.9s-6.9,5.4-9.5,7.8l-4.6,4.3-9-4.6c-5-2.5-9.5-4.5-10.2-4.5a73.82,73.82,0,0,1-8.2-2.1l-7.1-2.2.7-12.6c.3-6.9.9-16.7,1.3-21.8l.6-9.2,5.7-4.4c3.9-3,5.9-5.5,6.6-7.8s2.3-4.3,5.2-6.2c4.8-3.2,5.5-6.4,2.2-9.7-2.8-2.8-5.7-3.8-17-5.9-19-3.7-62.4-3.5-75.1.4-3,.9-7.2,2.1-9.4,2.7-6.6,1.9-9.1,3.5-10.5,6.8-1.2,2.8-1.1,3.4.8,5.3a15.92,15.92,0,0,0,5.4,3.1c2.7.9,3.4,1.7,3.8,4.6.8,4.5,1.7,6,3.7,6a18.39,18.39,0,0,1,5,1.2c3.1,1.1,3.3,1.5,3.3,5.8.1,6.8,1.9,34.9,2.6,39.6.5,3.6.3,4.1-1.9,5.1a59.17,59.17,0,0,1-8.8,2.4c-11.3,2.1-25.7,10.8-36.7,21.9-9.1,9.3-13.7,16-15.4,22.5a47.67,47.67,0,0,0-.69,6.84q-18.25.78-36.2,1.63a35.49,35.49,0,0,0-4.46-8.79c-3.2-4.4-13-12.3-18-14.4-10.1-4.3-18-7.1-22.9-8.1l-5.5-1.2.3-18.9c.1-10.5.6-19.9,1.1-21,1.4-3,4.1-13,4.1-15.2,0-1.1,1.6-3.5,3.6-5.4,3-2.9,3.5-3.9,3.1-6.6-.4-2.1-.1-3.6.9-4.4,1.7-1.4,1.9-4.5.3-5.5-.7-.4-.7-.9-.2-1.3s1.3-2,1.6-3.7c.5-2.6.2-3.3-1.9-4.2-1.3-.7-2.4-1.6-2.4-2.1,0-1.6-7.4-3.9-15.6-5s-52.4-2.2-58.4-1.5c-8.6,1-21.7,3.8-23.7,5s-2.3,2.3-2.3,8.3c0,5.5.4,7.1,2,8.6,1.3,1.2,1.7,2.2,1.1,3.4-.6,1-.3,3,.7,5.3,1.3,2.9,2.5,4,5.6,5,5.2,1.7,6.1,4.4,7.5,23.4.6,8.2,1.6,18,2.2,21.7a66.5,66.5,0,0,1,.7,11l-.3,4.1-8,1.2c-7.5,1.1-22.3,5.7-27.6,8.4-9.5,5-15,12.3-19,25.3-.9,2.85-1.53,5-2,6.87q-22.38,1.48-43.06,2.91a1.72,1.72,0,0,0,.34-.68c.1-.7.2-3.6.2-6.6l.2-5.4,6.5-2.2c7.8-2.5,14.8-7.1,15.6-10.3,1.1-3.9-.6-9.2-4.1-13.1-3.2-3.5-4.3-4-13.7-5.9-5.7-1.2-13.4-2.8-17.3-3.6-13.5-2.9-53.8-5.6-73-5-28,1-55.9,5.6-64.8,10.9-7.1,4.1-9,9.3-6.5,17.7,1.3,4.5,3.2,5.7,12.5,8.3,7.7,2.2,8.9,3.4,7.4,7.6a26.4,26.4,0,0,0-1.1,7.1c0,3.3.7,4.5,4.1,7.7l2.22,2.07c-12.19.61-22.07.95-29.32.94-68.83-.1-161.45,2.68-258.82-4.2.27-15.79.53-30.2.73-40.47.49-24.48.65-45.39.41-46.36-1.3-4-22.13-15.32-43-23.43l-9.16-3.56c-1.46-.57-1.7-1.14-1.3-2.76.25-1.13,1.62-12.32,3.08-25l2.52-22.86,4-2.11c3.48-1.78,4-2.43,4-4.45v-2.35l-9.16-.25-9.16-.24.25-3,.24-3,13-.4,13-.41.24-3.65.24-3.72-13.61-9.24-13.62-9.32-20.26.08c-14.76,0-20.83.32-22.21,1-1.06.57-7,4.7-13.21,9.16l-11.27,8.1.24,3.73.25,3.81,13.78.41,13.77.4.25,2.35c.4,3.25-.81,3.73-8,3.25-8.43-.57-13.29.4-13.61,2.75-.25,1.46.56,2.11,4.21,3.89a41.34,41.34,0,0,1,4.54,2.27s1.14,11.35,2.43,25.21c2.68,29,3.16,26.5-6.08,29.82-5.35,2-12,4.71-23.74,9.89l-5.11,2.27-3.24-3.16-3.24-3.16-14-.24-14.1-.33-3.4,2.27c-2.76,1.87-3.65,2.11-4.7,1.3-.82-.57-4.46-2.51-8.27-4.38-6.24-3.08-7.62-3.4-14.67-3.73-12.24-.56-20.18,1.95-28.61,8.92l-3.89,3.32.32-10.45c.32-8.43.73-11.19,2.11-14.11,2.35-4.86,2.35-7.94,0-8.91-1.06-.41-16.78-1-35.1-1.54s-37.53-1.14-42.71-1.38c-11-.65-10.54.08-8.27-10.21a77.25,77.25,0,0,0,1.38-12.56l.16-6.73h4.3c4.78,0,7.61-1.95,6.89-4.7-.33-1.22-1.54-1.79-5.92-2.52a74.64,74.64,0,0,0-8.84-.89,6.42,6.42,0,0,1-6.56-6.72v-2.44l5.1.49c2.76.32,9.65.73,15.32,1l10.3.57.89-2.19a18.61,18.61,0,0,0,.81-4.78c0-2.35-1.22-3.48-13.94-13.53-7.62-6-14.59-11.27-15.48-11.59-2.11-.82-29-3-36.56-3H1613l-13.78,8c-17.18,10.05-16.61,9.65-17.51,13.37-1.13,5-.64,5.35,6.65,5.35,4.46,0,7.21.41,9,1.38a30.09,30.09,0,0,0,8.67,1.78c5.67.49,6.08.65,6.32,2.44.24,1.37-.49,2.67-2.75,4.62-3,2.75-3.17,2.75-10.87,2.75-6.8,0-8.18.24-10,1.7l-2.18,1.79-44.34-.65-44.34-.57-4-3.81c-6-5.67-9.64-7.78-18.64-10.94-13.13-4.62-23.42-9.16-24.64-11s-.73-8.51,2-30a189,189,0,0,0,1.21-21.48V44.05l3.41-3c4.45-3.89,3.64-5.43-3.73-7.13a25.55,25.55,0,0,1-5.84-1.78c-.24-.25,5.19-.57,12.08-.73,11.59-.33,12.72-.49,14.35-2.11,4-4-.57-10.7-10.7-15.48C1453.44,9.2,1433,4.42,1414,2.39,1392.89.12,1349.45-.77,1333.72.77c-8.83.89-24.23,4.13-30.07,6.32-6.88,2.59-11,7.94-9.48,12.24,1,3,3.16,3.73,15.24,5.27,5.59.73,10.7,1.46,11.35,1.7,1.94.65-.73,1.95-4.06,1.95A14.69,14.69,0,0,0,1311,29.7c-4,1.95-3.81,4.14.81,6.41a41.1,41.1,0,0,1,4.62,2.59c.65.65,1,7.3,1,24.07,0,12.73.41,26.26.9,30.07,1.37,11.11.81,11.76-19.38,19.29-14.75,5.52-17.67,7-23.5,11.68l-3.57,2.91-22.77.41c-22.78.4-22.78.4-23,2.19-.16,1.38.24,1.94,1.7,2.27l2,.48.48,20c.33,11,.57,28.21.57,38.18v18.15l-16.78-.64c-40.44-1.46-50.17-1.71-51.47-1.06-1.78.89-1.86,4.3-.16,5.68,6.08,4.94,16,18.39,14.67,19.77-.16.25-1.94,0-3.89-.48-5.67-1.38-27.15-1.95-35.66-1-4.22.57-14.35,1.38-22.62,1.79-15.23.89-20.66,1.7-22,3.08-.49.48-.33,1.7.49,3.24,1.05,1.94,1.29,5.19,1.29,14.67,0,4.47,0,7.31-.09,9.12q-24-.39-48.14-.89c-.78-1.86-3.28-2.87-8.74-4-3.7-.8-6.6-1.9-6.6-2.6s3.1-1.6,8.3-2.3c12.3-1.7,13.1-2,16-4.7,2.7-2.5,3.6-7.4,1.9-10.1-1-1.5-11.6-5.3-14.8-5.3a15.83,15.83,0,0,1-4.9-1c-2.2-.8-2.4-1.3-1.6-2.9,1.1-2,5.4-3.8,15.2-6.5,3.1-.9,6.2-2.2,6.8-3s1-3.7.9-6.6l-.3-5.2-6.5-2.8c-13.7-5.9-15.1-6.2-39-8.9-5.8-.7-12.4-1.6-14.8-2.2-6.4-1.4-41.6-.9-48.2.7-3,.7-8.9,1.8-13,2.4-11.1,1.7-22.9,4.7-25.6,6.5a7.58,7.58,0,0,0,.9,13.1c1.7.9,5.2,3.1,7.7,4.8a38.7,38.7,0,0,0,6.4,3.9c1.6.6,1.7,1.4,1.2,4.8-.9,5.4.9,8.1,6.7,10.3l4.4,1.7.7,9.7c.21,2.78.39,5.26.55,7.49-49.41-1.46-98.43-3.17-146-5a50.57,50.57,0,0,0-10.5-4.31c-3.8-1.1-7.3-2.1-7.8-2.4-1.4-.9-.9-15.6,1.2-31.5,2.5-19,2.7-19.9,4.4-19.9A27.66,27.66,0,0,0,787,194a41.31,41.31,0,0,1,9.3-2.6c5.8-.7,8-1.7,10-4.7a7.28,7.28,0,0,0-1.1-10.2c-7.7-6.8-13-9.2-28.8-12.9-14.1-3.4-21.1-4.4-42.5-6.2-16.1-1.4-27.3-1.6-37.5-.9-22.5,1.7-54.9,10.6-59.2,16.2-2.8,3.6-.6,10.9,4,13.4a50.22,50.22,0,0,0,6.7,2.3c4.5,1.2,6.8,2.6,11.7,7.2,1.8,1.7,2.3,3.3,2.3,7,0,4.1,2.9,28.8,4.6,40.5.7,4,.3,4.3-7.1,5.2-.47.07-1,.17-1.48.29q-28.26-1.16-54.94-2.28c.81-.61,1.64-1.2,2.38-1.66,3.8-2.4,4.5-4.1,3.6-9.1-.9-4.6-8.8-12.1-14.1-13.4-2.2-.5-7.3-1.9-11.4-3-6.6-1.9-10.3-2.1-31.5-2.1-14,0-25.6.4-27.6,1.1-1.9.5-5.7,1.4-8.5,1.8-4.6.8-5.2.7-8.6-2.1a43.49,43.49,0,0,1-6.8-7.3c-3.1-4.3-17.7-16.4-22.3-18.6-3.9-1.7-4.9-6.1-4.3-20,.3-6.8,1.1-17,1.7-22.6,1.1-9.7,1.3-10.2,3.7-10.8,5.1-1.3,7.1-3.3,7.1-7.3,0-4.3-1.4-6.2-4.6-6.2-2,0-5.2-2.6-4.3-3.5a46.75,46.75,0,0,1,5.4-1.6c10.2-2.4,12-3.3,12.3-6.2a6.29,6.29,0,0,0-.9-4.3c-.9-1.1-.9-1.4,0-1.4,2,0,.3-1.7-4.5-4.5-4.1-2.4-6.5-2.9-19.8-4.1-16.3-1.4-48.6-1.6-55.1-.3-16.1,3.2-16.8,3.6-16.9,10.1-.1,4.2,0,4.3,5.5,7.1a36.67,36.67,0,0,0,11.3,3.4c3.1.3,5.9.9,6.1,1.3s-3,1.6-7.3,2.6l-7.7,1.9-.5,4c-.7,4.8.4,7.5,3,7.5a13,13,0,0,1,4.3,1.1c2.6,1.2,2.5.2,3.8,21.9.6,8.7.4,23.5-.3,26.1-.4,1.4-2.9,4.1-5.5,5.9s-6.9,5.4-9.5,7.8l-4.6,4.3-9-4.6c-5-2.5-9.5-4.5-10.2-4.5a73.82,73.82,0,0,1-8.2-2.1l-7.1-2.2.7-12.6c.3-6.9.9-16.7,1.3-21.8l.6-9.2,5.7-4.4c3.9-3,5.9-5.5,6.6-7.8s2.3-4.3,5.2-6.2c4.8-3.2,5.5-6.4,2.2-9.7-2.8-2.8-5.7-3.8-17-5.9-19-3.7-62.4-3.5-75.1.4-3,.9-7.2,2.1-9.4,2.7-6.6,1.9-9.1,3.5-10.5,6.8-1.2,2.8-1.1,3.4.8,5.3a15.92,15.92,0,0,0,5.4,3.1c2.7.9,3.4,1.7,3.8,4.6.8,4.5,1.7,6,3.7,6a18.39,18.39,0,0,1,5,1.2c3.1,1.1,3.3,1.5,3.3,5.8.1,6.8,1.9,34.9,2.6,39.6.5,3.6.3,4.1-1.9,5.1a59.17,59.17,0,0,1-8.8,2.4c-11.3,2.1-25.7,10.8-36.7,21.9-9.1,9.3-13.7,16-15.4,22.5a46.49,46.49,0,0,0-.68,6.84q-18.27.77-36.21,1.62a35.24,35.24,0,0,0-4.45-8.78c-3.2-4.4-13-12.3-18-14.4-10.1-4.3-18-7.1-22.9-8.1l-5.5-1.2.3-18.9c.1-10.5.6-19.9,1.1-21,1.4-3,4.1-13,4.1-15.2,0-1.1,1.6-3.5,3.6-5.4,3-2.9,3.5-3.9,3.1-6.6-.4-2.1-.1-3.6.9-4.4,1.7-1.4,1.9-4.5.3-5.5-.7-.4-.7-.9-.2-1.3s1.3-2,1.6-3.7c.5-2.6.2-3.3-1.9-4.2-1.3-.7-2.4-1.6-2.4-2.1,0-1.6-7.4-3.9-15.6-5s-52.4-2.2-58.4-1.5c-8.6,1-21.7,3.8-23.7,5s-2.3,2.3-2.3,8.3c0,5.5.4,7.1,2,8.6,1.3,1.2,1.7,2.2,1.1,3.4-.6,1-.3,3,.7,5.3,1.3,2.9,2.5,4,5.6,5,5.2,1.7,6.1,4.4,7.5,23.4.6,8.2,1.6,18,2.2,21.7a66.5,66.5,0,0,1,.7,11l-.3,4.1-8,1.2c-7.5,1.1-22.3,5.7-27.6,8.4-9.5,5-15,12.3-19,25.3-.91,2.85-1.54,5-2,6.87Q8,260.11-3.43,260.89V364.21h6940Z" transform="translate(3.43)"/></svg>