<?xml version="1.0" encoding="utf-8"?>
<!-- Generator: Adobe Illustrator 23.0.5, SVG Export Plug-In . SVG Version: 6.00 Build 0)  -->
<svg version="1.1" id="Capa_1" xmlns="http://www.w3.org/2000/svg" xmlns:xlink="http://www.w3.org/1999/xlink" x="0px" y="0px"
	 viewBox="0 0 6940 424.7" style="enable-background:new 0 0 6940 424.7;" xml:space="preserve">
<style type="text/css">
	.st0{fill:#0B090B;}
</style>
<title>separator</title>
<path class="st0" d="M6926,297.1c-20.8,2.9-33.5,4.6-47.6,12.9c-13.2,7.7-23,13.4-30,23.1c-4.3,5.3-9.8,9.6-16,12.4
	c-1.7,0.8-3.8,1.5-5.5,0.7c-1.5-0.7-1.5-2-2.9-2.9c-2.5-1.7-6.3-0.1-7.1,0.2c-15.8,5.9-33.7,1.7-50.5,3.1
	c-33.8,2.8-33.2,0.6-72.7,3.6c-24.1,1.8-36.1,2.7-48.9,4.9c-26.6,4.5-33.8,9-57.1,10c-19.9,0.9-29.9,1.4-38.2-3.6
	c-5.3-3.2-12.5-9.4-19.6-7.1c-3.2,1-4.8,3.3-9.8,4.4c-3.2,0.7-6.6,0.7-9.8,0c-19.9-3.7-29.8-5.5-47.1-9.8
	c-15.5-3.8-12.8-0.5-40.9-4.5c-27.6-3.9-26.8-6.6-49.8-9.8c-5.5-0.8-23.4-1.7-59.3-4.2c-14.2-1-22.7-1.5-34.4-4.7
	c-6.1-1.7-8.8-2.9-15.4-4.1c-11.7-2.2-19.4-1.3-27.3-1.2c-15.5,0.2-13.8-2.8-36.1-4.7c-24.2-2-37.1,0.6-50.4-3.6
	c-0.4-0.1-5.7-1.8-13-3.5c-6.1-1.5-9.3-2.2-13-2.4c-6.5-0.3-8.6,1.3-14.2,1.8c-8.6,0.8-14.9-1.7-19-3c-22.7-7-83.4-8-109-5
	c-9.9,1.1-19.9-1.6-29.8-0.3c-1.3,0.2-6.7,1-8.6-1.6c-0.6-0.9-0.9-2.1-2.1-2.7c-1-0.4-2.1-0.3-3.1,0.2c-12,4.7-25.8,1.4-38.7,2.2
	c-35.7,2.3-45.9-1.8-78.7,1.8c-12.7,1.4-25.5,1.4-38.2,2.7c-5,0.5-10.1,0.5-15.1,0c-3.4-0.4-6.9-1-10.2-1.8
	c-10.9-2.4-18.1,2.6-32.9,5.3c-16.7,3.1-17.3-1.4-39.5,1.8c-6.8,1-6.1,1.3-20,4c-5.9,1.1-22.2,4.3-38.2,6.2
	c-23.8,2.9-24.6,0.5-45.8,3.1c-21.3,2.6-17.3,4.7-37.3,7.1c-19.4,2.3-41,4.9-56.4,2.7c-5.2-0.9-10.5-0.7-15.6,0.5
	c-3.9,0.9-7.7,2.4-11.1,4.4c-7.3,4.1-17.3,4.6-31,4.6c-9.4-1-18.9-0.8-28.3,0.5c-5.1,0.2-10.6,0.6-16.5,1.1c-10.1,1-16.8,2-23.3,2.6
	c-6.9-3.6-11.1-12-11.1-19.6c0-9.5,7.1-8.9,3-21.3c0,0-4.6-8.4-17-8.4s-27.9,5.3-45.6,5.9s-33.2-11.9-58.1-7.7
	c-24.9,4.1-46.8,5.9-59.3,13c-12.4,7.1-10.1,5.3-15.4,13.6c-5.3,8.3-9.5,13-16,13.6s-11-1.7-14.7-2.1c-5.1-0.6-9.2,0.7-20.4-1.5
	c-16.4-3.2-30.5-2.7-39.1-2.4c-9.9,0.4-19.8,0.2-29.6-0.6c-3.4-0.3-7.4-0.8-11-3.6c-3.8-2.9-3.4-5.5-8-10.4
	c-1.8-1.9-5.1-5.4-10.1-7.1c-5-1.7-9.1-0.8-14.2,0.3c-7.5,1.7-14.6,4.7-21,8.9c-4.9,3.5-7.5,6.6-10.1,5.6c-0.6-0.2-2.1-1-3.3-6.2
	c-1.7-7.6,1.2-10.6,0-16.6c-1-5.1-2.5-12.3-8.3-16.6c-3.1-2.3-6.8-2.8-14.2-3.6c-10.5-1.1-17-1.9-24.9,0.6
	c-5.7,1.8-4.1,2.8-16.6,8.9c-10.7,5.3-12,4.7-17.2,8.3c-4.6,3.2-7.4,6.5-13,13c-10,11.6-8.7,13.1-12.7,15.5
	c-7.3,4.3-13.3,0.2-29.3-1.3c-4.4-0.4-13,0-30,0.9c-11.9,0.6-24,1.2-40.9,2.7c-12.7,1.1-40.7,3.7-51.8-2.9c-2.8-1.6-5.3-3.5-7.5-5.8
	c-3.7-4-3.4-6.2-6.9-9.1c-2.7-2.1-5.8-3.5-9.1-4c-2.2-0.4-2.8-0.2-10.7,0c-7.5,0.2-8.3,0-9.1-0.7c-2.6-2.2-0.4-5.7-2-11.6
	c-1.5-5.3-5-9.8-9.8-12.4c-2.7-1.4-5.2-1.7-16-0.9c-12.7,1-19,1.5-22.2,2.7c-8,3-13.1,8-19.6,14.2c-9.2,9-12.2,15.2-15.1,14.2
	c-0.5-0.2-1.9-0.9-3.5-13.3c-1.6-12-0.8-15.2-3.6-20.5c-1.3-2.5-3.2-6.1-7.1-8c-7.4-3.5-16.3,1.9-20.4,4.5c-8,4.9-12.6,11.2-16,16
	c-8.1,11.4-8.4,18.3-16,21.3c-2.8,1.3-5.9,1.6-8.9,0.9c-8.5-2.4-7.4-13.3-17.8-26.7c-5.2-6.7-11.9-12.2-19.6-16
	c-6-3-13.5-6.6-21.3-4.4c-4,1.1-8,4.9-16,12.4c-9.7,9.2-12.6,13.4-15.1,12.5s-2.4-6-2.7-12.5c-0.7-16.4-1.7-1.1-3.5-32.9
	c-1.7-28.9,0-26.9-1.8-34.7c-2.2-9.6-5.5-23.5-16.9-29.3c-8-4.1-16.5-2.5-20.4-1.8c-8.5,1.6-13,5.4-24,12.5
	c-15.9,10.3-14.8,7.7-25.8,15.1c-14.1,9.5-22.9,18.4-39.1,34.7c-11.3,11.4-17,17-20.5,22.2c-7.6,11.4-8.3,17.5-19.5,39.1
	c-11.1,21.2-14.3,22.6-16,22.2c-3.2-0.7-4.6-7.9-6.2-16.9c-2.4-13-0.5-17.1-4.4-22.2c-3.3-4.3-8-5.7-12.4-7.1
	c-10.4-3.2-19.5-1.7-24-0.9c-51,8.6-55,3.1-64.6,11.1c-6,4.6-12.9,7.9-20.3,9.6c-2.2,0.5-4.7,0.8-5.9-0.6c-0.7-1-1-2.2-0.7-3.4
	c0.3-3.3,0.1-8-0.3-17.3c-0.3-6-0.5-10.9-4-14.4c-1.9-1.7-4.1-3.1-6.5-4c-1.8-0.7-3.7-1.2-5.6-1.5c-15-2.1-23.7-1.8-23.7-1.8
	c-12.9,0.5-22.3,0.9-34.8,4.2c-15.5,4-30.9,8.1-43.7,20.7c-4.4,4.3-9.5,10.7-12.9,9.3c-2.5-1-1.4-5.1-4.4-11.5
	c-2.9-6.1-7.3-9.7-11.1-12.9c-4.4-3.6-9.4-6.4-14.7-8.4c-5-2-10.6-4.2-17.8-4c-14,0.4-24,9.8-24.9,10.7c-6.6,6.3-6.9,11.6-14.7,15.1
	c-3.4,1.5-8.3,2.7-9.8,0.9c-1.4-1.7,1.4-4.3,1.3-10.2c0-6.7-3.6-13-9.3-16.4c-5.4-3.1-11.1-1.7-18.2-0.4c-11.7,2-4-0.7-26.7,2.2
	c-16.1,2.1-24.2,3.1-32.4,5.3c-23.6,6.3-53.6,23.3-70.7,47.6c-0.5,0.7-9.5,13.5-11.6,12.4c-1.1-0.6,1.2-4.8-0.4-9.8
	c-0.8-2.4-2.5-4.9-7.1-8c-6.5-4.4-13.6-6.6-21.8-8c-8.9-1.6-20.2-3.5-34.2-0.5c-6.3,1.4-11.7,2.6-18.2,6.2c-6,3.4-9.7,7-11.6,5.8
	c-1.8-1.2-0.5-6,0.4-9.3c1.8-6.8,4-8.6,8-18.2c1.7-4.2,2.4-6.6,2.7-9.3c0.3-3,0-6-0.9-8.9c-0.7-2.5-2.1-4.8-4-6.7
	c-3.5-3.1-8.1-3.1-10.2-3.1c-28-0.2-21.9-1.8-32-0.5c-20.8,2.9-33.5,4.6-47.6,12.9c-13.2,7.7-23,13.4-30,23.1
	c-4.3,5.3-9.8,9.6-16,12.5c-1.7,0.8-3.8,1.5-5.6,0.7c-1.5-0.7-1.6-2-2.9-2.9c-2.5-1.7-6.2-0.1-7.1,0.2c-15.8,5.9-33.6,1.7-50.4,3.1
	c-33.8,2.8-33.2,0.6-72.7,3.5c-24.1,1.8-36.1,2.7-48.9,4.9c-26.6,4.5-33.8,9-57.1,10c-19.9,0.9-29.9,1.4-38.2-3.5
	c-5.3-3.2-7.4-5.2-14.4-2.9c-3.2,1-10-0.9-15,0.2c-3.2,0.7-6.5,0.7-9.8,0c-19.9-3.7-29.8-5.5-47.1-9.8c-15.5-3.8-12.8-0.5-40.9-4.4
	c-27.6-3.9-26.8-6.6-49.8-9.8c-5.5-0.8-23.4-1.7-59.3-4.1c-14.2-1-22.7-1.5-34.4-4.7c-6.1-1.7-8.8-2.9-15.4-4.2
	c-11.7-2.2-19.4-1.3-27.3-1.2c-15.5,0.2-13.8-2.8-36.1-4.7c-24.2-2.1-37.1,0.6-50.4-3.6c-0.4-0.1-5.7-1.8-13-3.6
	c-6.1-1.5-9.3-2.2-13-2.4c-6.5-0.3-8.6,1.3-14.2,1.8c-8.6,0.8-14.9-1.7-19-3c-22.7-7-83.4-8-109-5c-9.9,1.1-19.9-1.6-29.8-0.3
	c-1.3,0.2-6.7,1-8.6-1.6c-0.6-0.9-0.9-2.1-2.1-2.7c-1-0.4-2.1-0.3-3.1,0.2c-12,4.7-25.8,1.4-38.7,2.2c-35.7,2.3-45.9-1.8-78.7,1.8
	c-12.7,1.4-25.5,1.4-38.2,2.7c-5,0.5-10.1,0.5-15.1,0c-3.4-0.4-6.9-1-10.2-1.8c-10.9-2.4-18.1,2.6-32.9,5.3
	c-16.7,3.1-17.3-1.4-39.6,1.8c-6.8,1-6.1,1.3-20,4c-5.9,1.1-22.2,4.3-38.2,6.2c-23.9,2.9-24.6,0.5-45.8,3.1
	c-21.3,2.7-17.3,4.7-37.3,7.1c-19.4,2.3-41,4.9-56.4,2.7c-5.2-0.9-10.4-0.7-15.6,0.4c-3.9,0.9-7.7,2.4-11.1,4.5
	c-13.6,7.7-36.4,2.6-75.7,6.2c-16.7,1.6-23.9,3.5-37,2.7c-5.3-0.4-8.8-1-14.4,0c-5.9,1-19.1,4-19.1,4c-1.9,0.4-4.7,1.1-6.7-0.5
	c-1.5-1.2-1.7-3-2.2-5.8c0,0-0.4-2.5-2.7-11.1c-1.2-4.7-3.1-7.8-5.8-12.4c-2.2-3.6-5.1-8.6-9.8-12.9c-4.3-3.9-7.8-5.2-16.9-8.9
	c-24.2-9.8-21-9.3-28-11.6c-10.5-3.4-9.4-1.8-26.7-6.4c-19.9-5.2-20.8-7.1-30.2-7.7c-7.5-0.6-15.1-0.4-22.5,0.6
	c-7.1,1.2-11,2.7-17.2,1.2c-4.1-1-4.5-2.3-10.7-4.1c-4.2-1.3-8.6-2.1-13-2.4c-8.5-0.4-9.9,1.9-13.6,0c-4-2.1-3.7-5.7-8.3-7.1
	c-2.5-0.9-5.2-0.9-7.7,0c-4.5,1.9-5.9,7-7.1,11.3c-0.9,3.1-3.1,11.2,0.6,19c1.5,3.1,4.2,5.8,9.5,11.3c5.3,5.4,6.9,6,7.7,8.9
	c1.3,4.8-1.4,10-4.2,13s-92.1-4.3-90.1-9.3c-0.9-1.3-1.7-2.1-2.9-2.6c-1.5-0.6-2,0-3-0.6c-2.8-1.6-2.3-8.1-1.5-11.6
	c0.9-3.9,3.1-7.5,6.2-10.1c0,0-0.9-2.9-1.8-5.3c-1.8-5.3-2-5.9-2.7-6.8c-0.8-1.2-1.8-2.2-3-3c-2.6-1.6-5.6-1.2-8-0.9
	c-10.6,1.5-16,2.3-16.9,2.7c-7.4,2.9-7.1,5.5-13.3,7.1c-4.7,1.2-5.2-0.2-12.4,0c-5.7,0-11.4,1-16.8,3c-18.9,1.5-35.6,6.9-41.4,6.2
	c-0.7-0.1-7.2,0.8-10,1.1c-15.7,1.5-20.1-4.7-35.6-11.3c-15.4-6.5-16.6-22.5-45.6-31.1c-29-8.6-40.3-6.2-58.1-0.9
	c-17.8,5.3-17.2-15.4-31.4-18.4c-14.2-3-18.4-5.3-30.8,3v0c-2,2-4.7,3.7-7.7,6.2c-3.4,2.8-10.6,8.8-14.5,16.9
	c-4.9,10.2-1.2,16.1-5.9,19.8c-4.1,3.2-9.2,0.7-20.4-1.5c-16.4-3.2-30.4-2.7-39.1-2.4c-9.9,0.4-19.8,0.2-29.6-0.6
	c-3.4-0.3-7.4-0.8-11-3.6c-3.8-2.9-3.4-5.5-8-10.4c-1.8-1.9-5.1-5.4-10.1-7.1c-5-1.7-9.1-0.8-14.2,0.3c-7.5,1.7-14.6,4.7-21,8.9
	c-4.9,3.5-7.5,6.6-10.1,5.6c-0.6-0.2-2.1-1-3.3-6.2c-1.7-7.6,1.2-10.6,0-16.6c-1-5.1-2.5-12.3-8.3-16.6c-3.1-2.3-6.8-2.8-14.2-3.6
	c-10.5-1.1-17-1.9-24.9,0.6c-5.7,1.8-4.2,2.8-16.6,8.9c-10.7,5.3-12,4.7-17.2,8.3c-4.6,3.2-7.4,6.5-13,13
	c-10,11.6-8.7,13.1-12.7,15.5c-7.3,4.3-13.3,0.2-29.3-1.3c-4.4-0.4-13,0-30,0.9c-11.9,0.6-24,1.2-40.9,2.7
	c-12.7,1.1-40.7,3.7-51.8-2.9c-2.8-1.6-5.3-3.5-7.5-5.8c-3.7-4-3.3-6.2-6.9-9.1c-2.7-2.1-5.8-3.5-9.1-4c-2.2-0.4-2.8-0.2-10.7,0
	c-7.5,0.2-8.3,0-9.1-0.7c-2.6-2.2-0.4-5.7-2-11.6c-1.5-5.3-5-9.8-9.8-12.5c-2.7-1.4-5.2-1.7-16-0.9c-12.7,1-19,1.5-22.2,2.7
	c-8,3-13.1,8-19.6,14.2c-9.2,8.9-12.2,15.2-15.1,14.2c-0.5-0.2-1.9-0.9-3.5-13.3c-1.6-12-0.8-15.2-3.6-20.4c-1.3-2.5-3.2-6.1-7.1-8
	c-7.4-3.5-16.3,1.9-20.5,4.4c-8,4.9-12.6,11.2-16,16c-8.1,11.4-8.4,18.3-16,21.3c-2.8,1.3-5.9,1.6-8.9,0.9
	c-8.6-2.3-7.4-13.3-17.8-26.7c-5.2-6.7-11.9-12.2-19.6-16c-6-3-13.5-6.6-21.3-4.4c-4,1.1-8,4.9-16,12.4
	c-9.7,9.2-12.7,13.4-15.1,12.4c-2.5-0.9-2.4-6-2.7-12.4c-0.7-16.4-1.7-1.1-3.5-32.9c-1.7-28.9,0-26.9-1.8-34.7
	c-2.2-9.6-5.5-23.4-16.9-29.3c-8-4.1-16.5-2.5-20.5-1.8c-8.5,1.6-13,5.4-24,12.5c-15.9,10.3-14.7,7.7-25.8,15.1
	c-14.1,9.5-22.9,18.4-39.1,34.7c-11.3,11.4-17,17-20.5,22.2c-7.7,11.4-8.3,17.5-19.5,39.1c-11.1,21.2-14.3,22.6-16,22.2
	c-3.2-0.7-4.6-8-6.2-16.9c-2.4-13-0.5-17.1-4.4-22.2c-3.3-4.3-8-5.7-12.5-7.1c-10.4-3.2-19.4-1.7-24-0.9c-51,8.6-55,3.1-64.6,11.1
	c-6,4.6-12.9,7.9-20.3,9.6c-2.2,0.5-4.7,0.8-5.9-0.6c-0.7-1-1-2.2-0.7-3.4c0.3-3.3,0.1-8-0.3-17.3c-0.3-6-0.5-10.9-4-14.4
	c-1.9-1.7-4.1-3.1-6.5-4c-1.8-0.7-3.7-1.2-5.6-1.5c-15-2.1-23.7-1.8-23.7-1.8c-12.9,0.5-22.3,0.9-34.8,4.2
	c-15.5,4-30.9,8.1-43.7,20.7c-4.4,4.3-9.5,10.7-12.9,9.3c-2.5-1-1.4-5.1-4.4-11.6c-2.9-6.1-7.3-9.7-11.1-12.9
	c-4.4-3.6-9.4-6.4-14.7-8.4c-5-2-10.6-4.2-17.8-4c-14,0.4-24,9.8-24.9,10.7c-6.5,6.3-6.9,11.6-14.7,15.1c-3.4,1.5-8.3,2.7-9.8,0.9
	c-1.4-1.7,1.4-4.3,1.3-10.2c0-3.1-0.8-6.1-2.2-8.9c-0.3-0.6-0.7-1.2-1.1-1.8v270.3h6940V297.1C6932.3,296.7,6932.9,296.2,6926,297.1
	z"/>
</svg>
