<svg id="Capa_1" data-name="Capa 1" xmlns="http://www.w3.org/2000/svg" viewBox="0 0 6940 306.08"><defs><style>.cls-1{fill:#0b090b;}</style></defs><title>separator4</title><path class="cls-1" d="M6926,263.88c-20.84,2.89-33.47,4.64-47.56,12.88-13.17,7.71-22.95,13.44-30,23.12a45.05,45.05,0,0,1-16,12.44c-1.72.82-3.82,1.51-5.55.67-1.46-.72-1.55-2-2.89-2.89-2.48-1.68-6.25-.11-7.11.22-15.77,5.93-33.66,1.72-50.45,3.11-33.81,2.81-33.19.59-72.66,3.56-24.09,1.81-36.13,2.71-48.89,4.89-26.62,4.53-33.83,8.95-57.11,10-19.91.89-29.9,1.4-38.22-3.56-5.32-3.16-12.54-9.41-19.56-7.11-3.17,1-4.79,3.31-9.78,4.44a23.36,23.36,0,0,1-9.78,0c-19.89-3.69-29.83-5.54-47.11-9.77-15.46-3.8-12.76-.49-40.89-4.45-27.65-3.9-26.82-6.62-49.77-9.78-5.49-.75-23.43-1.65-59.26-4.15-14.17-1-22.74-1.53-34.37-4.74-6.12-1.68-8.8-2.92-15.41-4.14-11.66-2.17-19.42-1.29-27.26-1.19-15.54.21-13.82-2.84-36.15-4.74-24.17-2.05-37.06.6-50.37-3.56-.36-.11-5.71-1.79-13-3.55-6.13-1.48-9.28-2.22-13-2.37-6.46-.26-8.6,1.26-14.22,1.78-8.6.78-14.94-1.73-19-3-22.71-7-83.36-8-109-5-9.86,1.14-19.94-1.6-29.78-.3-1.32.17-6.73,1-8.59-1.63-.62-.85-.87-2.1-2.08-2.67a4.09,4.09,0,0,0-3.11.15c-12,4.67-25.78,1.38-38.67,2.22-35.66,2.33-45.92-1.8-78.66,1.78-12.7,1.39-25.51,1.44-38.23,2.67a73.37,73.37,0,0,1-15.11,0,78.57,78.57,0,0,1-10.22-1.78c-10.85-2.38-18.11,2.6-32.89,5.33-16.69,3.09-17.26-1.43-39.55,1.78-6.84,1-6.1,1.31-20,4-5.93,1.15-22.21,4.27-38.23,6.22-23.84,2.91-24.62.49-45.77,3.12-21.33,2.64-17.25,4.7-37.34,7.11-19.37,2.32-41,4.92-56.44,2.66a40.74,40.74,0,0,0-15.56.45,39.76,39.76,0,0,0-11.11,4.44c-7.32,4.13-17.29,4.56-31,4.64a111.17,111.17,0,0,0-28.29.55c-5.15.23-10.63.58-16.49,1.12-10.13.95-16.76,2-23.32,2.57-6.88-3.62-11.09-12-11.09-19.6,0-9.48,7.11-8.89,3-21.34,0,0-4.58-8.38-17-8.38s-27.85,5.33-45.63,5.93-33.18-11.86-58.07-7.71-46.81,5.93-59.26,13S5163,278.69,5157.7,287s-9.48,13-16,13.63-11-1.65-14.69-2.1c-5.09-.62-9.23.71-20.44-1.48-16.42-3.2-30.46-2.69-39.12-2.37a232.52,232.52,0,0,1-29.63-.59c-3.44-.32-7.37-.8-11-3.56-3.81-2.93-3.36-5.46-8-10.37-1.79-1.89-5.11-5.41-10.07-7.11s-9.1-.8-14.22.3a62.91,62.91,0,0,0-21,8.89c-4.92,3.48-7.52,6.6-10.08,5.63-.57-.23-2.09-1-3.25-6.23-1.7-7.57,1.21-10.59,0-16.59-1-5.08-2.5-12.27-8.3-16.59-3.08-2.3-6.84-2.75-14.22-3.56-10.48-1.14-17.05-1.86-24.89.59-5.66,1.78-4.15,2.75-16.59,8.89-10.73,5.3-12,4.66-17.19,8.3-4.57,3.22-7.39,6.49-13,13-10,11.58-8.72,13.13-12.74,15.48-7.29,4.26-13.3.23-29.33-1.33-4.43-.44-13,0-30,.88-11.91.62-24,1.24-40.89,2.67-12.72,1.08-40.68,3.66-51.78-2.89a35.12,35.12,0,0,1-7.55-5.78c-3.72-4-3.35-6.2-6.89-9.11a19.92,19.92,0,0,0-9.11-4c-2.19-.41-2.83-.18-10.67,0-7.52.18-8.32,0-9.11-.66-2.59-2.17-.43-5.73-2-11.56a20.58,20.58,0,0,0-9.78-12.44c-2.68-1.42-5.17-1.73-16-.89-12.68,1-19,1.46-22.22,2.66-8,3-13.13,8-19.56,14.23-9.24,8.95-12.19,15.17-15.11,14.22-.54-.18-1.92-.88-3.55-13.33-1.57-12-.81-15.17-3.56-20.45-1.31-2.52-3.2-6.14-7.11-8-7.37-3.51-16.3,1.92-20.44,4.45-8,4.88-12.61,11.2-16,16-8.1,11.41-8.43,18.32-16,21.33a14,14,0,0,1-8.89.89c-8.54-2.35-7.44-13.27-17.78-26.67a57.12,57.12,0,0,0-19.56-16c-6-3-13.45-6.62-21.33-4.44-3.95,1.09-8,4.89-16,12.44-9.74,9.22-12.65,13.36-15.11,12.45s-2.4-6-2.67-12.45c-.68-16.37-1.72-1.11-3.55-32.89-1.68-28.92,0-26.88-1.78-34.66-2.22-9.58-5.45-23.45-16.89-29.34-8-4.11-16.5-2.52-20.44-1.78-8.53,1.6-13,5.38-24,12.45-15.91,10.25-14.75,7.66-25.78,15.11-14.07,9.49-22.91,18.38-39.11,34.67-11.31,11.36-17,17-20.45,22.22-7.65,11.37-8.26,17.47-19.55,39.11-11.06,21.19-14.26,22.58-16,22.22-3.23-.66-4.58-7.94-6.23-16.89-2.39-13-.5-17.12-4.44-22.22-3.29-4.26-8-5.71-12.44-7.11-10.4-3.24-19.45-1.66-24-.89-51,8.61-55,3.06-64.6,11.11a53.32,53.32,0,0,1-20.29,9.63c-2.19.51-4.68.76-5.93-.59a4.35,4.35,0,0,1-.74-3.41c.34-3.27.13-8-.3-17.33-.27-6-.49-10.94-4-14.37a22.15,22.15,0,0,0-6.51-4,23.85,23.85,0,0,0-5.63-1.48c-15-2.12-23.71-1.78-23.71-1.78-12.86.5-22.32.87-34.81,4.15-15.47,4-30.91,8.1-43.71,20.74-4.41,4.35-9.51,10.72-12.89,9.33-2.46-1-1.38-5.07-4.44-11.55-2.89-6.13-7.27-9.73-11.11-12.89a55.42,55.42,0,0,0-14.67-8.45c-5-2-10.65-4.2-17.78-4-14,.4-24,9.83-24.88,10.67-6.56,6.32-7,11.62-14.67,15.11-3.43,1.55-8.28,2.73-9.78.89-1.37-1.69,1.39-4.28,1.33-10.22a19.37,19.37,0,0,0-9.33-16.45c-5.45-3.11-11.06-1.65-18.22-.44-11.69,2-4-.72-26.67,2.22-16.13,2.09-24.2,3.13-32.44,5.33-23.56,6.29-53.55,23.29-70.67,47.56-.48.69-9.54,13.55-11.55,12.44-1.12-.61,1.21-4.83-.45-9.77-.79-2.36-2.48-4.86-7.11-8-6.5-4.41-13.64-6.58-21.78-8-8.92-1.56-20.23-3.54-34.22-.45-6.25,1.38-11.73,2.59-18.22,6.22-6,3.37-9.72,7-11.56,5.78s-.46-6,.45-9.33c1.83-6.76,4-8.6,8-18.22,1.73-4.24,2.41-6.58,2.66-9.34a21.59,21.59,0,0,0-.89-8.89,14.92,14.92,0,0,0-4-6.66c-3.47-3.08-8.08-3.1-10.22-3.11-28-.18-21.89-1.85-32-.45-20.84,2.89-33.47,4.64-47.55,12.89-13.17,7.71-23,13.44-30,23.11a45.19,45.19,0,0,1-16,12.45c-1.73.82-3.83,1.5-5.56.66-1.46-.71-1.55-2-2.89-2.89-2.47-1.68-6.24-.1-7.11.23-15.77,5.93-33.65,1.71-50.44,3.11-33.82,2.8-33.19.59-72.67,3.55-24.08,1.81-36.13,2.72-48.89,4.89-26.62,4.54-33.83,8.95-57.11,10-19.91.9-29.89,1.4-38.22-3.55-5.32-3.17-7.37-5.19-14.39-2.9-3.16,1-10-.9-15,.23a23.32,23.32,0,0,1-9.77,0c-19.89-3.69-29.84-5.54-47.11-9.78-15.47-3.8-12.77-.48-40.89-4.44-27.65-3.9-26.83-6.62-49.78-9.78-5.49-.76-23.43-1.66-59.26-4.15-14.17-1-22.74-1.54-34.37-4.74-6.11-1.68-8.8-2.92-15.41-4.15-11.66-2.16-19.42-1.29-27.26-1.18-15.54.2-13.82-2.85-36.15-4.74-24.17-2.06-37.06.6-50.37-3.56-.35-.11-5.71-1.79-13-3.56-6.14-1.48-9.28-2.22-13-2.37-6.46-.25-8.59,1.27-14.22,1.78-8.6.79-14.94-1.72-19-3-22.71-7-83.36-8-109-5-9.86,1.14-19.94-1.6-29.78-.29-1.31.17-6.73,1-8.59-1.63-.61-.86-.86-2.1-2.08-2.67a4,4,0,0,0-3.11.15c-12,4.66-25.78,1.38-38.66,2.22-35.67,2.33-45.93-1.81-78.67,1.78-12.7,1.39-25.51,1.44-38.22,2.66a73.37,73.37,0,0,1-15.11,0,77.32,77.32,0,0,1-10.23-1.77c-10.85-2.38-18.1,2.59-32.89,5.33-16.69,3.09-17.26-1.44-39.55,1.78-6.84,1-6.09,1.31-20,4-5.93,1.14-22.2,4.27-38.22,6.22-23.85,2.91-24.63.48-45.78,3.11-21.32,2.65-17.25,4.7-37.33,7.11-19.37,2.32-41,4.92-56.45,2.67a40.9,40.9,0,0,0-15.55.44,39.54,39.54,0,0,0-11.12,4.45c-13.63,7.67-36.39,2.56-75.7,6.22-16.74,1.56-23.94,3.54-37,2.67-5.29-.36-8.75-1-14.37,0-5.92,1-19.11,4-19.11,4-1.92.43-4.72,1.06-6.66-.45-1.52-1.17-1.73-3-2.23-5.78,0,0-.44-2.45-2.66-11.11-1.22-4.72-3.06-7.84-5.78-12.44-2.15-3.65-5.1-8.64-9.78-12.89-4.26-3.88-7.84-5.22-16.89-8.89-24.16-9.8-21-9.29-28-11.55-10.51-3.38-9.36-1.85-26.66-6.38-19.87-5.2-20.75-7.06-30.23-7.7a110.1,110.1,0,0,0-22.52.59c-7.13,1.15-11,2.74-17.18,1.19-4.12-1-4.48-2.29-10.67-4.15a51.74,51.74,0,0,0-13-2.37c-8.46-.38-9.9,1.9-13.63,0-4-2.06-3.67-5.67-8.3-7.11a11.32,11.32,0,0,0-7.7,0c-4.49,1.89-5.93,7-7.11,11.26-.87,3.07-3.14,11.18.59,19,1.48,3.1,4.15,5.82,9.48,11.26s6.92,6,7.7,8.89c1.32,4.81-1.36,10-4.15,13s-92.11-4.3-90.08-9.35a6.37,6.37,0,0,0-2.85-2.59c-1.48-.6-2,0-3-.59-2.85-1.61-2.32-8.09-1.48-11.56a19,19,0,0,1,6.22-10.07s-1-2.88-1.78-5.34c-1.76-5.27-2-5.88-2.66-6.81a10.21,10.21,0,0,0-3-3c-2.63-1.63-5.58-1.24-8-.89-10.64,1.53-16,2.3-16.88,2.66-7.36,2.87-7.14,5.55-13.34,7.11-4.65,1.18-5.24-.21-12.44,0a49.38,49.38,0,0,0-16.75,3c-18.88,1.54-35.58,6.86-41.44,6.17-.74-.09-7.22.84-10,1.1-15.69,1.46-20.15-4.74-35.56-11.26s-16.59-22.52-45.63-31.13-40.29-6.21-58.07-.87-17.19-15.41-31.41-18.37-18.37-5.34-30.78,3h0c-2,2-4.73,3.73-7.75,6.24-3.4,2.82-10.56,8.75-14.52,16.89-4.94,10.16-1.17,16.09-5.92,19.85-4.09,3.23-9.23.71-20.45-1.48-16.41-3.2-30.45-2.69-39.11-2.37a234.38,234.38,0,0,1-29.63-.59c-3.44-.32-7.38-.8-11-3.56-3.81-2.93-3.36-5.46-8-10.37-1.79-1.89-5.11-5.41-10.07-7.11s-9.1-.8-14.23.3a63.09,63.09,0,0,0-21,8.88c-4.92,3.48-7.52,6.61-10.08,5.63-.57-.22-2.09-1-3.26-6.22-1.69-7.57,1.22-10.59,0-16.59-1-5.08-2.49-12.27-8.29-16.59-3.09-2.3-6.84-2.75-14.22-3.56-10.48-1.14-17-1.86-24.89.59-5.67,1.78-4.15,2.75-16.6,8.89-10.72,5.3-12,4.66-17.18,8.3-4.57,3.22-7.39,6.49-13,13-10,11.58-8.72,13.13-12.74,15.48-7.29,4.26-13.3.23-29.33-1.34-4.43-.43-12.95,0-30,.89-11.91.62-24,1.24-40.89,2.67-12.72,1.07-40.68,3.66-51.78-2.89a35.62,35.62,0,0,1-7.55-5.78c-3.72-4-3.35-6.2-6.89-9.11a19.92,19.92,0,0,0-9.11-4c-2.19-.41-2.83-.18-10.67,0-7.52.17-8.33,0-9.11-.66-2.59-2.17-.43-5.73-2-11.56a20.61,20.61,0,0,0-9.8-12.45c-2.69-1.42-5.17-1.73-16-.89-12.68,1-19,1.46-22.22,2.66-8,3-13.13,8-19.56,14.23-9.24,8.94-12.19,15.17-15.11,14.22-.55-.18-1.92-.88-3.55-13.34-1.57-12-.81-15.16-3.56-20.44-1.32-2.52-3.2-6.14-7.11-8-7.38-3.51-16.3,1.92-20.45,4.44-8,4.89-12.6,11.21-16,16-8.09,11.42-8.42,18.33-16,21.34a13.91,13.91,0,0,1-8.88.89c-8.56-2.3-7.44-13.3-17.78-26.67a57.12,57.12,0,0,0-19.56-16c-6-3-13.45-6.63-21.33-4.44-3.95,1.09-8,4.89-16,12.44-9.74,9.22-12.65,13.36-15.11,12.44s-2.4-6-2.67-12.44c-.69-16.37-1.72-1.11-3.55-32.89-1.68-28.93,0-26.88-1.78-34.67-2.22-9.57-5.45-23.44-16.89-29.33-8-4.11-16.51-2.52-20.45-1.78-8.52,1.6-13,5.38-24,12.45-15.9,10.25-14.74,7.66-25.77,15.11-14.07,9.49-22.91,18.38-39.11,34.67-11.31,11.36-17,17-20.45,22.22-7.66,11.36-8.26,17.47-19.55,39.11-11.06,21.19-14.26,22.58-16,22.22-3.23-.66-4.58-8-6.23-16.89-2.39-13-.5-17.12-4.44-22.22-3.29-4.26-8-5.71-12.45-7.11-10.39-3.24-19.44-1.66-24-.89-51,8.61-55,3-64.59,11.11a53.32,53.32,0,0,1-20.29,9.63c-2.19.51-4.68.76-5.93-.59a4.35,4.35,0,0,1-.74-3.41c.34-3.27.13-8-.3-17.33-.27-6-.5-10.94-4-14.37a22,22,0,0,0-6.52-4,22.92,22.92,0,0,0-5.63-1.48c-15-2.12-23.7-1.78-23.7-1.78-12.86.5-22.33.87-34.81,4.15-15.47,4-30.91,8.1-43.71,20.74-4.41,4.35-9.51,10.72-12.89,9.33-2.46-1-1.38-5.07-4.44-11.56-2.89-6.07-7.27-9.72-11.11-12.88a55.58,55.58,0,0,0-14.67-8.45c-5-2-10.65-4.2-17.78-4-14,.4-24,9.82-24.89,10.67-6.55,6.32-6.94,11.62-14.66,15.11C8.35,142.8,3.5,144,2,142.14c-1.37-1.69,1.38-4.28,1.33-10.22A19.79,19.79,0,0,0,1.11,123,17.15,17.15,0,0,0,0,121.2V346.84H6940v-83C6932.25,263.43,6932.89,263,6926,263.88Z" transform="translate(0 -40.76)"/></svg>